<svg id="line" xmlns="http://www.w3.org/2000/svg" viewBox="0 0 527.56 543.82">
  <title>craft2-21</title>
  <path d="M214.29,527.36c2.5,0.16,4.85.47,6.88,1.88,1.41,0.94,4.22,3.6,2.19,5.16-1.41,1.09-4.22-.78-5.94-0.94a73.48,73.48,0,0,0-8.29-.31c-5.63-.31-10.95-0.63-16.58.16-5.47.78-10.95,1.88-16.42,3l-8,1.72c-2.5.63-5.94,0.94-8.13,2.35-1.72.94-2.35,2-4.54,1.56a4.07,4.07,0,0,1-3.13-4.22c0.31-2.35,2.19-3.13,4.07-3.91,2.5-1.25,5-2.66,7.35-4.07a99.32,99.32,0,0,1,31.12-10c11.26-1.88,22.21-4.69,33.78-5.63s23.15-1.88,34.88-2.35a31.25,31.25,0,0,0,7.66-1.09c2.35-.62,4.07,1.56,4.85,3.75,0.47,1.56,1.41,4.85.47,6.25-1.25,2.5-4.38.78-6.26,0.31-6.1-1.56-13.29-.78-19.39-0.47-6.1.16-12,.16-18,0.78-6.25.78-12.51,1.25-18.77,2.35l-9.38,1.72c-2,.47-6.72.47-7.66,2.66C202.72,528.3,208.5,527.36,214.29,527.36Z" fill="#fff"/>
  <path d="M512.27,353.53c0.24,3.39-3.88,6.06-6.79,6.79-3.15,1-6.79-1-9.69-.48-1.7.48-1.21,1.21-2.67,1.7-2.18.73-4.85,0.48-7,.48-3.15,0-9.94-1.7-12.6,0a4.1,4.1,0,0,0-1.45,1.45l0.73-1.45c-1.45.24-3.88,6.79-5.57,11.15l2.67-5.33L466.47,377c-2.42,5.09-4.6,10.42-6.79,15.51-4.36,10.18-8.24,20.11-12.12,30.53-6.54,18.9-13.09,38.77-17.45,58.4-0.73,3.39-4.85,17.45-.24,19.39,0.73,0.48,5.82-2.42,5.57-2.18,1.21-1.21,2.67-2.42,3.88-3.88-1,.73-3.63,2.91-3.63,2.42-0.24-1.45,5.82-6.3,6.79-7.51,2.42-2.42,4.6-5.09,6.79-7.51L463.32,465c8.72-10.91,17-22.05,25.69-33,1.94-2.42,6.3-10.91,9.45-11.63,3.88-.73,4.6,3.15,3.39,6.3-2.18,6.54-8.72,11.87-12.12,17.69-6.06,10.18-13.33,19.63-20.36,29.32-7.75,10.42-15.51,20.84-24,30.78-3.88,4.85-9,11.63-15,14.54-4.6,2.18-10.66-.48-14.54-3.39a18.4,18.4,0,0,1-7.75-12.12c-0.24-1.45-1.7-9.21-.24-10.9v3.63l0.49-4.85c-0.49,1-.49-2.18-0.49-2.67a26.32,26.32,0,0,1,1-6.06,95.53,95.53,0,0,1,2.42-11.39c1.7-7.51,3.64-15,5.09-22.78,1.21-7.75,3.88-15,6.3-22.29,0.48-1.21,5.33-16,6.54-16,0.24,0-.48,2.91-0.48,3.15,1-3.63,2.42-7.27,3.63-10.91-0.49,1.21-1.21,2.42-1.21,1.94,0-2.91,3.15-8,4.12-10.66l2.91-8.48a233,233,0,0,1,8.72-22.78c-6.79.48-13.33,0-19.63,1.21-9.21,1.7-20.84.73-30-.48-1.21-.24-7-0.49-5.57-3.15,0.48-.73,5.82-1.94,6.79-2.18,4.6-1.7,9.45-1.7,14.3-1.94,9.45-1,18.66-.48,28.11-1.7,2.42-.24,6.54.49,8.72-0.48,2.18-.73,2.18-2.42,3.15-4.6,1.7-4.36,3.63-8.72,5.57-12.84,2.18-4.6,4.12-9.45,7-13.57,1.94-2.67,3.88-3.39,5.33-6.3,2.91-6.54,6.3-13.09,10.9-18.66,4.85-6.3,13.33-7.27,20.84-5.82,3.63,0.73,8.72,2.91,7,7.75-0.73,1.94-3.15,3.15-4.6,4.6,0,0.24,2.18-2.18,2.18-1.21-0.24,1.7-9.21,14.05-9.94,13.81-0.24,0,3.39-6.06,3.63-6.54-9.21,13.57-17,28.35-24.23,43.13,0.73,0,1.45-1,2.42-2.67a15.52,15.52,0,0,0-1.21,2.67c9.45-.48,19.14-0.48,28.84-1,1.94,0,5.57-2.67,5.82.73v0.24Zm-86.75,149a1.28,1.28,0,0,0,.73.48Zm72.21-195.8c-19.39,27.38-31.5,59.85-45.07,90.14a400.48,400.48,0,0,0-20.11,54.77c-2.42,8.48-4.36,17-6.06,25.69l1.21-4.6a272,272,0,0,1,10.66-33.68c8.72-24,17-48.71,27.87-71.73C475.92,346.75,484.64,325.42,497.73,306.76ZM457.5,395.21c-2.18,4.85-3.88,9.69-5.82,14.3,1.94-4.36,3.88-8.72,5.57-13.33A1.83,1.83,0,0,1,457.5,395.21Zm24-50.16-2.42,5.33A56.89,56.89,0,0,0,481.49,345ZM488,332.21l-5.82,11.15C484.64,337.78,486.82,332.45,488,332.21Z" fill="#fff"/>
  <path d="M418,442.71c-6.54,11.15-19.87,21.08-32.23,24.47-1.45.48-6.79,0.24-8,1.45-1.45,1.21-1.7,9.21-1.94,11.15-0.73,3.39-1.45,6.79-2.42,10.18-3.88,13.57-7,29.32-14.78,41.2-6.79,10.42-18.66,17.45-30,8.72-9.93-7.51-9.93-24-9.21-35.14,1.45-27.14,12.12-51.86,19.39-77.3,6.79-24,17.93-46.53,29.56-68.82A326.55,326.55,0,0,1,389.65,322c5.82-8.24,15.27-24.23,26.41-25.44,22.05-2.42,15,30.78,10.42,41.92-9,21.08-21.81,41.44-35.86,59.61-8.48,10.9-17.45,21.57-26.66,32.23-2.91,3.15-5.82,6.54-9,9.69-2.42,2.67-2.91,3.63-4.36,7.27-1.21,3.64-2.42,7-3.39,10.42-4.6,13.33-8.72,26.66-12.12,40.47-2.18,9.45-5.57,21.32-3.39,31l-1-.73,0.24,0.24c9.21,17.21,24.47-16.48,27.38-23.75a158.75,158.75,0,0,0,9.94-31.5c0.48-2.42,1.7-6.06,1.21-8.48-0.48-2.91-2.91-5.82-3.39-8.72a41.19,41.19,0,0,1,0-17.21c1.45-5.57,6.06-10.18,10.18-3.39,1.45,2.91,1.94,6.3,2.42,9.45,0.24,2.42-.73,7.51.24,9.69,1.45,3.39,7.27,1.45,10.18,0,11.63-4.6,20.84-15,28.84-24.23,1.21-1.45,11.39-17.21,13.33-11.15v0.24C433.51,428.17,421.88,436.65,418,442.71Zm-89.9,77.06c0-8.48,3.63-19.63,4.6-24.23a129.45,129.45,0,0,1,4.12-16.72c-1.21,3.15-2.18,6.54-3.15,9.93C330.53,498,326.89,509.34,328.1,519.76Zm32.47-99.11c15.27-17.21,29.32-35.62,41-55.25,3.39-5.57,26.66-51.86,17.45-54.52-3.15-1-6.06,3.88-7.75,6.06-6.54,8.48-11.39,18.17-16.48,27.63-10.18,19.14-18.9,39.26-27.38,59.37,0.24-.24,0,0.73-1.45,3.88v-0.24c0,0.24-.24.49-0.24,0.73Zm6.79-16.72-0.73,1.94C366.88,405.15,367.36,404.18,367.36,403.93Z" fill="#fff"/>
  <path d="M342.16,436.65A179.48,179.48,0,0,1,331.5,457,184,184,0,0,1,317,477.6c-4.36,5.57-10.42,12.6-17.69,13.81-8.24,1.45-14.78-5.33-17.45-12.6-5.82-14.3-1.7-29.32,2.67-43.13a33,33,0,0,1,.24-3.88c-2.42,3.64-5.82,8-8,11.39-2.91,4.6-5.09,9.21-8.24,13.57-1.45,2.18-21.33,26.17-24,22.05,0,0,2.91-1.21,2.67-1.7A12.51,12.51,0,0,1,237,478.57c0.73,0.48,1.21.73,1,.73-5.57.73-9.93-8-11.15-11.87-1.94-6.79-1.45-14.3-.24-21.08,2.67-14.05,8.48-29.32,16.72-41.44,2.18-2.91,4.36-6.3,7.51-8.48,1.94-1.7,3.63-1.94,5.82-3.39,3.63-3.15,6.79-5.82,12.12-5.82,11.87,0,16.72,13.57,19.14,22.78,5.82-7.51,16.24-17.45,25.2-6.54,4.85,5.82,1.7,10.18-1,15.51a112.24,112.24,0,0,0-10.18,27.63c0.24-.73,1-4.36,1.94-4.6,1.94-.48-15.51,54.28,9.45,23.51,7.51-9.45,14.05-19.39,20.6-29.32,2.91-4.6,5.82-9.45,9-14.05,1.45-1.94,5.82-6.54,6.06-1.21C349.43,426.47,344.1,432,342.16,436.65Zm-61.55-17.93c0-1.94-4.85-15.27-3.63-16.24,0.24-.24,2.42,6.79,2.67,7.27-0.73-2.91-1.7-11.87-6.06-11.87-8,0-14.05,14.78-16.72,20.36-4.85,10.9-9.21,22.54-11.15,34.41,0.73-3.64,14.78-47.5,19.14-47.25-3.39.73-16.24,38-17,41.44-0.49,1.94-4.36,14.54-.73,15.75,2.42,0.73,8.24-6.79,9.45-8.48q6.91-8.36,13.09-17.45l6.3-9c1-1.7,2.18-3.39,3.39-5.09C280.61,420.65,280.61,420.65,280.61,418.72Zm0.73-1.7v2.42C282.07,418.72,282.07,418,281.34,417Zm5.82,11.63-1.21,1.7c-0.24.73-1,4.12-1,4.12Z" fill="#fff"/>
  <path d="M240.15,430.83a84.91,84.91,0,0,1-7,11.87c-5.57,8.24-11.63,16.48-17.45,24.72-5.82,8-12.12,16-19.87,22.54-1.45,1-12.6,9.94-13.33,9.69a1.29,1.29,0,0,1,.48-0.73l-1.7.73c1.21-.24-3.39,2.91-4.6,3.39a13.25,13.25,0,0,1-9.94-2.18c-3.15-1.94-4.85-4.85-6.3-8.24-2.42-5.33-2.67-10.42-1.7-16.24,0.24-1.21,3.63-15.27,5.33-15,0.49,0-.48,1.94-0.24,2.18l1.7-6.06c-0.73-.24,12.12-27.38,13.33-29.08-7.27,1.45-16.48,1.21-21.57-5.09-1.45-1.94-1-3.64-1.45-5.09-0.73-1.94-1.7-2.91-2.18-4.6-2.42-11.87,11.39-28.35,23-20.36l-0.48-.73c0.24-1.45,3.15,2.18,3.39,3.39,0,1-1.94,7.75-3.15,7.27-0.24,0,1.45-4.36,1.45-4.6-1.7,4.6-6.79,9.69-7.27,14.54-0.49,3.63,1.45,3.63,4.6,4.36,4.6,1.21,11.87.48,17.69,2.18-3.88-1.21-8.48-1.45-11.63-1.94a0.24,0.24,0,0,1-.24-0.24c3.63,0.48,7.51.48,10.66,1.21,7,1.7,11.39,4.36,8.48,11.87-2.91,7-6.54,14.05-9.69,21.08-2.91,6.79-5.33,14.05-8,21.08-0.73,2.42-6.06,12.6-4.12,15,2.42,2.91,15.75-9.21,19.38-13.09-0.73.73-1.45,0.73-1.94,1.21-0.48,0,4.85-6.79,5.57-7.75l7-9L221.49,442,234.81,424c1.21-1.45,7-9.94,8.48-3.63C244,423.8,241.6,427.92,240.15,430.83ZM165,496.26a1.28,1.28,0,0,1-.48-0.73l0.24,0.24c-1.21-2.67-2.42-5.33-2.91-6.79l0.73,3.15-1-5.09v-0.24a1.87,1.87,0,0,1-.24-0.73,0.75,0.75,0,0,0,.24.48v-1.21a42.69,42.69,0,0,1,.48-9.69v-0.24a28.51,28.51,0,0,0-.73,6.54,29.63,29.63,0,0,0,.73,9.21,39,39,0,0,0,3.63,6.79c0-.24,0-0.48-0.24-0.48a14.4,14.4,0,0,0,5.57,3.39A13.52,13.52,0,0,1,165,496v0.24Zm-2.91-21.08v0.24c0-.24.24-0.49,0.24-0.73C162.36,474.93,162.12,474.93,162.12,475.18Zm0.73-4.6a5.53,5.53,0,0,1-.24,1A5.53,5.53,0,0,0,162.84,470.57Zm0.49,0c1.7-6.3,4.36-12.36,6.78-18.17l4.61-10.66c1.21-2.18,6.3-14.05,7.51-14.78-1.7.48-5.09,9.21-5.57,9.93a118.72,118.72,0,0,0-5.82,12.6C167.93,456.28,165,463.3,163.33,470.57Zm0.48,23.75a0.85,0.85,0,0,0-.24-0.49C163.57,494.08,163.81,494.08,163.81,494.32Zm7-80.45a0.24,0.24,0,0,1,.24-0.24Zm0,0.24a11,11,0,0,0,1.7,1.7,9.62,9.62,0,0,0,4.85,1.7c-2.18-.24-4.36-0.48-5.57-1.45A3,3,0,0,1,170.84,414.11Zm26.41,20.6-5.09,10.9L197.25,435v-0.24Zm0-.24h0.24v-0.24Zm0,0h0.24v-0.24Z" fill="#fff"/>
  <path d="M60.71,460.4v0.24a108.4,108.4,0,0,0-1.21,21.57l0.73,1.45a10.76,10.76,0,0,1,.48,3.15c1.45,0.73,2.67,4.85,3.88,6.06,2.18,2.18,4.85,2.91,7.75,3.15a26.38,26.38,0,0,0,6.3-.73c14.78-3.39,26.9-14.78,36.59-25.44a210.15,210.15,0,0,0,25.2-33.2c1-1.45,2.91-7.27,5.57-7,2.91,0.24,1.7,8.72,1.45,10.42-3.15,24.72-19.87,46.53-38.29,62-6.3,5.09-14.54,12.12-23,12.6-7.27.48-15-3.64-20.84-7.27C54.17,500.86,44,490.69,39.87,478.33c-3.15-9-1.21-18.66,0-27.87,0.24-.48-0.48-5.09.48-6.3a32.5,32.5,0,0,0-.24,4.6,44,44,0,0,1,.73-5.57c-0.48.48,0-3.39,0-3.63a57.79,57.79,0,0,1,1.21-6.3c1-4.6,2.42-9,3.88-13.57,2.91-9.21,6.79-18.17,9.69-27.62a137.34,137.34,0,0,1,10.9-24.47c1.21-2.18,11.15-22.05,13.33-21.57,0,0-1.7,3.39-1.45,3.63,2.42-4.12,4.85-8.48,7.51-12.6-1,1-2.18,2.42-2.18,2.42,1-3.15,4.85-7.27,6.79-9.94,1.7-2.91,3.63-5.57,5.57-8.48a208.26,208.26,0,0,1,14.3-18.42c7-7.27,17.21-17.93,28.11-18.42,19.63-1.21,31,19.63,31.26,36.11v0.24c0,8.72-2.18,18.66-8,25.2-5.33,6.06-16,13.08-24.23,14.05-1.94.24-5.33,1-4.85-1.94a5.09,5.09,0,0,1,1.7-1.7h-0.24c1.45-.49,9.21-18.42,10.9-18.17,0,0-2.91,6.54-3.63,8.24a212,212,0,0,0,11.15-23.75c1.7-4.85,5.09-13.33,2.91-18.42-2.91-6.3-11.63-1.45-15.51.73l-3.39,1.94,1.21-.48a15.06,15.06,0,0,0-2.91,2.18A14.2,14.2,0,0,1,139,306c3.15-2.18,10.66-6.78,14.54-3.88,2.91,2.42,2.18,6.06,1,9.45,1-4.36,1-9-3.39-9.69s-7.75,2.91-11.15,3.88c-11.15,7.27-19.87,19.14-27.14,30A278.32,278.32,0,0,0,91,373.64c-6.79,13.81-11.87,28.11-17.21,42.65C68.71,430.1,63.62,444.16,61,458.46v1.21a0.48,0.48,0,0,1-.24.48l0.24-.24C61,460.15,60.71,460.15,60.71,460.4ZM117.9,320.33c-13.81,15-25.44,33.2-34.17,51.86a373.74,373.74,0,0,0-18.42,47.25,302.57,302.57,0,0,1,12.84-30c8-16.48,16-32.47,25.44-48A170.57,170.57,0,0,1,117.9,320.33Zm16.72-11.63c-6.06,4.85-10.9,10.9-15.51,17a132.13,132.13,0,0,1,9.45-10.9C130.26,313.06,132.44,310.64,134.62,308.7Zm18.42,9c0-1.7,1-3.88,1.45-6.06a26.2,26.2,0,0,1-1.21,5.09A1.83,1.83,0,0,1,153,317.67Z" fill="#fff"/>
  <path d="M262.9,340.31a47,47,0,0,1-6.5,3.42c-2.91,1-1.71,1.71-2.22,4.62-0.85,5.47-3.25,10.26-6,15.05-3.42,5.64-5.81,10.43-11.29,14.88A40.35,40.35,0,0,1,223,385.8c-6.16,1.71-12.14.68-18.47-.34-1.88-.34-5.64-0.51-7.35-1.88-10.95-5-1.71-26.51,1.88-33.69,5.3-10.77,12.83-21.21,23.43-27.19a19.66,19.66,0,0,1-6.84-6.67c-3.76-6.84-1.88-12.14.68-18.47,2.05-5,7.53-8.55,11.63-11.63s9.92-6.5,14.71-7.87c10.95-2.91,21.72,8.72,18.3,19.33-1.2,3.93-5.47,10.78-9.24,12.49-2.05,1-6.5,1.37-6.5-2.05-0.17-1.37,1.2-2.22,2.05-3.25,2.05-2.22,10.95-13.17,5.13-15.39-5.13-1.88-14.71,6.67-18.3,9.75-2.91,2.74-11.8,11.12-8.72,15.91,3.59,5.47,14.54-2.05,19.5,1.2,3.08,2.05,3.59,8,.68,10.09-2.74,1.88-6.67.17-9.75,1.54a55.6,55.6,0,0,0-8.72,5.13,10.52,10.52,0,0,0-3.08,3.08c-0.68.86-1,2.05-1.88,3.08-2.39,3.42-4.79,6.67-7,10.09a69.83,69.83,0,0,0-8.38,19c-0.86,2.91-1.54,9.24,1.88,10.78,3.93,1.88,11.46-3.08,14.54-5.13,10.09-7,17.62-17.45,24.46-27.71-3.59,2.05-8.55,1.71-12.49,2.57-2.74.51-4.45,1.71-4.79-2.05-0.34-3.08,1.2-4.28,2.91-6.33,0-.17-0.51-1,0-1.54a7.44,7.44,0,0,1,2.05-.86c1.54-.34,3.08.34,4.45,0.17,0.85-.17,1.37-1.2,2.91-1.54,2.05-.51,4.62-0.51,6.67-0.85,3.25-.34,5.3-0.86,8.72-1,2.22-.17,4.79-0.34,7-0.68,1.2-.17,5.47-2.22,6.5.34C272.82,336.89,263.92,339.62,262.9,340.31ZM204.57,347c2.05-3.25,3.76-6.84,6.16-9.92a39.77,39.77,0,0,0-4.45,4.79,63,63,0,0,0-7.53,13.68c-2.57,6.16-5.82,16.08-3.76,23.43-0.85-4.79.17-11.29,1-14.37A98.49,98.49,0,0,1,204.57,347Z" fill="#fff"/>
  <path d="M516.6,234.66c-5.09,5.33-9.94,11.15-14.78,17-9.94,12.12-17.69,26.17-27.62,38.77-7.75,9.69-20.6,27.38-33.44,14.3-10.42-10.18-7.75-29.56-6.54-42.41a205.6,205.6,0,0,1-23.26,20.36c-4.6,3.15-9.93,6.79-15.75,5.57-18.9-3.88-16.24-30.29-10.66-43.13,3.15-7.51,4.36-15.51,8.72-23.26,4.85-8.72,11.87-18.66,21.33-22.54,11.39-4.6,21.81,8.24,28.35,15.75,5.82-21.32,13.81-41.68,23-61.79,0.49-.73,2.18-7.75,4.12-9.21-1,.73-2.18,4.6-2.67,6.54a60.58,60.58,0,0,1,3.88-8H471c0.73-1,3.88-8.72,4.6-9.69a107.45,107.45,0,0,1,7-10.18c4.6-5.33,10.18-10.42,16.72-12.84,9-3.39,22.29-1.45,25.93,8.48,4.85,13.57-4.12,29.56-10.66,40.71-4.12,6.79-8.48,13.81-13.09,20.35l-6.3,8.24-2.18,2.42a1.23,1.23,0,0,0,.24-1.21l-1.94,2.67h0l-0.73,1-10.42,14.05c1.21-1.45,3.15-3.88,3.63-3.63,0,0-16.48,21.08-17.93,23-6.06,7.51-6.79,20.11-8.24,29.56-1,5.33-7.51,39.5,1,39.5,2.18,0,5.09-4.12,6.3-5.57a123.2,123.2,0,0,0,9.94-12.36c6.54-8.72,12.6-17.45,18.9-26.17,6.3-8.48,12.84-17,19.87-24.72,1.45-1.21,12.36-14.54,13.81-6.54v0.24C528.24,225.93,520.48,230.78,516.6,234.66Zm-78.27.24c1-4.36,2.67-8.48.24-12.36-2.18-3.15-4.12-7.27-7.27-9.45-1.21-1-2.91-2.18-4.6-1.7a0.89,0.89,0,0,0-.73.24l1.21-.73c-5.09.48-9,8.72-11.63,13.81a167.3,167.3,0,0,0-13.08,32c-1,3.88-5.82,17.69-.24,20.11,2.91,1.45,7.75-2.18,10.66-4.85-3.15,2.67-6.79,4.6-9,4.36-8-.48-2.18-16.24,1.45-25.93-3.39,9.45-8.48,25-1.7,25.69,5.57,0.49,14.3-9.45,17.93-12.84,3.88-3.63,7.75-7.27,11.39-11.15,4.12-4.12,4.12-9.21,5.09-15a4.25,4.25,0,0,1,.24-1.21v-1Zm-23.75,35.38h0.24a128.6,128.6,0,0,0,10.42-9.21c2.67-2.42,10.18-7.75,10.66-10.91q-8.36,8.72-17.45,16.72Zm8.24-56c0.24,0,1-1,1.94-1.7C424,213.33,423.31,214.3,422.82,214.3ZM433,213.09a5.06,5.06,0,0,0-1.45-1Zm25.93-19.87c-0.48,1.94-2.91,4.6-3.39,6.06-1,2.91.24,6.06-1.7,8.48a0.52,0.52,0,0,0,.49-0.48c0.73-.73,2.18-6.3,2.67-7.51A17.29,17.29,0,0,0,458.93,193.22Zm6.79-27.14a81,81,0,0,1-4.36,9.21c-1.7,3.39-2.42,7-3.63,10.66a50.14,50.14,0,0,0,3.63-8.24C462.56,174.07,464.5,170,465.71,166.08Zm11.39,14.54-0.73,1.21c-0.24,1-.48,1.45-0.24,1.21Q470.68,198.67,466,214.3a6.46,6.46,0,0,1,1.21-1.45c-1.21,1.7-2.42,3.15-2.67,4.6l1-1,1.7-2.18,12.36-16-4.85,6.06-5.33,5.57a409.72,409.72,0,0,0,27.87-39.26c7.27-11.63,18.9-28.84,17.93-43.38,0-2.18-.48-5.33-2.67-6.54-5.57-3.15-11.87,8-14.05,11.63-8.72,14.05-14.78,29.56-20.36,45.07v0.24a2.66,2.66,0,0,0-.48,1v0.24a1.46,1.46,0,0,0-.24,1A0.89,0.89,0,0,0,477.1,180.62Zm-0.73,1.21a10.51,10.51,0,0,1-.24,1.21l1-2.42ZM480,207a1.28,1.28,0,0,0-.49.73A3,3,0,0,0,480,207Zm0.24-.48L480,207A0.85,0.85,0,0,0,480.25,206.54Z" fill="#fff"/>
  <path d="M400.53,224.23c-1.45,5.33-4.6,10.18-7.51,15-7.27,11.63-13.57,24-21.57,35.62-8.72,12.6-18.17,25.44-29.32,36.35-9.45,9-22.54,16-33.92,5.57-10.18-9.45-10.18-26.41-9.45-39.26,1-13.57,4.6-26.66,7.75-39.74,0.24-.48,0-6.3,1.21-8a33.66,33.66,0,0,0-.48,3.63,41.78,41.78,0,0,1,1.7-5.09h-0.73c-0.73-4.85,2.67-12.36,4.12-17,1.7-5.57,3.63-11.39,5.57-17,3.63-10.42,7.51-20.6,10.91-31,3.15-10.42,8-20.36,12.84-30q3.27-6.91,7.27-13.81c0.73-1.21,6.06-11.63,7.27-11.39l-1.94,4.12L362,99l-0.24.24c1.21-1.94,2.91-5.57,4.12-7l5.57-7.51c3.39-4.12,7.51-9.94,13.09-11.63,10.66-3.39,19.39,7.75,20.84,17.21l0.24,0.24v1.21c1.45,14.78-7.27,32.23-13.81,44.83-3.88,7.75-8,17.21-14.05,23.51-4.12,4.6-6.3,9.45-9.69,15a442.27,442.27,0,0,1-30,43.13c-2.67,3.39-4.36,5.57-5.57,9.94-1.45,4.6-2.67,9.21-3.88,14.05-1.45,4.85-2.67,9.69-3.88,14.54-0.48,2.18-2.67,9-2.42,9.45a57.47,57.47,0,0,0-1.45,9l1.94-7.27c1.21,1.94-.73,9.21-1,11.39a86.94,86.94,0,0,0-.73,11.39c0,4.6,0,15,6.06,16,8.24,1,17-11.39,21.08-16.48,9.94-11.87,18.17-25.2,26.41-38.29,4.36-6.79,8.48-13.57,12.6-20.6,2.67-4.36,4.85-10.42,8.24-14.06C401,211.39,401.5,220.36,400.53,224.23ZM311.36,238c-1,0-2.18,5.09-2.91,10.66v-0.24a188.2,188.2,0,0,0-3.15,26.17l0.73-7.75v0.73a33.46,33.46,0,0,1,.73-4.85c1.45-7.27,1.7-16.48,4.6-23.26a1.87,1.87,0,0,1,.24-0.73C311.84,238.53,311.84,237.8,311.36,238Zm30.78-41.44c17.93-28.84,38.29-59.13,49.19-91.6-4.12,11.63-10.18,22.78-15.75,33.44-3.39,6.06-6.54,12.12-10.18,18.17-2.18,3.63-6.54,9.21-8,13.09,1.94-6.3,7.75-13.57,11.15-19.39l10.18-18.9c5.82-11.63,14.54-25.93,15-39.5V91.68c0.49-12.84-10.42,1.7-12.12,4.36-6.79,10.9-11.63,22.78-16.48,34.41C356.19,152,349.16,175.29,342.13,196.61Zm8-67.85a1.46,1.46,0,0,0-.24,1c5.33-9.69,11.63-18.9,16.72-29.08-2.42,4.36-6.79,8.24-9.21,12.84C354.73,118.58,352.31,123.43,350.13,128.76Z" fill="#fff"/>
  <path d="M310.39,232.47c-4.12,6.06-8,11.87-12.6,17.69-4.85,6.54-10.9,17-19.39,18.9-1.94.24-11.15-2.18-10.9-3.63H268c-1.94-1,0,1.21-2.91-1-2.18-1.45-3.63-3.64-5.09-5.82-2.67-3.63-6.06-6.79-7-11.15-0.24-1.21-.73-9.94,1.21-9.94,0.48,0,0,1.21.24,1.21l0.73-4.36a1.5,1.5,0,0,1-.73,1c-1-.24,3.63-17.45,4.12-18.9,1.94-5.09,2.91-10.9,7.75-13.81,3.63-2.42,8.24-1.94,12.84,0,1.94,0.73,7.51,3.15,7.51,5.57,0,1.45-1.21,1.7-1.94,2.42a1.45,1.45,0,0,1,1-.24c0.73,0.48-2.91,5.57-3.39,5.33-0.48,0,.24-1.21.48-1.94a125.21,125.21,0,0,0-11.39,24.48c1.21-3.15,7.27-16.72,8-16.48s-16,29.32-7.75,33.44c3.88,1.94,10.42-4.12,13.09-6.3,4.6-3.64,10.9-8.24,14.3-12.36a2,2,0,0,1-1.7.48c-1-1.21,11.15-17.21,13.33-18.66,1.7-1.21,5.09-2.18,5.57,1C317.17,224,312.81,229.32,310.39,232.47Zm-41.19,13.81-0.49,1.94,0.49-1.45v-0.24C269.44,246,269.44,246,269.19,246.29Zm3.15-59.85c-0.24-.73-1-8.24,1.7-7,0-.73,2.91-4.36,1.45-1.21a56.35,56.35,0,0,0,5.82-9.94l-2.91,4.36c2.18-4.36,5.57-13.33,5.82-15,0-.24-0.48-2.42,0-2.91-5.09-1.94-1.45-4.85.73-6.54a0.82,0.82,0,0,1-1-.48c-1-1,1.94-1.7,2.67-1.94,3.39-1.45,7.75-.73,10.9,1a17.12,17.12,0,0,1,6.06,8.24c1,3.15-1.45,6.79-3.64,8.72-1,1-2.67,1.7-3.88,2.67-1.45,1.7-1.21,3.88-2.42,5.57-0.73,1.21-2.18,1.7-2.91,2.91-1,.73-1,1.45-0.24,2.18a8.68,8.68,0,0,0-2.42,1.7c-2.42,3.88-3.88,6.06-6.79,8.24a23.38,23.38,0,0,0,6.79-6.3,17,17,0,0,1,7-5.33c-2.42,2.67-2.91,5.82-5.82,7.75-2.91,1.7-.24-1.7-3.39,1.21,0,0,1.45-.24.73,0.24-2.18,1.94-4.36,5.09-7.27,6.3-1.45.48-2.42,1.45-4.12,0.73-1.7-1-1-1.94-1.45-2.67A21.31,21.31,0,0,1,272.34,186.43Zm1.94-7a0.24,0.24,0,0,1,.24.24,0.48,0.48,0,0,0,.24-0.48A0.48,0.48,0,0,1,274.28,179.4Zm3.88-6.3a6,6,0,0,1-1,1.45Z" fill="#fff"/>
  <path d="M265.32,230.54c-3.39,5.82-8,11.15-12.6,16.24-7,7.51-17.21,19.87-28.59,20.6a14.78,14.78,0,0,1-13.81-7c-5.09-9.21.24-20.84,3.39-29.32-6.3,7.51-12.36,15-18.42,22.78-1.7,2.18-20.11,20.84-22.54,17.69,0-.24,2.18-1.21,1.94-1.45-2.42,1.45-5.09,2.67-7.75,2.67a1.81,1.81,0,0,0,1.21.24c0.48,1.7-6.54-1-7.27-1.45-2.67-2.42-3.88-6.3-4.6-9.69-1.21-7.75,0-15.51,1.94-23,1.94-7.75,3.88-15.27,7.27-22.78,1.7-3.88,4.61-5.82,6.3-9.21,2.67-6.06,6.06-13.81,11.39-18.17,4.36-3.88,12.12-3.15,16.48.24s1.94,5.09,0,8.48a4.12,4.12,0,0,1,1.45-1.45c0.49,0-5.33,11.87-6.54,11.63a30.74,30.74,0,0,1,1.45-3.88c-3.15,5.57-6.06,11.39-8.72,17.2a1.75,1.75,0,0,1,1.45-1c-0.48-.24-9.21,22.29-9.94,24.23-1,3.63-5.33,14.3,1.21,12.12,7-1.94,13.81-11.63,18.17-16.72,5.82-6.54,10.66-13.57,15.75-20.84,5.33-8,11.63-21.32,24-17.93,10.9,3.15,2.67,14.78-.73,21.57,0.49-.48,1-1.21,1.21-1,1.45,1.7-3.39,10.9-4.12,13.33-1.45,4.6-3.39,9.93-3.64,15-0.24,5.82,1.45,4.12,5.33,1.21,8.24-6.54,15-14.78,22.05-22.29,0.49-.48,11.63-13.33,12.36-8.72C270.65,222.78,266.77,228.11,265.32,230.54Zm-83.12,2.18c-2.67,6.54-7.75,16.24-6.3,23.26C175.42,253.8,178.81,242.17,182.2,232.72Zm32.47-2.67a2.36,2.36,0,0,0-1,2.18A8.61,8.61,0,0,1,214.67,230.05Zm25-20.6c-2.42,6.06-9.69,13.81-7.75,19.87a0.89,0.89,0,0,1-.24.73,1.28,1.28,0,0,0,.48-0.73c0.73-1.21,1-3.15,1.45-4.6C235.27,219.63,237.69,214.78,239.63,209.45Z" fill="#fff"/>
  <path d="M140.52,217c1.7,8.48,0,18.17-2.67,26.41C128.65,272,102.24,292.09,75.58,304a168.31,168.31,0,0,1-35.86,11.87c-7.51,1.45-14.78,1.94-22.05.49-3.88-.49-14.3-1.45-16.72-4.85-2.42-2.91.24-2.67,3.15-3.15,7-1.21,13.81-2.18,20.35-4.36a188.73,188.73,0,0,0,43.86-19.87c12.84-7.75,25-16.72,34.9-27.87,4.6-5.33,9-11.15,11.87-17.45,1.45-3.15,4.36-12.84,2.91-14.3-0.48-.24-1.45-4.85-1.45-7.51,0.24,1.7,1.21,3.39,1.45,4.6a24.12,24.12,0,0,0-1.94-8v0.73a28.87,28.87,0,0,0-3.88-4.6,13.6,13.6,0,0,0-7.75-3.64c-6.06-.73-9.94,2.42-15.27,3.88-6.3,1.7-24-9.69-17-15.27,3.15-2.42,8.24-3.63,11.87-5.82a138.1,138.1,0,0,0,17.21-14.3A143.54,143.54,0,0,0,117,156.14c1.21-1.7,9-15,10.18-14.78,0,0-1.94,4.36-1.94,4.6a128.63,128.63,0,0,0,7.27-15.51v-0.24l0.24-.24,0.24-.73c3.15-7.27,6.3-22.05-.24-23.75-4.36-1.21-9.45,5.09-12.12,7.75-13.81,13.57-25.69,29.81-36.11,46-6.06,9.21-11.63,18.42-17.21,27.87-3.39,5.57-8,10.18-10.42,16-7.51,17.69-15.51,34.65-21.32,53.07a232.47,232.47,0,0,0-6.54,28.59l-0.73-1.45c-6.79,7.27-16.72,2.18-19.87-5.57-3.63-8-1.7-19.63-1.45-28.11,0.48-10.18,1-20.6,3.39-30.53a93.49,93.49,0,0,1,3.88-11.63c0.24-1,1-8.48,1.7-8.72a0.89,0.89,0,0,0,.24.73c0-.48.24-1,0.24-1.7-1,2.42-.24-3.88,0-4.12a72.45,72.45,0,0,1,2.18-7.75A98.8,98.8,0,0,0,22,171.89c0.48-1.7,6.54-23.26,9-22.78,0.48,0.24-.48,1.7-0.24,1.94l1.7-5.33c-0.73-.24,10.9-25.93,11.87-28.11,4.36-8,7.51-16,14.54-21.81C63.22,92.41,68.55,82,76.55,84.9c3.63,1.45,7.27,6.79,7.51,10.66,0,2.91-1.45,3.39-2.91,5.09a1.85,1.85,0,0,1,1.21-.48c0.48,0.24-5.82,8.48-6.54,8.24-0.24,0,.73-1.7,1.45-2.91C68.55,117.37,61.77,130.46,56,144c2.42-5.09,12.36-25.69,14.05-26.41-1.21.73-12.6,25.44-13.81,27.62A252.62,252.62,0,0,0,45.53,174.8c-2.67,9.69-4.6,19.39-7.27,29.08-2.18,7.75-5.33,16.48-6.54,24.23a5,5,0,0,1,1-1.45c0.24-.24-1,11.39-1,12.12l-1,9.21c10.42-35.38,27.87-68.82,48.46-99.11-7.75,11.15-15,22.78-21.81,34.65-3.15,6.06-6.3,12.12-9.21,18.17-2.18,4.36-6.79,11.39-7.51,15.75,0.48-4.12,3.88-9,5.57-12.6a135.74,135.74,0,0,1,6.54-13.33c4.12-8,8.48-16,13.09-23.75a458.49,458.49,0,0,1,33.44-47A254.33,254.33,0,0,1,118,99.92c5.09-4.85,12.12-12.6,19.39-13.81,13.57-2.18,22.05,11.87,23.26,23.51,4.36,34.9-25.93,70.76-56.46,84.09C120.41,192.25,136.89,199.76,140.52,217Zm-120,.73a24.94,24.94,0,0,0,.24-4.12c-1.21,2.42-2.91,5.09-3.63,7.27a54.26,54.26,0,0,0-1.7,17.69,30.77,30.77,0,0,1,1.94-12.36C18.64,223.51,20.09,220.84,20.57,217.69Zm31.5-64.46a3.45,3.45,0,0,0-.48,1.45ZM56,144a1.84,1.84,0,0,0-.48,1Zm63.73,95.72-1.21,2.91a97.54,97.54,0,0,1-14.78,22.05l-8.24,8.72c2.91-2.18,6.54-3.63,9.94-6.54,3.64-3.15,7.75-8,9.45-12.6C116.53,250.41,119.2,243.86,119.68,239.74ZM96.42,125.12l1.7-1.7Zm39.26,39.5c2.18-2.42,4.12-4.85,6.3-7,6.06-6.79,9-13.33,11.39-21.32-2.42,5.33-6.06,10.66-8.48,14.78A102.82,102.82,0,0,1,135.68,164.62Z" fill="#fff"/>
  <path d="M354.88,87.79l-5.3,7-9.24,12c-2.39,3.08-5.3,6-7.7,9.06-2.57,3.42-4.79,7-7.7,10.26-3.08,3.25-6.67,6.67-10.78,8.89a11.12,11.12,0,0,1-8.72.85,22.89,22.89,0,0,1-11.29-7.35,6.3,6.3,0,0,1-1.88-3.25,21.08,21.08,0,0,1-.34-3.42c-0.17-2.05.51-3.59,0.85-5.64,0.34-2.22,1.37-4.28,1.71-6.5,0.34-2.39,1-4.62,1.37-6.84,0.17-2.05-.17-4.28.34-6.33,0.34-1.37,1.37-2.74,1.88-4.28a16.17,16.17,0,0,0-1.54,2.91c-0.51,1.37-.85,2.74-1.37,3.93-0.51,1.37-.68,2.57-1.2,3.93a14.73,14.73,0,0,0-1.54,4.62c-0.17,1.54,0,3.08-.17,4.62a18.58,18.58,0,0,0-.68,4.28c0,0.51.34,1.54,0.34,1.88,0,0.68-.34,1.54-0.34,2.39,0,1.54.34,3.08,0.51,4.79-2.74-4.79-2.22-9.58-1.37-14.71s1.54-10.09,2.74-15.05a68.69,68.69,0,0,1,13.34-28c5.3-7,12.31-12.31,21.55-10.6,3.42,0.68,7.18,2.22,9.41,5.13,2.39,3.25,2.22,7.35,1,11.12-2.22,6.67-7.87,12-13.17,16.42a55.68,55.68,0,0,1-7.18,5.3A31.2,31.2,0,0,1,313,97.54l-2.91,1c-1.2.34-1.37,0.17-1.88,1.2-0.86,1.71-.34,3.42-0.68,5.13-0.34,2.22-.85,4.28-1.37,6.5-0.85,4.11-2.22,9.41-1.2,13.68,1.88,8.72,16.25-4.79,18.81-7.18,1.71-1.54,3.25-3.25,4.79-4.79,0.85-1,1.88-1.88,2.57-2.91a5.29,5.29,0,0,0,.34-1.2,93.48,93.48,0,0,1,7.35-9.41c3.08-3.59,5.82-7.35,8.72-11.29,1.54-2.22,5.13-8.55,7.87-3.93v0.17c0.17,0.17.17,0.17,0.17,0C356.25,85.91,355.74,86.77,354.88,87.79Zm-44,4.1a49.44,49.44,0,0,0,14.37-11.46l2.91-3.76c0.51-.86,1.37-1.37,1.71-2.39,0.17-.86-0.17-1.54,0-2.57l0.68-3.59c0.17-1.71-.51-6.16-3.08-5.64-1.2.34-2.39,1.88-3.08,2.74l-3.08,4.1c-3.59,5.3-5.47,11.12-8,16.59a1.33,1.33,0,0,1-.17.51C312.29,88.13,311.78,90,310.92,91.9Z" fill="#fff"/>
  <path d="M324.44,14.25a39.91,39.91,0,0,0-3.93,3.25C319,19,319.65,19,318.63,20.75c-2.39,3.93-6,7.53-8.89,11.12-3.25,4.1-5.82,8.21-8.72,12.31-2.57,3.76-6.16,7.35-8,11.46a65.45,65.45,0,0,1-5,9.75c-4.45,6.84-8.38,14-12.49,21.21-3.08,5.3-4.79,10.95-7.87,16.59-4.79,8.72-9.06,18-13.34,27a36.38,36.38,0,0,0-2.91,7.35c-0.68,2.74-1.37,4.1-4.62,4.45-6,.51-11.63-4.45-12.31-10.26-1-7.35-.17-15.56,0-23.09,0.17-3.93.51-8.55,1.88-12.49,0.51-1.71,1-2.39,1.2-4.28,0.17-.51.17-2.74,0.34-2.39a21.52,21.52,0,0,1,.17-5.64c0.51-2.74,1.37-5.47,1.71-8.21,0-1,1.37-15.39,3.59-15.05,0.34,0-.17,1,0.17,1a22.12,22.12,0,0,1,.68-3.25c-0.17,0-.17.17-0.34,0.17,0.17,0,2.22-9.41,2.57-10.26l-6.5,8.38c-2.74,3.76-6.33,7.18-8.72,11.12-5.13,8.55-10.78,16.59-16.25,25-5.3,7.7-10.09,15.74-14.71,23.77-2.57,4.45-6,8.89-7.53,13.85a14.26,14.26,0,0,1-.68,2.57c-2.22,5.13-10.26,6.16-14.71,3.59-4.28-2.57-3.25-6.84-1.88-10.78s2.22-7,3.25-10.95c2.05-8.55,5.82-16.59,8-25,2.22-8.21,4.45-16.42,6.5-24.63a224.51,224.51,0,0,0,7-41.56c-0.86,11.46-3.93,23.43-6.16,34.55a396.51,396.51,0,0,1-11.46,41.73c1.71-6.84,2.74-13.85,4.62-20.7,0.86-2.91,2.05-5.47,2.91-8.38,0.17-.17,1-5.64,1.2-5.82a0.63,0.63,0,0,0,.17.51c0-.34.17-0.51,0.17-0.85-0.51,1-.34-2.91-0.17-3.08A43.54,43.54,0,0,1,192.4,57a50.26,50.26,0,0,0,1.71-9.92c0-1.88,1.54-16.76,3.08-16.76,0.34,0,0,1.2.17,1.37A40.16,40.16,0,0,0,198,26.9a1.45,1.45,0,0,1-.51.85c0.17-.51.68-8.72,0.68-9.58-7.87,5.3-5.64-7-3.76-10.6,1.37-3.08,4.28-6.67,8-6.84,0.85,0,1,.68,1.88.68,0.86,0.17,1-.34,1.71-0.17C209,1.76,210.7,4.5,211.9,7.06a26.32,26.32,0,0,1,2.22,10.26c0,2.22-.85,3.42-0.85,5a0.91,0.91,0,0,1,.34-0.51c0.68-.17.34,7-0.51,7a16.52,16.52,0,0,1,0-2.91c-1,10.09-3.08,20.35-5,30.27,0.51-1.88,3.93-20,4.11-20,0,0-5.64,31.13-6.16,34-2.22,11.46-4.11,22.92-7.18,34.21l9.06-13c3.59-5,5.82-10.09,9.75-15.05,3.93-4.62,7.35-9.75,11.12-14.54,2.05-2.91,3.08-5.81,5.13-8.55,6.33-9.06,14.2-18,20.7-26.17,0.68-.85.51-1.88,2.39-2.39,2.05-.51,4.62,1,6,2.39a8.81,8.81,0,0,1,3.25,6.16c0.17,2.57-1.2,2.74-1.88,4.28l0.68-.51c0.51,0.17-1.37,5.64-1.88,5.64-0.34,0-.34-0.68-0.17-1.37a169,169,0,0,0-6,23.95c0.34-.68,1.71-7.18,2.91-11.8-1.88,9.24-5,27.88-5.3,29.76-0.51,6-1,12-2.05,18-0.68,4.1-2.05,8.72-2.39,12.49a1.33,1.33,0,0,1,.51-0.68c0.51-.34.17,7.53,0.17,7.87,3.08-7.18,6.16-14.54,9.75-21.55,2.57-5.13,5.81-9.92,8.21-15.22,5.64-12.49,12.49-24.12,19.84-35.75S303.4,24.85,312,14.08c3.25-4.1,7.18-7.7,10.6-11.8,0.86-1,.17-1.88,2.22-2.22,2.74-.51,5.64,2.91,6.5,5.13,0,0-.17-0.17,0,0.17C332.65,9.8,327.18,12,324.44,14.25ZM255,75.48c0.34-2.05.86-3.93,1.37-6.33,0,0.17-.17.34-0.17,0.51a9.34,9.34,0,0,1-.86,1.88A11.11,11.11,0,0,0,255,75.48ZM260.65,51c0.34-1.71.68-2.57,0.85-2.57A12.24,12.24,0,0,0,260.65,51Z" fill="#fff"/>
</svg>
