<?xml version="1.0" encoding="utf-8"?>
<!-- Generator: Adobe Illustrator 19.0.0, SVG Export Plug-In . SVG Version: 6.00 Build 0)  -->
<svg version="1.1" xmlns="http://www.w3.org/2000/svg" xmlns:xlink="http://www.w3.org/1999/xlink" x="0px" y="0px"
	 viewBox="-63.4 107.8 584.5 583.6" style="enable-background:new -63.4 107.8 584.5 583.6;" xml:space="preserve">
<style type="text/css">
	.st0{fill:#231F20;}
	.st1{fill:none;stroke:#AA7FAA;stroke-width:30;stroke-miterlimit:10;}
</style>
<g id="text">
	<title>craft2-2</title>
	<path class="st0" d="M173.3,652.5c2.5,0.2,4.9,0.5,6.9,1.9c1.4,0.9,4.2,3.6,2.2,5.2c-1.4,1.1-4.2-0.8-5.9-0.9
		c-2.8-0.3-5.5-0.4-8.3-0.3c-5.6-0.3-10.9-0.6-16.6,0.2c-5.5,0.8-10.9,1.9-16.4,3l-8,1.7c-2.5,0.6-5.9,0.9-8.1,2.3
		c-1.7,0.9-2.4,2-4.5,1.6c-1.9-0.5-3.3-2.2-3.1-4.2c0.3-2.3,2.2-3.1,4.1-3.9c2.5-1.3,5-2.7,7.4-4.1c9.7-5,20.3-8.4,31.1-10
		c11.3-1.9,22.2-4.7,33.8-5.6s23.1-1.9,34.9-2.4c2.6,0,5.2-0.4,7.7-1.1c2.4-0.6,4.1,1.6,4.9,3.8c0.5,1.6,1.4,4.8,0.5,6.3
		c-1.3,2.5-4.4,0.8-6.3,0.3c-6.1-1.6-13.3-0.8-19.4-0.5c-6.1,0.2-12,0.2-18,0.8c-6.3,0.8-12.5,1.3-18.8,2.3l-9.4,1.7
		c-2,0.5-6.7,0.5-7.7,2.7C161.7,653.5,167.5,652.5,173.3,652.5z"/>
	<path class="st0" d="M471.3,478.7c0.2,3.4-3.9,6.1-6.8,6.8c-3.1,1-6.8-1-9.7-0.5c-1.7,0.5-1.2,1.2-2.7,1.7c-2.2,0.7-4.9,0.5-7,0.5
		c-3.1,0-9.9-1.7-12.6,0c-0.6,0.4-1.1,0.9-1.5,1.5l0.7-1.5c-1.5,0.2-3.9,6.8-5.6,11.1l2.7-5.3l-3.4,9.2c-2.4,5.1-4.6,10.4-6.8,15.5
		c-4.4,10.2-8.2,20.1-12.1,30.5c-6.5,18.9-13.1,38.8-17.5,58.4c-0.7,3.4-4.9,17.5-0.2,19.4c0.7,0.5,5.8-2.4,5.6-2.2
		c1.2-1.2,2.7-2.4,3.9-3.9c-1,0.7-3.6,2.9-3.6,2.4c-0.2-1.5,5.8-6.3,6.8-7.5c2.4-2.4,4.6-5.1,6.8-7.5l14-17.2
		c8.7-10.9,17-22,25.7-33c1.9-2.4,6.3-10.9,9.5-11.6c3.9-0.7,4.6,3.1,3.4,6.3c-2.2,6.5-8.7,11.9-12.1,17.7
		c-6.1,10.2-13.3,19.6-20.4,29.3c-7.8,10.4-15.5,20.8-24,30.8c-3.9,4.9-9,11.6-15,14.5c-4.6,2.2-10.7-0.5-14.5-3.4
		c-4.1-2.8-6.9-7.2-7.8-12.1c-0.2-1.5-1.7-9.2-0.2-10.9v3.6l0.5-4.8c-0.5,1-0.5-2.2-0.5-2.7c0.1-2.1,0.4-4.1,1-6.1
		c0.6-3.8,1.4-7.6,2.4-11.4c1.7-7.5,3.6-15,5.1-22.8c1.2-7.8,3.9-15,6.3-22.3c0.5-1.2,5.3-16,6.5-16c0.2,0-0.5,2.9-0.5,3.2
		c1-3.6,2.4-7.3,3.6-10.9c-0.5,1.2-1.2,2.4-1.2,1.9c0-2.9,3.1-8,4.1-10.7l2.9-8.5c2.5-7.7,5.4-15.3,8.7-22.8
		c-6.8,0.5-13.3,0-19.6,1.2c-9.2,1.7-20.8,0.7-30-0.5c-1.2-0.2-7-0.5-5.6-3.1c0.5-0.7,5.8-1.9,6.8-2.2c4.6-1.7,9.5-1.7,14.3-1.9
		c9.5-1,18.7-0.5,28.1-1.7c2.4-0.2,6.5,0.5,8.7-0.5c2.2-0.7,2.2-2.4,3.1-4.6c1.7-4.4,3.6-8.7,5.6-12.8c2.2-4.6,4.1-9.5,7-13.6
		c1.9-2.7,3.9-3.4,5.3-6.3c2.9-6.5,6.3-13.1,10.9-18.7c4.9-6.3,13.3-7.3,20.8-5.8c3.6,0.7,8.7,2.9,7,7.8c-0.7,1.9-3.1,3.1-4.6,4.6
		c0,0.2,2.2-2.2,2.2-1.2c-0.2,1.7-9.2,14-9.9,13.8c-0.2,0,3.4-6.1,3.6-6.5c-9.2,13.6-17,28.4-24.2,43.1c0.7,0,1.5-1,2.4-2.7
		c-0.5,0.8-0.9,1.7-1.2,2.7c9.5-0.5,19.1-0.5,28.8-1c1.9,0,5.6-2.7,5.8,0.7L471.3,478.7L471.3,478.7z M384.5,627.7
		c0.2,0.2,0.4,0.4,0.7,0.5L384.5,627.7z M456.7,431.9c-19.4,27.4-31.5,59.9-45.1,90.1c-8,17.7-14.7,36-20.1,54.8
		c-2.4,8.5-4.4,17-6.1,25.7l1.2-4.6c2.8-11.4,6.4-22.7,10.7-33.7c8.7-24,17-48.7,27.9-71.7C434.9,471.9,443.6,450.6,456.7,431.9
		L456.7,431.9z M416.5,520.4c-2.2,4.9-3.9,9.7-5.8,14.3c1.9-4.4,3.9-8.7,5.6-13.3C416.2,521,416.3,520.7,416.5,520.4z M440.5,470.2
		l-2.4,5.3C439,473.8,439.8,472,440.5,470.2L440.5,470.2z M447,457.4l-5.8,11.1C443.6,463,445.8,457.6,447,457.4z"/>
	<path class="st0" d="M377,567.9c-6.5,11.2-19.9,21.1-32.2,24.5c-1.5,0.5-6.8,0.2-8,1.5c-1.5,1.2-1.7,9.2-1.9,11.1
		c-0.7,3.4-1.5,6.8-2.4,10.2c-3.9,13.6-7,29.3-14.8,41.2c-6.8,10.4-18.7,17.5-30,8.7c-9.9-7.5-9.9-24-9.2-35.1
		c1.5-27.1,12.1-51.9,19.4-77.3c6.8-24,17.9-46.5,29.6-68.8c6.3-12.7,13.4-24.9,21.3-36.6c5.8-8.2,15.3-24.2,26.4-25.4
		c22-2.4,15,30.8,10.4,41.9c-9,21.1-21.8,41.4-35.9,59.6c-8.5,10.9-17.5,21.6-26.7,32.2c-2.9,3.2-5.8,6.5-9,9.7
		c-2.4,2.7-2.9,3.6-4.4,7.3c-1.2,3.6-2.4,7-3.4,10.4c-4.6,13.3-8.7,26.7-12.1,40.5c-2.2,9.5-5.6,21.3-3.4,31l-1-0.7l0.2,0.2
		c9.2,17.2,24.5-16.5,27.4-23.8c4.4-10.1,7.7-20.7,9.9-31.5c0.5-2.4,1.7-6.1,1.2-8.5c-0.5-2.9-2.9-5.8-3.4-8.7
		c-1.2-5.7-1.2-11.5,0-17.2c1.5-5.6,6.1-10.2,10.2-3.4c1.5,2.9,1.9,6.3,2.4,9.5c0.2,2.4-0.7,7.5,0.2,9.7c1.5,3.4,7.3,1.5,10.2,0
		c11.6-4.6,20.8-15,28.8-24.2c1.2-1.5,11.4-17.2,13.3-11.2v0.2C392.5,553.3,380.9,561.8,377,567.9z M287.1,645
		c0-8.5,3.6-19.6,4.6-24.2c1-5.7,2.4-11.2,4.1-16.7c-1.2,3.1-2.2,6.5-3.1,9.9C289.5,623.2,285.9,634.5,287.1,645L287.1,645z
		 M319.6,545.8c15.3-17.2,29.3-35.6,41-55.3c3.4-5.6,26.7-51.9,17.5-54.5c-3.1-1-6.1,3.9-7.8,6.1c-6.5,8.5-11.4,18.2-16.5,27.6
		c-10.2,19.1-18.9,39.3-27.4,59.4c0.2-0.2,0,0.7-1.5,3.9v-0.2c0,0.2-0.2,0.5-0.2,0.7L319.6,545.8z M326.4,529.1l-0.7,1.9
		C325.9,530.3,326.4,529.4,326.4,529.1L326.4,529.1z"/>
	<path class="st0" d="M301.2,561.8c-3.1,7-6.7,13.8-10.7,20.4c-4.4,7.2-9.2,14.1-14.5,20.6c-4.4,5.6-10.4,12.6-17.7,13.8
		c-8.2,1.5-14.8-5.3-17.5-12.6c-5.8-14.3-1.7-29.3,2.7-43.1c0-1.3,0.1-2.6,0.2-3.9c-2.4,3.6-5.8,8-8,11.4c-2.9,4.6-5.1,9.2-8.2,13.6
		c-1.5,2.2-21.3,26.2-24,22c0,0,2.9-1.2,2.7-1.7c-3,1.9-6.7,2.5-10.2,1.5c0.7,0.5,1.2,0.7,1,0.7c-5.6,0.7-9.9-8-11.1-11.9
		c-1.9-6.8-1.4-14.3-0.2-21.1c2.7-14,8.5-29.3,16.7-41.4c2.2-2.9,4.4-6.3,7.5-8.5c1.9-1.7,3.6-1.9,5.8-3.4c3.6-3.1,6.8-5.8,12.1-5.8
		c11.9,0,16.7,13.6,19.1,22.8c5.8-7.5,16.2-17.5,25.2-6.5c4.9,5.8,1.7,10.2-1,15.5c-4.6,8.7-8,18-10.2,27.6c0.2-0.7,1-4.4,1.9-4.6
		c1.9-0.5-15.5,54.3,9.5,23.5c7.5-9.5,14-19.4,20.6-29.3c2.9-4.6,5.8-9.5,9-14c1.5-1.9,5.8-6.5,6.1-1.2
		C308.4,551.6,303.1,557.2,301.2,561.8z M239.6,543.9c0-1.9-4.9-15.3-3.6-16.2c0.2-0.2,2.4,6.8,2.7,7.3c-0.7-2.9-1.7-11.9-6.1-11.9
		c-8,0-14,14.8-16.7,20.4c-4.9,10.9-9.2,22.5-11.1,34.4c0.7-3.6,14.8-47.5,19.1-47.3c-3.4,0.7-16.2,38-17,41.4
		c-0.5,1.9-4.4,14.5-0.7,15.8c2.4,0.7,8.2-6.8,9.4-8.5c4.6-5.6,9-11.4,13.1-17.5l6.3-9c1-1.7,2.2-3.4,3.4-5.1
		C239.6,545.8,239.6,545.8,239.6,543.9L239.6,543.9z M240.3,542.2v2.4C241.1,543.9,241.1,543.2,240.3,542.2L240.3,542.2z
		 M246.2,553.8l-1.2,1.7c-0.2,0.7-1,4.1-1,4.1L246.2,553.8z"/>
	<path class="st0" d="M199.1,556c-2,4.1-4.3,8.1-7,11.9c-5.6,8.2-11.6,16.5-17.4,24.7c-5.8,8-12.1,16-19.9,22.5
		c-1.4,1-12.6,9.9-13.3,9.7c0.1-0.3,0.2-0.5,0.5-0.7l-1.7,0.7c1.2-0.2-3.4,2.9-4.6,3.4c-3.5,0.6-7-0.2-9.9-2.2
		c-3.1-1.9-4.9-4.8-6.3-8.2c-2.4-5.3-2.7-10.4-1.7-16.2c0.2-1.2,3.6-15.3,5.3-15c0.5,0-0.5,1.9-0.2,2.2l1.7-6.1
		c-0.7-0.2,12.1-27.4,13.3-29.1c-7.3,1.5-16.5,1.2-21.6-5.1c-1.4-1.9-1-3.6-1.4-5.1c-0.7-1.9-1.7-2.9-2.2-4.6
		c-2.4-11.9,11.4-28.3,23-20.4l-0.5-0.7c0.2-1.5,3.1,2.2,3.4,3.4c0,1-1.9,7.8-3.1,7.3c-0.2,0,1.4-4.4,1.4-4.6
		c-1.7,4.6-6.8,9.7-7.3,14.5c-0.5,3.6,1.4,3.6,4.6,4.4c4.6,1.2,11.9,0.5,17.7,2.2c-3.9-1.2-8.5-1.5-11.6-1.9c-0.1,0-0.2-0.1-0.2-0.2
		c3.6,0.5,7.5,0.5,10.7,1.2c7,1.7,11.4,4.4,8.5,11.9c-2.9,7-6.5,14-9.7,21.1c-2.9,6.8-5.3,14-8,21.1c-0.7,2.4-6.1,12.6-4.1,15
		c2.4,2.9,15.8-9.2,19.4-13.1c-0.7,0.7-1.4,0.7-1.9,1.2c-0.5,0,4.9-6.8,5.6-7.8l7-9l13.1-17.1l13.3-18c1.2-1.5,7-9.9,8.5-3.6
		C203,549,200.6,553.1,199.1,556z M124,621.4c-0.2-0.2-0.4-0.4-0.5-0.7l0.2,0.2c-1.2-2.7-2.4-5.3-2.9-6.8l0.7,3.1l-1-5.1V612
		c-0.1-0.2-0.2-0.5-0.2-0.7c0,0.2,0.1,0.4,0.2,0.5v-1.2c-0.2-3.2,0-6.5,0.5-9.7v-0.2c-0.5,2.1-0.7,4.3-0.7,6.5
		c-0.2,3.1,0,6.2,0.7,9.2c1,2.4,2.2,4.7,3.6,6.8c0-0.2,0-0.5-0.2-0.5c1.6,1.5,3.5,2.7,5.6,3.4c-2.4-1-4.5-2.7-6-4.9V621.4L124,621.4
		z M121.1,600.4v0.2c0-0.2,0.2-0.5,0.2-0.7C121.4,600.1,121.1,600.1,121.1,600.4L121.1,600.4z M121.8,595.8c0,0.3-0.1,0.7-0.2,1
		C121.7,596.4,121.8,596.1,121.8,595.8L121.8,595.8z M122.3,595.8c1.7-6.3,4.4-12.4,6.8-18.2l4.6-10.7c1.2-2.2,6.3-14,7.5-14.8
		c-1.7,0.5-5.1,9.2-5.6,9.9c-2.2,4.1-4.1,8.3-5.8,12.6C126.9,581.5,124,588.5,122.3,595.8L122.3,595.8z M122.8,619.5
		c0-0.2-0.1-0.4-0.2-0.5C122.6,619.3,122.8,619.3,122.8,619.5L122.8,619.5z M129.8,539.1c0-0.1,0.1-0.2,0.2-0.2L129.8,539.1z
		 M129.8,539.3c0.5,0.6,1.1,1.2,1.7,1.7c1.4,1,3.1,1.6,4.9,1.7c-2.2-0.2-4.4-0.5-5.6-1.5C130.2,540.7,129.9,540,129.8,539.3
		L129.8,539.3z M156.2,559.9l-5.1,10.9l5.1-10.6L156.2,559.9L156.2,559.9z M156.2,559.7h0.2v-0.2L156.2,559.7z M156.2,559.7h0.2
		v-0.2L156.2,559.7z"/>
	<path class="st0" d="M19.7,585.6v0.2c-1.1,7.1-1.5,14.4-1.2,21.6l0.7,1.5c0.3,1,0.5,2.1,0.5,3.2c1.5,0.7,2.7,4.8,3.9,6.1
		c2.2,2.2,4.8,2.9,7.8,3.1c2.1,0,4.2-0.2,6.3-0.7c14.8-3.4,26.9-14.8,36.6-25.4c9.5-10.2,17.9-21.3,25.2-33.2c1-1.5,2.9-7.3,5.6-7
		c2.9,0.2,1.7,8.7,1.4,10.4c-3.1,24.7-19.9,46.5-38.3,62c-6.3,5.1-14.5,12.1-23,12.6c-7.3,0.5-15-3.6-20.8-7.3
		C13.2,626,3,615.9-1.1,603.5c-3.2-9-1.2-18.7,0-27.9c0.2-0.5-0.5-5.1,0.5-6.3c-0.2,1.5-0.3,3.1-0.2,4.6c0.1-1.9,0.4-3.7,0.7-5.6
		c-0.5,0.5,0-3.4,0-3.6c0.3-2.1,0.7-4.2,1.2-6.3c1-4.6,2.4-9,3.9-13.6c2.9-9.2,6.8-18.2,9.7-27.6c2.8-8.5,6.5-16.7,10.9-24.5
		c1.2-2.2,11.2-22,13.3-21.6c0,0-1.7,3.4-1.4,3.6c2.4-4.1,4.8-8.5,7.5-12.6c-1,1-2.2,2.4-2.2,2.4c1-3.1,4.8-7.3,6.8-9.9
		c1.7-2.9,3.6-5.6,5.6-8.5c4.4-6.4,9.2-12.6,14.3-18.4c7-7.3,17.2-17.9,28.1-18.4c19.6-1.2,31,19.6,31.3,36.1v0.2
		c0,8.7-2.2,18.7-8,25.2c-5.3,6.1-16,13.1-24.2,14c-1.9,0.2-5.3,1-4.9-1.9c0.4-0.7,1-1.3,1.7-1.7h-0.2c1.4-0.5,9.2-18.4,10.9-18.2
		c0,0-2.9,6.5-3.6,8.2c4.2-7.7,7.9-15.6,11.1-23.8c1.7-4.9,5.1-13.3,2.9-18.4c-2.9-6.3-11.6-1.5-15.5,0.7l-3.4,1.9l1.2-0.5
		c-1.1,0.6-2,1.3-2.9,2.2c1.2-1,2.6-1.9,4.1-2.4c3.1-2.2,10.7-6.8,14.5-3.9c2.9,2.4,2.2,6.1,1,9.5c1-4.4,1-9-3.4-9.7
		s-7.8,2.9-11.1,3.9c-11.1,7.3-19.9,19.1-27.1,30c-8.3,12-15.6,24.7-21.9,37.9c-6.8,13.8-11.9,28.1-17.2,42.6
		c-5.1,13.8-10.2,27.9-12.8,42.2v1.2c0,0.2-0.1,0.4-0.2,0.5l0.2-0.2C20,585.3,19.7,585.3,19.7,585.6z M76.9,445.5
		c-13.8,15-25.4,33.2-34.2,51.9c-7.2,15.3-13.4,31.1-18.4,47.3c3.7-10.2,8-20.2,12.8-30c8-16.5,16-32.5,25.4-48
		C66.8,459.2,71.6,452.2,76.9,445.5z M93.6,433.9c-6.1,4.9-10.9,10.9-15.5,17c2.9-3.8,6.1-7.4,9.5-10.9
		C89.3,438.2,91.4,435.8,93.6,433.9L93.6,433.9z M112,442.9c0-1.7,1-3.9,1.4-6.1c-0.2,1.7-0.6,3.4-1.2,5.1
		C112.3,442.2,112.2,442.6,112,442.9L112,442.9z"/>
	<path class="st0" d="M221.9,465.5c-2.1,1.3-4.2,2.5-6.5,3.4c-2.9,1-1.7,1.7-2.2,4.6c-0.9,5.5-3.3,10.3-6,15
		c-3.4,5.6-5.8,10.4-11.3,14.9c-4.1,3.4-8.8,6-13.9,7.5c-6.2,1.7-12.1,0.7-18.5-0.3c-1.9-0.3-5.6-0.5-7.4-1.9
		c-10.9-5-1.7-26.5,1.9-33.7c5.3-10.8,12.8-21.2,23.4-27.2c-2.8-1.6-5.1-3.9-6.8-6.7c-3.8-6.8-1.9-12.1,0.7-18.5
		c2.1-5,7.5-8.5,11.6-11.6s9.9-6.5,14.7-7.9c10.9-2.9,21.7,8.7,18.3,19.3c-1.2,3.9-5.5,10.8-9.2,12.5c-2.1,1-6.5,1.4-6.5-2
		c-0.2-1.4,1.2-2.2,2.1-3.3c2.1-2.2,11-13.2,5.1-15.4c-5.1-1.9-14.7,6.7-18.3,9.8c-2.9,2.7-11.8,11.1-8.7,15.9
		c3.6,5.5,14.5-2,19.5,1.2c3.1,2,3.6,8,0.7,10.1c-2.7,1.9-6.7,0.2-9.8,1.5c-3.1,1.4-6,3.2-8.7,5.1c-1.2,0.8-2.3,1.8-3.1,3.1
		c-0.7,0.9-1,2-1.9,3.1c-2.4,3.4-4.8,6.7-7,10.1c-3.7,5.9-6.5,12.3-8.4,19c-0.9,2.9-1.5,9.2,1.9,10.8c3.9,1.9,11.5-3.1,14.5-5.1
		c10.1-7,17.6-17.5,24.5-27.7c-3.6,2-8.6,1.7-12.5,2.6c-2.7,0.5-4.4,1.7-4.8-2c-0.3-3.1,1.2-4.3,2.9-6.3c0-0.2-0.5-1,0-1.5
		c0.6-0.4,1.3-0.7,2.1-0.9c1.5-0.3,3.1,0.3,4.4,0.2c0.9-0.2,1.4-1.2,2.9-1.5c2.1-0.5,4.6-0.5,6.7-0.9c3.3-0.3,5.3-0.9,8.7-1
		c2.2-0.2,4.8-0.3,7-0.7c1.2-0.2,5.5-2.2,6.5,0.3C231.8,462.1,222.9,464.8,221.9,465.5z M163.6,472.2c2.1-3.3,3.8-6.8,6.2-9.9
		c-1.6,1.5-3.1,3.1-4.4,4.8c-3.1,4.2-5.6,8.8-7.5,13.7c-2.6,6.2-5.8,16.1-3.8,23.4c-0.9-4.8,0.2-11.3,1-14.4
		C157.3,483.6,160.1,477.8,163.6,472.2z"/>
	<path class="st0" d="M475.6,359.8c-5.1,5.3-9.9,11.1-14.8,17c-9.9,12.1-17.7,26.2-27.6,38.8c-7.8,9.7-20.6,27.4-33.4,14.3
		c-10.4-10.2-7.8-29.6-6.5-42.4c-7.2,7.4-15,14.2-23.3,20.4c-4.6,3.1-9.9,6.8-15.8,5.6c-18.9-3.9-16.2-30.3-10.7-43.1
		c3.1-7.5,4.4-15.5,8.7-23.3c4.9-8.7,11.9-18.7,21.3-22.5c11.4-4.6,21.8,8.2,28.4,15.8c5.8-21.3,13.8-41.7,23-61.8
		c0.5-0.7,2.2-7.8,4.1-9.2c-1,0.7-2.2,4.6-2.7,6.5c1.1-2.8,2.4-5.4,3.9-8H430c0.7-1,3.9-8.7,4.6-9.7c2.1-3.5,4.5-6.9,7-10.2
		c4.6-5.3,10.2-10.4,16.7-12.8c9-3.4,22.3-1.4,25.9,8.5c4.8,13.6-4.1,29.6-10.7,40.7c-4.1,6.8-8.5,13.8-13.1,20.4l-6.3,8.2l-2.2,2.4
		c0.3-0.3,0.4-0.8,0.2-1.2l-1.9,2.7l0,0l-0.7,1l-10.4,14c1.2-1.4,3.1-3.9,3.6-3.6c0,0-16.5,21.1-17.9,23c-6.1,7.5-6.8,20.1-8.2,29.6
		c-1,5.3-7.5,39.5,1,39.5c2.2,0,5.1-4.1,6.3-5.6c3.6-3.9,6.9-8,9.9-12.4c6.5-8.7,12.6-17.5,18.9-26.2c6.3-8.5,12.8-17,19.9-24.7
		c1.5-1.2,12.4-14.5,13.8-6.5v0.2C487.2,351.1,479.5,356,475.6,359.8z M397.3,360.1c1-4.4,2.7-8.5,0.2-12.4
		c-2.2-3.1-4.1-7.3-7.3-9.5c-1.2-1-2.9-2.2-4.6-1.7c-0.3,0-0.5,0.1-0.7,0.2l1.2-0.7c-5.1,0.5-9,8.7-11.6,13.8
		c-5.5,10.2-9.8,20.9-13.1,32c-1,3.9-5.8,17.7-0.2,20.1c2.9,1.5,7.8-2.2,10.7-4.9c-3.1,2.7-6.8,4.6-9,4.4c-8-0.5-2.2-16.2,1.5-25.9
		c-3.4,9.5-8.5,25-1.7,25.7c5.6,0.5,14.3-9.5,17.9-12.8c3.9-3.6,7.8-7.3,11.4-11.1c4.1-4.1,4.1-9.2,5.1-15c0-0.4,0.1-0.8,0.2-1.2
		L397.3,360.1L397.3,360.1z M373.6,395.5h0.2c3.6-2.9,7.1-6,10.4-9.2c2.7-2.4,10.2-7.8,10.7-10.9c-5.6,5.8-11.4,11.4-17.5,16.7
		L373.6,395.5z M381.8,339.5c0.2,0,1-1,1.9-1.7C383,338.5,382.3,339.5,381.8,339.5L381.8,339.5z M392,338.3c-0.4-0.4-0.9-0.8-1.5-1
		L392,338.3z M417.9,318.4c-0.5,1.9-2.9,4.6-3.4,6.1c-1,2.9,0.2,6.1-1.7,8.5c0.3,0,0.5-0.2,0.5-0.5c0.7-0.7,2.2-6.3,2.7-7.5
		C417.1,322.9,417.7,320.7,417.9,318.4z M424.7,291.3c-1.3,3.2-2.7,6.2-4.4,9.2c-1.7,3.4-2.4,7-3.6,10.7c1.5-2.6,2.7-5.4,3.6-8.2
		C421.6,299.3,423.5,295.2,424.7,291.3L424.7,291.3z M436.1,305.8l-0.7,1.2c-0.2,1-0.5,1.5-0.2,1.2c-3.6,10.4-7,20.8-10.1,31.3
		c0.3-0.5,0.7-1,1.2-1.4c-1.2,1.7-2.4,3.1-2.7,4.6l1-1l1.7-2.2l12.4-16l-4.9,6.1l-5.3,5.6c10.1-12.5,19.4-25.6,27.9-39.3
		c7.3-11.6,18.9-28.8,17.9-43.4c0-2.2-0.5-5.3-2.7-6.5c-5.6-3.1-11.9,8-14,11.6c-8.7,14.1-14.8,29.6-20.4,45.1v0.2
		c-0.2,0.3-0.4,0.6-0.5,1v0.2c-0.2,0.3-0.3,0.6-0.2,1C436.2,305.3,436.1,305.5,436.1,305.8L436.1,305.8z M435.4,307
		c-0.1,0.4-0.1,0.8-0.2,1.2l1-2.4L435.4,307z M439,332.2c-0.2,0.2-0.4,0.4-0.5,0.7C438.7,332.7,438.9,332.4,439,332.2z M439.2,331.7
		l-0.2,0.5C439.1,332.1,439.2,331.9,439.2,331.7L439.2,331.7z"/>
	<path class="st0" d="M359.5,349.4c-1.5,5.3-4.6,10.2-7.5,15c-7.3,11.6-13.6,24-21.6,35.6c-8.7,12.6-18.2,25.4-29.3,36.4
		c-9.5,9-22.5,16-33.9,5.6c-10.2-9.5-10.2-26.4-9.5-39.3c1-13.6,4.6-26.7,7.8-39.7c0.2-0.5,0-6.3,1.2-8c-0.2,1.2-0.4,2.4-0.5,3.6
		c0.5-1.7,1-3.4,1.7-5.1h-0.7c-0.7-4.9,2.7-12.4,4.1-17c1.7-5.6,3.6-11.4,5.6-17c3.6-10.4,7.5-20.6,10.9-31c3.1-10.4,8-20.4,12.8-30
		c2.2-4.6,4.6-9.2,7.3-13.8c0.7-1.2,6.1-11.6,7.3-11.4l-1.9,4.1l7.8-13.2l-0.2,0.2c1.2-1.9,2.9-5.6,4.1-7l5.6-7.5
		c3.4-4.1,7.5-9.9,13.1-11.6c10.7-3.4,19.4,7.8,20.8,17.2l0.2,0.2v1.2c1.5,14.8-7.3,32.2-13.8,44.8c-3.9,7.8-8,17.2-14,23.5
		c-4.1,4.6-6.3,9.5-9.7,15c-9.1,15-19.2,29.4-30,43.1c-2.7,3.4-4.4,5.6-5.6,9.9c-1.5,4.6-2.7,9.2-3.9,14.1
		c-1.5,4.9-2.7,9.7-3.9,14.5c-0.5,2.2-2.7,9-2.4,9.5c-0.7,3-1.2,6-1.5,9l1.9-7.3c1.2,1.9-0.7,9.2-1,11.4c-0.5,3.8-0.7,7.6-0.7,11.4
		c0,4.6,0,15,6.1,16c8.2,1,17-11.4,21.1-16.5c9.9-11.9,18.2-25.2,26.4-38.3c4.4-6.8,8.5-13.6,12.6-20.6c2.7-4.4,4.9-10.4,8.2-14.1
		C360,336.6,360.5,345.5,359.5,349.4z M270.4,363.2c-1,0-2.2,5.1-2.9,10.7v-0.2c-1.7,8.6-2.7,17.4-3.1,26.2l0.7-7.8v0.7
		c0.1-1.6,0.4-3.3,0.7-4.9c1.5-7.3,1.7-16.5,4.6-23.3c0-0.3,0.1-0.5,0.2-0.7C270.8,363.7,270.8,363,270.4,363.2z M301.1,321.7
		c17.9-28.8,38.3-59.1,49.2-91.6c-4.1,11.6-10.2,22.8-15.8,33.4c-3.4,6.1-6.5,12.1-10.2,18.2c-2.2,3.6-6.5,9.2-8,13.1
		c1.9-6.3,7.8-13.6,11.1-19.4l10.2-18.9c5.8-11.6,14.5-25.9,15-39.5v-0.2c0.5-12.8-10.4,1.7-12.1,4.4c-6.8,10.9-11.6,22.8-16.5,34.4
		C315.2,277.2,308.2,300.5,301.1,321.7L301.1,321.7z M309.1,253.9c-0.2,0.3-0.3,0.6-0.2,1c5.3-9.7,11.6-18.9,16.7-29.1
		c-2.4,4.4-6.8,8.2-9.2,12.8C313.7,243.8,311.3,248.6,309.1,253.9L309.1,253.9z"/>
	<path class="st0" d="M269.4,357.6c-4.1,6.1-8,11.9-12.6,17.7c-4.9,6.5-10.9,17-19.4,18.9c-1.9,0.2-11.1-2.2-10.9-3.6h0.5
		c-1.9-1,0,1.2-2.9-1c-2.2-1.5-3.6-3.6-5.1-5.8c-2.7-3.6-6.1-6.8-7-11.1c-0.2-1.2-0.7-9.9,1.2-9.9c0.5,0,0,1.2,0.2,1.2l0.7-4.4
		c-0.1,0.4-0.4,0.8-0.7,1c-1-0.2,3.6-17.5,4.1-18.9c1.9-5.1,2.9-10.9,7.8-13.8c3.6-2.4,8.2-1.9,12.8,0c1.9,0.7,7.5,3.1,7.5,5.6
		c0,1.4-1.2,1.7-1.9,2.4c0.3-0.2,0.6-0.3,1-0.2c0.7,0.5-2.9,5.6-3.4,5.3c-0.5,0,0.2-1.2,0.5-1.9c-4.7,7.7-8.5,15.9-11.4,24.5
		c1.2-3.1,7.3-16.7,8-16.5c0.7,0.2-16,29.3-7.8,33.4c3.9,1.9,10.4-4.1,13.1-6.3c4.6-3.6,10.9-8.2,14.3-12.4
		c-0.5,0.4-1.1,0.6-1.7,0.5c-1-1.2,11.1-17.2,13.3-18.7c1.7-1.2,5.1-2.2,5.6,1C276.2,349.2,271.8,354.5,269.4,357.6z M228.2,371.5
		l-0.5,1.9l0.5-1.5v-0.2C228.4,371.2,228.4,371.2,228.2,371.5L228.2,371.5z M231.4,311.6c-0.2-0.7-1-8.2,1.7-7
		c0-0.7,2.9-4.4,1.5-1.2c2.3-3.1,4.2-6.4,5.8-9.9l-2.9,4.4c2.2-4.4,5.6-13.3,5.8-15c0-0.2-0.5-2.4,0-2.9c-5.1-1.9-1.5-4.9,0.7-6.5
		c-0.4,0.1-0.8-0.1-1-0.5c-1-1,1.9-1.7,2.7-1.9c3.4-1.5,7.8-0.7,10.9,1c2.8,2.1,4.9,4.9,6.1,8.2c1,3.1-1.5,6.8-3.6,8.7
		c-1,1-2.7,1.7-3.9,2.7c-1.5,1.7-1.2,3.9-2.4,5.6c-0.7,1.2-2.2,1.7-2.9,2.9c-1,0.7-1,1.4-0.2,2.2c-0.9,0.4-1.7,1-2.4,1.7
		c-2.4,3.9-3.9,6.1-6.8,8.2c2.7-1.6,5-3.8,6.8-6.3c1.8-2.4,4.2-4.2,7-5.3c-2.4,2.7-2.9,5.8-5.8,7.8c-2.9,1.7-0.2-1.7-3.4,1.2
		c0,0,1.5-0.2,0.7,0.2c-2.2,1.9-4.4,5.1-7.3,6.3c-1.5,0.5-2.4,1.5-4.1,0.7c-1.7-1-1-1.9-1.5-2.7
		C232.2,313.3,231.8,312.5,231.4,311.6L231.4,311.6z M233.3,304.6c0.1,0,0.2,0.1,0.2,0.2c0.2-0.1,0.3-0.3,0.2-0.5
		C233.7,304.5,233.5,304.6,233.3,304.6L233.3,304.6z M237.2,298.3c-0.3,0.5-0.6,1-1,1.5L237.2,298.3z"/>
	<path class="st0" d="M224.3,355.7c-3.4,5.8-8,11.1-12.6,16.2c-7,7.5-17.2,19.9-28.6,20.6c-5.6,0.5-10.9-2.2-13.8-7
		c-5.1-9.2,0.2-20.8,3.4-29.3c-6.3,7.5-12.4,15-18.4,22.8c-1.7,2.2-20.1,20.8-22.5,17.7c0-0.2,2.2-1.2,1.9-1.5
		c-2.4,1.5-5.1,2.7-7.8,2.7c0.4,0.2,0.8,0.3,1.2,0.2c0.5,1.7-6.5-1-7.3-1.5c-2.7-2.4-3.9-6.3-4.6-9.7c-1.2-7.8,0-15.5,1.9-23
		c1.9-7.8,3.9-15.3,7.3-22.8c1.7-3.9,4.6-5.8,6.3-9.2c2.7-6.1,6.1-13.8,11.4-18.2c4.4-3.9,12.1-3.1,16.5,0.2c4.4,3.4,1.9,5.1,0,8.5
		c0.4-0.6,0.9-1.1,1.4-1.5c0.5,0-5.3,11.9-6.5,11.6c0.4-1.3,0.9-2.6,1.4-3.9c-3.1,5.6-6.1,11.4-8.7,17.2c0.3-0.6,0.8-1,1.4-1
		c-0.5-0.2-9.2,22.3-9.9,24.2c-1,3.6-5.3,14.3,1.2,12.1c7-1.9,13.8-11.6,18.2-16.7c5.8-6.5,10.7-13.6,15.8-20.8
		c5.3-8,11.6-21.3,24-17.9c10.9,3.1,2.7,14.8-0.7,21.6c0.5-0.5,1-1.2,1.2-1c1.4,1.7-3.4,10.9-4.1,13.3c-1.4,4.6-3.4,9.9-3.6,15
		c-0.2,5.8,1.4,4.1,5.3,1.2c8.2-6.5,15-14.8,22-22.3c0.5-0.5,11.6-13.3,12.4-8.7C229.6,348,225.8,353.3,224.3,355.7z M141.2,357.9
		c-2.7,6.5-7.8,16.2-6.3,23.3C134.4,379,137.8,367.3,141.2,357.9L141.2,357.9z M173.7,355.2c-0.7,0.5-1.1,1.3-1,2.2
		C172.9,356.6,173.2,355.9,173.7,355.2L173.7,355.2z M198.7,334.6c-2.4,6.1-9.7,13.8-7.8,19.9c0,0.3-0.1,0.5-0.2,0.7
		c0.2-0.2,0.4-0.4,0.5-0.7c0.7-1.2,1-3.1,1.4-4.6C194.3,344.8,196.7,340,198.7,334.6L198.7,334.6z"/>
	<path class="st0" d="M99.5,342.2c1.7,8.5,0,18.2-2.7,26.4c-9.2,28.6-35.6,48.7-62.3,60.6c-11.5,5.3-23.5,9.3-35.9,11.9
		c-7.5,1.5-14.8,1.9-22,0.5c-3.9-0.5-14.3-1.5-16.7-4.9c-2.4-2.9,0.2-2.7,3.2-3.1c7-1.2,13.8-2.2,20.4-4.4
		c15.4-4.7,30.1-11.4,43.9-19.9c12.8-7.8,25-16.7,34.9-27.9c4.6-5.3,9-11.1,11.9-17.5c1.4-3.1,4.4-12.8,2.9-14.3
		c-0.5-0.2-1.4-4.9-1.4-7.5c0.2,1.7,1.2,3.4,1.4,4.6c-0.2-2.8-0.8-5.5-1.9-8v0.7c-1.1-1.7-2.4-3.2-3.9-4.6c-2.1-2-4.8-3.3-7.8-3.6
		c-6.1-0.7-9.9,2.4-15.3,3.9c-6.3,1.7-24-9.7-17-15.3c3.2-2.4,8.2-3.6,11.9-5.8c6.1-4.3,11.9-9.1,17.2-14.3
		c5.8-5.7,11-11.9,15.8-18.4c1.2-1.7,9-15,10.2-14.8c0,0-1.9,4.4-1.9,4.6c2.8-5,5.2-10.2,7.3-15.5v-0.2l0.2-0.2l0.2-0.7
		c3.1-7.3,6.3-22-0.2-23.8c-4.4-1.2-9.4,5.1-12.1,7.8c-13.8,13.6-25.7,29.8-36.1,46c-6.1,9.2-11.6,18.4-17.2,27.9
		c-3.4,5.6-8,10.2-10.4,16C8.4,346,0.4,362.9-5.4,381.4c-2.8,9.4-5,18.9-6.5,28.6l-0.7-1.5c-6.8,7.3-16.7,2.2-19.9-5.6
		c-3.6-8-1.7-19.6-1.4-28.1c0.5-10.2,1-20.6,3.4-30.5c1-4,2.3-7.8,3.9-11.6c0.2-1,1-8.5,1.7-8.7c0,0.3,0.1,0.5,0.2,0.7
		c0-0.5,0.2-1,0.2-1.7c-1,2.4-0.2-3.9,0-4.1c0.6-2.6,1.3-5.2,2.2-7.8c1.5-4.6,2.6-9.3,3.4-14c0.5-1.7,6.5-23.3,9-22.8
		c0.5,0.2-0.5,1.7-0.2,1.9l1.7-5.3c-0.7-0.2,10.9-25.9,11.9-28.1c4.4-8,7.5-16,14.5-21.8c4.4-3.4,9.7-13.8,17.7-10.9
		c3.6,1.5,7.3,6.8,7.5,10.7c0,2.9-1.4,3.4-2.9,5.1c0.3-0.3,0.8-0.5,1.2-0.5c0.5,0.2-5.8,8.5-6.5,8.2c-0.2,0,0.7-1.7,1.4-2.9
		c-8.7,11.9-15.5,25-21.3,38.5c2.4-5.1,12.4-25.7,14.1-26.4c-1.2,0.7-12.6,25.4-13.8,27.6C11.1,280,7.5,289.9,4.5,300
		c-2.7,9.7-4.6,19.4-7.3,29.1c-2.2,7.8-5.3,16.5-6.5,24.2c0.2-0.5,0.6-1,1-1.4c0.2-0.2-1,11.4-1,12.1l-1,9.2
		c10.4-35.4,27.9-68.8,48.5-99.1c-7.8,11.1-15,22.8-21.8,34.6c-3.2,6.1-6.3,12.1-9.2,18.2c-2.2,4.4-6.8,11.4-7.5,15.8
		c0.5-4.1,3.9-9,5.6-12.6c1.9-4.6,4.1-9,6.5-13.3c4.1-8,8.5-16,13.1-23.8c10.1-16.4,21.3-32.1,33.4-47c5.8-7.3,12.1-14.2,18.7-20.9
		c5.1-4.8,12.1-12.6,19.4-13.8c13.6-2.2,22.1,11.9,23.3,23.5c4.4,34.9-25.9,70.8-56.5,84.1C79.4,317.4,95.9,324.9,99.5,342.2z
		 M-20.5,342.9c0.2-1.4,0.3-2.7,0.2-4.1c-1.2,2.4-2.9,5.1-3.6,7.3c-1.5,5.8-2.1,11.7-1.7,17.7c-0.2-4.2,0.5-8.4,1.9-12.4
		C-22.4,348.7-20.9,346-20.5,342.9L-20.5,342.9z M11,278.4c-0.3,0.4-0.4,0.9-0.5,1.4L11,278.4z M15,269.2c-0.3,0.3-0.4,0.6-0.5,1
		L15,269.2z M78.7,364.9l-1.2,2.9c-3.9,8-8.9,15.4-14.8,22l-8.2,8.7c2.9-2.2,6.5-3.6,9.9-6.5c3.6-3.1,7.8-8,9.4-12.6
		C75.5,375.6,78.2,369,78.7,364.9L78.7,364.9z M55.4,250.3l1.7-1.7L55.4,250.3z M94.7,289.8c2.2-2.4,4.1-4.9,6.3-7
		c6.1-6.8,9-13.3,11.4-21.3c-2.4,5.3-6.1,10.7-8.5,14.8C101.2,281,98.1,285.5,94.7,289.8z"/>
	<path class="st0" d="M313.9,213l-5.3,7l-9.2,12c-2.4,3.1-5.3,6-7.7,9.1c-2.6,3.4-4.8,7-7.7,10.3c-3.1,3.3-6.7,6.7-10.8,8.9
		c-2.7,1.5-5.8,1.8-8.7,0.9c-4.4-1.3-8.3-3.8-11.3-7.4c-0.9-0.9-1.6-2-1.9-3.3c-0.2-1.1-0.3-2.3-0.3-3.4c-0.2-2.1,0.5-3.6,0.9-5.6
		c0.3-2.2,1.4-4.3,1.7-6.5c0.3-2.4,1-4.6,1.4-6.8c0.2-2.1-0.2-4.3,0.3-6.3c0.3-1.4,1.4-2.7,1.9-4.3c-0.6,0.9-1.1,1.9-1.5,2.9
		c-0.5,1.4-0.9,2.7-1.4,3.9c-0.5,1.4-0.7,2.6-1.2,3.9c-0.8,1.4-1.3,3-1.5,4.6c-0.2,1.5,0,3.1-0.2,4.6c-0.4,1.4-0.6,2.8-0.7,4.3
		c0,0.5,0.3,1.5,0.3,1.9c0,0.7-0.3,1.5-0.3,2.4c0,1.5,0.3,3.1,0.5,4.8c-2.7-4.8-2.2-9.6-1.4-14.7c0.9-5.1,1.5-10.1,2.7-15.1
		c2.3-10.2,6.8-19.8,13.3-28c5.3-7,12.3-12.3,21.5-10.6c3.4,0.7,7.2,2.2,9.4,5.1c2.4,3.3,2.2,7.3,1,11.1c-2.2,6.7-7.9,12-13.2,16.4
		c-2.2,2-4.6,3.7-7.2,5.3c-1.7,0.9-3.5,1.7-5.4,2.3l-2.9,1c-1.2,0.3-1.4,0.2-1.9,1.2c-0.9,1.7-0.3,3.4-0.7,5.1
		c-0.3,2.2-0.9,4.3-1.4,6.5c-0.9,4.1-2.2,9.4-1.2,13.7c1.9,8.7,16.3-4.8,18.8-7.2c1.7-1.5,3.3-3.3,4.8-4.8c0.9-1,1.9-1.9,2.6-2.9
		c0.2-0.4,0.3-0.8,0.3-1.2c2.2-3.3,4.7-6.4,7.4-9.4c3.1-3.6,5.8-7.4,8.7-11.3c1.5-2.2,5.1-8.6,7.9-3.9v0.2c0.2,0.2,0.2,0.2,0.2,0
		C315.3,211.1,314.7,211.9,313.9,213z M269.9,217.1c5.5-2.9,10.3-6.8,14.4-11.5l2.9-3.8c0.5-0.9,1.4-1.4,1.7-2.4
		c0.2-0.9-0.2-1.5,0-2.6l0.7-3.6c0.2-1.7-0.5-6.2-3.1-5.6c-1.2,0.3-2.4,1.9-3.1,2.7l-3.1,4.1c-3.6,5.3-5.5,11.1-8,16.6
		c0,0.2-0.1,0.4-0.2,0.5C271.3,213.3,270.8,215.2,269.9,217.1L269.9,217.1z"/>
	<path class="st0" d="M283.4,139.4c-1.4,1-2.7,2.1-3.9,3.3c-1.5,1.5-0.9,1.5-1.9,3.3c-2.4,3.9-6,7.5-8.9,11.1
		c-3.3,4.1-5.8,8.2-8.7,12.3c-2.6,3.8-6.2,7.4-8,11.5c-1.4,3.4-3.1,6.6-5,9.8c-4.5,6.8-8.4,14-12.5,21.2c-3.1,5.3-4.8,10.9-7.9,16.6
		c-4.8,8.7-9.1,18-13.3,27c-1.2,2.3-2.2,4.8-2.9,7.4c-0.7,2.7-1.4,4.1-4.6,4.4c-6,0.5-11.6-4.4-12.3-10.3c-1-7.4-0.2-15.6,0-23.1
		c0.2-3.9,0.5-8.6,1.9-12.5c0.5-1.7,1-2.4,1.2-4.3c0.2-0.5,0.2-2.7,0.3-2.4c-0.2-1.9-0.1-3.8,0.2-5.6c0.5-2.7,1.4-5.5,1.7-8.2
		c0-1,1.4-15.4,3.6-15.1c0.3,0-0.2,1,0.2,1c0.1-1.1,0.4-2.2,0.7-3.3c-0.2,0-0.2,0.2-0.3,0.2c0.2,0,2.2-9.4,2.6-10.3l-6.5,8.4
		c-2.7,3.8-6.3,7.2-8.7,11.1c-5.1,8.6-10.8,16.6-16.3,25c-5.3,7.7-10.1,15.7-14.7,23.8c-2.6,4.4-6,8.9-7.5,13.9
		c-0.1,0.9-0.4,1.7-0.7,2.6c-2.2,5.1-10.3,6.2-14.7,3.6c-4.3-2.6-3.3-6.8-1.9-10.8s2.2-7,3.3-10.9c2.1-8.6,5.8-16.6,8-25
		c2.2-8.2,4.4-16.4,6.5-24.6c3.6-13.6,6-27.5,7-41.6c-0.9,11.5-3.9,23.4-6.2,34.6c-3.1,14.1-6.9,28-11.5,41.7
		c1.7-6.8,2.7-13.9,4.6-20.7c0.9-2.9,2.1-5.5,2.9-8.4c0.2-0.2,1-5.6,1.2-5.8c0,0.2,0,0.4,0.2,0.5c0-0.3,0.2-0.5,0.2-0.8
		c-0.5,1-0.3-2.9-0.2-3.1c0.2-1.5,0.5-3.1,0.9-4.6c0.9-3.2,1.5-6.6,1.7-9.9c0-1.9,1.5-16.8,3.1-16.8c0.3,0,0,1.2,0.2,1.4
		c0.3-1.6,0.5-3.2,0.6-4.8c-0.1,0.3-0.2,0.6-0.5,0.9c0.2-0.5,0.7-8.7,0.7-9.6c-7.9,5.3-5.6-7-3.8-10.6c1.4-3.1,4.3-6.7,8-6.8
		c0.9,0,1,0.7,1.9,0.7c0.9,0.2,1-0.3,1.7-0.2c3,0.5,4.7,3.3,5.9,5.8c1.4,3.2,2.2,6.7,2.2,10.3c0,2.2-0.9,3.4-0.9,5
		c0.1-0.2,0.2-0.4,0.3-0.5c0.7-0.2,0.3,7-0.5,7c-0.1-1-0.1-1.9,0-2.9c-1,10.1-3.1,20.4-5,30.3c0.5-1.9,3.9-20,4.1-20
		c0,0-5.6,31.1-6.2,34c-2.2,11.5-4.1,22.9-7.2,34.2l9.1-13c3.6-5,5.8-10.1,9.8-15.1c3.9-4.6,7.4-9.8,11.1-14.5
		c2.1-2.9,3.1-5.8,5.1-8.6c6.3-9.1,14.2-18,20.7-26.2c0.7-0.9,0.5-1.9,2.4-2.4c2-0.5,4.6,1,6,2.4c1.9,1.5,3.1,3.7,3.3,6.2
		c0.2,2.6-1.2,2.7-1.9,4.3l0.7-0.5c0.5,0.2-1.4,5.6-1.9,5.6c-0.3,0-0.3-0.7-0.2-1.4c-2.6,7.8-4.6,15.8-6,24
		c0.3-0.7,1.7-7.2,2.9-11.8c-1.9,9.2-5,27.9-5.3,29.8c-0.5,6-1,12-2.1,18c-0.7,4.1-2.1,8.7-2.4,12.5c0.1-0.3,0.3-0.5,0.5-0.7
		c0.5-0.3,0.2,7.5,0.2,7.9c3.1-7.2,6.2-14.5,9.7-21.6c2.6-5.1,5.8-9.9,8.2-15.2c5.6-12.5,12.5-24.1,19.8-35.8
		c7.4-11.6,14.7-23.5,23.3-34.3c3.3-4.1,7.2-7.7,10.6-11.8c0.9-1,0.2-1.9,2.2-2.2c2.7-0.5,5.6,2.9,6.5,5.1c0,0-0.2-0.2,0,0.2
		C291.6,135,286.2,137.2,283.4,139.4z M214,200.7c0.3-2.1,0.9-3.9,1.4-6.3c0,0.2-0.2,0.3-0.2,0.5c-0.2,0.7-0.5,1.3-0.9,1.9
		C214,198,213.9,199.3,214,200.7z M219.6,176.2c0.3-1.7,0.7-2.6,0.9-2.6C220.1,174.4,219.8,175.3,219.6,176.2z"/>
</g>
<g id="mask">
	<path class="st1" d="M521.1,302.9"/>
	<path class="st1" d="M482.8,508.6"/>
	<path class="st1" d="M515.5,475"/>
	<path class="st1" d="M151,116.5c0,0,33.6,46.9-9.8,138.4c-0.4,0.9,67.5-93,74.2-97.8s-19,86.4-13,97.8
		c6.1,11.4,54.4-114.7,87.2-129.7"/>
	<path class="st1" d="M267.2,224.9c0,0,40.1-31.5,22.4-38.9c-17.7-7.4-40,52.4-22,69.6c11,10.5,47.4-58,47.4-58"/>
	<path class="st1" d="M50.6,187.6c-69,88-72.3,189-73.4,210.7c0,1,1.3,1.3,1.6,0.4c13.6-30,99.2-216.3,124.7-181.7
		c32.8,44.6-70.2,112.8-63.6,109.1c56.2-31.2,109.3,73.6-99.8,124.7"/>
	<path class="st1" d="M157.4,307c0,0-48.3,68.5-32.3,87.2s69.5-68.1,69.5-68.1s-26.1,68.2-15,66.2c8-1.4,34.9-34.4,49.3-52.7
		c1.6-2,4.7-0.3,3.9,2.1c-7.9,22.2-17.5,65.7,4.6,52.3c41.7-25,137.9-171.5,121.2-184.7c-24.2-19.2-115.4,200.2-78.9,227.2
		c21.4,15.8,62-61.5,62-61.5"/>
	<path class="st1" d="M402.5,351.3c0,0-15-25.3-23.8-25.1c-8.9,0.2-48.3,73.8-26,83.1c29.6,12.4,143.9-138,126.4-164
		c-34.2-51-107.5,200.3-66.3,176.3c37.5-21.8,73.7-83.3,73.7-83.3"/>
	<path class="st1" d="M210.7,435.1c0,0,11.9-30.4,1-25.7c-54.4,23.5-9.3,36.2-9.3,36.2s-82.2,75.6-34.8,58.5s44.1-35.5,44.1-35.5"/>
	<line class="st1" x1="189.4" y1="471.7" x2="230.6" y2="459.4"/>
	<path class="st1" d="M93.6,490.9c0,0,45.7-69.3,9.9-69.3c-33.6,0-126.5,145.5-79.2,202.9c36.6,44.4,79.2-79.2,79.2-79.2"/>
	<path class="st1" d="M130,511.9c-18.7,38.1,21.1,40.3,21.1,40.3s-47.7,70.9-21.1,72.3c30.1,1.6,72-74.9,72-74.9"/>
	<path class="st1" d="M246.2,543.4c0,0-1.8-24.3-12.9-27c-11.1-2.8-84.9,115.2-31.3,79.4s62.3-71.1,62.3-71.1s-30,90.2-6.8,88.7
		c23.2-1.5,156.2-176,122.7-181.4s-104.5,187.6-84.3,235.3c20.2,47.7,38.5-107.3,38.5-107.3s17,74.2,60.5-32.4
		c41.2-101,61.8-105.9,61.8-105.9s-110,212.9-73.9,223c24.2,6.8,74.7-99.1,74.7-99.1"/>
	<path class="st1" d="M350.7,485.2c11.3-3.4,127.6-2,127.6-2"/>
	<line class="st1" x1="234.2" y1="316.8" x2="256.5" y2="271.9"/>
	<path class="st1" d="M111.3,662.9c11.4-8,109.5-24.9,135-17.9"/>
	<line class="st1" x1="94.7" y1="662.9" x2="194.6" y2="657.3"/>
</g>
</svg>
