<svg id="Layer_1" data-name="Layer 1" xmlns="http://www.w3.org/2000/svg" viewBox="0 0 488.1 331.41">
  <defs>
    <style>
      .cls-1 {
        fill: #fff;
      }
    </style>
  </defs>
  <title>craft4</title>
  <path class="cls-1" d="M144.53,315.47c-1.94-.59-3.74-3.13-4.49-5.07-0.75-2.24-1.36-5.52,1.78-4.93,1.34,0.15,2.09.89,3.44,0.89a26.82,26.82,0,0,0,4.78-.91c5.82-1.21,11.79-2,17.61-3.32,4-.9,13.73-2.72,16.28,1.91,1.5,3-.59,4-3,4.93-0.6.15-6.71,1.81-5.67,2.85s7.76-.91,9.1-1.07c3.58-.46,6.87-0.76,10.3-1.07a334.48,334.48,0,0,1,38.66-1.13,298.86,298.86,0,0,1,38.08,3.65c2.84,0.44,14.18.87,13.3,5.35-0.59,2.69-5.22,2-7.16,2-3.58,0-7.17.16-10.9,0-26.88-1.73-53.9-2.42-80.61,1.67-14.18,2-28.2,5.43-42.08,8.9-2.69.6-6.41,2.1-9.1,0.77-1.94-.89-3.44-3.43-2.55-5.67,1-2.54,6-3.6,8.35-4.5,3.13-1.35,6.41-2.55,9.1-4.65C148.71,314.42,146.18,316.07,144.53,315.47Z"/>
  <g>
    <path class="cls-1" d="M114.5,237.59a41.08,41.08,0,0,1-5.67,3c-2.54.9-1.49,1.5-1.93,4-0.74,4.78-2.82,9-5.2,13.15-3,4.93-5.06,9.12-9.82,13a35.19,35.19,0,0,1-12.08,6.59c-5.37,1.5-10.6.62-16.12-.26-1.64-.3-4.93-0.44-6.42-1.63-9.56-4.31-1.54-23.14,1.58-29.41,4.61-9.42,11.16-18.54,20.4-23.78a17.15,17.15,0,0,1-6-5.81c-3.3-6-1.66-10.59.56-16.12,1.78-4.33,6.55-7.48,10.13-10.17s8.65-5.69,12.82-6.89c9.55-2.56,19,7.57,16,16.83-1,3.44-4.76,9.42-8,10.91-1.79.9-5.67,1.21-5.68-1.78-0.15-1.19,1-1.94,1.79-2.84,1.79-1.94,9.53-11.52,4.45-13.45-4.48-1.63-12.83,5.85-16,8.54-2.53,2.39-10.28,9.73-7.58,13.9,3.15,4.77,12.69-1.82,17,1,2.69,1.78,3.15,7,.62,8.81s-5.82.16-8.51,1.36a48.48,48.48,0,0,0-7.6,4.49,9.19,9.19,0,0,0-2.68,2.69c-0.6.75-.89,1.79-1.64,2.69-2.08,3-4.17,5.83-6.1,8.82a61,61,0,0,0-7.28,16.59c-0.74,2.54-1.33,8.06,1.66,9.4,3.44,1.63,10-2.71,12.68-4.51,8.79-6.14,15.34-15.26,21.3-24.23-3.13,1.8-7.46,1.51-10.89,2.26-2.39.45-3.88,1.5-4.18-1.78-0.3-2.69,1-3.73,2.53-5.53a1.4,1.4,0,0,1,0-1.34,6.47,6.47,0,0,1,1.79-.75c1.34-.3,2.69.29,3.88,0.14,0.75-.15,1.19-1,2.53-1.35,1.79-.45,4-0.46,5.82-0.76,2.84-.3,4.63-0.76,7.61-0.91,1.94-.15,4.18-0.31,6.12-0.61,1-.15,4.77-2,5.67.29C123.15,234.58,115.39,237,114.5,237.59Zm-50.89,5.93c1.79-2.84,3.27-6,5.36-8.67A34.71,34.71,0,0,0,65.09,239a55,55,0,0,0-6.54,12c-2.23,5.38-5,14-3.24,20.46-0.76-4.18.13-9.85,0.87-12.54A86,86,0,0,1,63.61,243.52Z"/>
    <path class="cls-1" d="M167.84,259.42v0.15a66.8,66.8,0,0,0-.72,13.29l0.45,0.9a6.65,6.65,0,0,1,.3,1.94c0.9,0.44,1.65,3,2.4,3.73a7.19,7.19,0,0,0,4.78,1.93,16.27,16.27,0,0,0,3.88-.46c9.1-2.11,16.55-9.14,22.51-15.72a129.44,129.44,0,0,0,15.48-20.48c0.6-.9,1.78-4.48,3.42-4.34,1.79,0.15,1.06,5.37.91,6.42C219.35,262,209.08,275.45,197.75,285c-3.87,3.14-8.94,7.48-14.17,7.79-4.48.31-9.26-2.22-12.85-4.45-6.88-4-13.16-10.27-15.71-17.88-2-5.52-.77-11.49,0-17.17,0.15-.3-0.31-3.13.29-3.88a20.05,20.05,0,0,0-.14,2.84,27.09,27.09,0,0,1,.44-3.43c-0.3.3,0-2.09,0-2.24a35.39,35.39,0,0,1,.74-3.88c0.59-2.84,1.48-5.53,2.37-8.37,1.78-5.68,4.16-11.2,5.94-17a84.55,84.55,0,0,1,6.69-15.09c0.74-1.35,6.84-13.6,8.18-13.3a10,10,0,0,0-.89,2.24c1.49-2.54,3-5.23,4.61-7.77-0.6.6-1.34,1.5-1.34,1.5,0.59-1.94,3-4.49,4.17-6.13s2.23-3.44,3.42-5.23a128.47,128.47,0,0,1,8.78-11.36c4.32-4.49,10.58-11.07,17.29-11.38,12.09-.77,19.13,12.05,19.31,22.2v0.15c0,5.37-1.32,11.5-4.89,15.54-3.28,3.74-9.84,8.08-14.91,8.69-1.19.15-3.28,0.6-3-1.19a3.15,3.15,0,0,1,1-1h-0.15c0.9-.3,5.65-11.36,6.69-11.21,0,0-1.78,4-2.23,5.08a130.4,130.4,0,0,0,6.84-14.64c1-3,3.12-8.22,1.77-11.35-1.8-3.88-7.17-.88-9.55.47l-2.09,1.2,0.75-.3a9.29,9.29,0,0,0-1.79,1.35,8.74,8.74,0,0,1,2.53-1.5c1.94-1.35,6.56-4.19,9-2.41,1.79,1.49,1.35,3.73.61,5.82,0.59-2.69.59-5.53-2.1-6s-4.77,1.8-6.86,2.4c-6.86,4.49-12.22,11.82-16.68,18.55a171.37,171.37,0,0,0-13.39,23.32c-4.16,8.52-7.28,17.33-10.54,26.3-3.12,8.52-6.23,17.18-7.86,26V259a0.3,0.3,0,0,1-.15.3l0.15-.15C168,259.27,167.84,259.27,167.84,259.42Zm35-86.36a127.47,127.47,0,0,0-21,32,230.44,230.44,0,0,0-11.28,29.14,186.48,186.48,0,0,1,7.87-18.53c4.9-10.16,9.81-20,15.61-29.59A105.06,105.06,0,0,1,202.89,173.06Zm10.29-7.19a57.55,57.55,0,0,0-9.53,10.47,81.43,81.43,0,0,1,5.81-6.73C210.49,168.56,211.83,167.06,213.17,165.87Zm11.36,5.5a22.21,22.21,0,0,1,.89-3.73,16.11,16.11,0,0,1-.74,3.14A1.12,1.12,0,0,1,224.53,171.37Z"/>
    <path class="cls-1" d="M283.95,241a52.17,52.17,0,0,1-4.31,7.32c-3.42,5.08-7.14,10.17-10.72,15.25a77.05,77.05,0,0,1-12.21,13.91c-0.9.6-7.75,6.14-8.2,6a0.78,0.78,0,0,1,.3-0.45l-1,.45c0.75-.15-2.09,1.8-2.83,2.1a8.15,8.15,0,0,1-6.12-1.33,10.15,10.15,0,0,1-3.89-5.07,16.37,16.37,0,0,1-1.07-10c0.15-.75,2.22-9.41,3.26-9.26,0.3,0-.3,1.2-0.15,1.34l1-3.73c-0.45-.15,7.43-16.88,8.17-17.93-4.48.9-10.15,0.77-13.29-3.11-0.9-1.19-.6-2.24-0.9-3.13-0.45-1.19-1-1.79-1.35-2.83-1.51-7.31,7-17.48,14.16-12.57l-0.3-.45c0.15-.9,1.94,1.34,2.1,2.09,0,0.6-1.18,4.78-1.93,4.48-0.15,0,.89-2.69.89-2.84-1,2.84-4.17,6-4.46,9-0.29,2.24.9,2.24,2.84,2.68,2.84,0.74,7.32.28,10.9,1.32a47.56,47.56,0,0,0-7.17-1.18,0.15,0.15,0,0,1-.15-0.15c2.24,0.3,4.63.29,6.57,0.73,4.33,1,7,2.67,5.24,7.3-1.78,4.33-4,8.67-5.94,13-1.78,4.18-3.27,8.67-4.9,13-0.44,1.49-3.72,7.77-2.52,9.26,1.5,1.79,9.69-5.69,11.93-8.09a14,14,0,0,1-1.19.75c-0.3,0,3-4.19,3.42-4.79l4.32-5.53,8-10.62,8.19-11.07c0.74-.9,4.32-6.13,5.22-2.25C286.33,236.62,284.84,239.16,283.95,241Zm-46.19,40.41a0.79,0.79,0,0,1-.3-0.45l0.15,0.15c-0.75-1.64-1.5-3.28-1.8-4.18l0.45,1.94-0.6-3.13v-0.15a1.15,1.15,0,0,1-.15-0.45,0.46,0.46,0,0,0,.15.3v-0.75a26.28,26.28,0,0,1,.29-6v-0.15a17.57,17.57,0,0,0-.44,4,18.25,18.25,0,0,0,.46,5.67,24,24,0,0,0,2.25,4.17c0-.15,0-0.3-0.15-0.3a8.85,8.85,0,0,0,3.44,2.08,8.32,8.32,0,0,1-3.74-3v0.15Zm-1.82-13v0.15c0-.15.15-0.3,0.15-0.45C236.09,268.23,235.94,268.23,235.94,268.38Zm0.44-2.84a3.34,3.34,0,0,1-.15.6A3.34,3.34,0,0,0,236.38,265.54Zm0.3,0a90.89,90.89,0,0,1,4.16-11.21l2.82-6.57c0.74-1.35,3.86-8.67,4.61-9.12-1,.3-3.12,5.68-3.42,6.13a73.2,73.2,0,0,0-3.57,7.77A79.07,79.07,0,0,0,236.68,265.54ZM237,280.17a0.52,0.52,0,0,0-.15-0.3C236.86,280,237,280,237,280.17Zm4.22-49.57a0.15,0.15,0,0,1,.15-0.15Zm0,0.15a6.74,6.74,0,0,0,1,1,5.91,5.91,0,0,0,3,1,7.23,7.23,0,0,1-3.44-.89A1.85,1.85,0,0,1,241.23,230.75Zm16.3,12.65-3.12,6.72,3.12-6.57V243.4Zm0-.15h0.15V243.1Zm0,0h0.15V243.1Z"/>
    <path class="cls-1" d="M343.07,244.41A110.81,110.81,0,0,1,336.53,257a113.3,113.3,0,0,1-8.93,12.71c-2.68,3.44-6.4,7.78-10.88,8.53-5.07.91-9.11-3.27-10.77-7.74-3.6-8.8-1.08-18.06,1.59-26.58a20.62,20.62,0,0,1,.14-2.39c-1.49,2.24-3.57,4.93-4.91,7-1.78,2.84-3.12,5.68-5.06,8.37-0.89,1.35-13.1,16.15-14.75,13.62,0,0,1.79-.75,1.64-1a7.7,7.7,0,0,1-6.27.91c0.45,0.3.75,0.45,0.6,0.45-3.43.46-6.13-4.91-6.88-7.3-1.2-4.18-.91-8.81-0.18-13A70.26,70.26,0,0,1,282.12,225c1.34-1.79,2.68-3.89,4.62-5.23,1.19-1,2.24-1.2,3.58-2.1,2.23-1.95,4.17-3.59,7.46-3.6,7.32,0,10.32,8.34,11.82,14,3.57-4.63,10-10.77,15.52-4.06,3,3.58,1.06,6.27-.58,9.56a69.13,69.13,0,0,0-6.23,17c0.15-.45.59-2.69,1.19-2.84,1.19-.3-9.48,33.46,5.85,14.47,4.62-5.83,8.63-12,12.65-18.09,1.78-2.84,3.57-5.83,5.5-8.67,0.89-1.2,3.58-4,3.73-.75C347.54,238.13,344.26,241.57,343.07,244.41Zm-37.94-11c0-1.19-3-9.4-2.26-10,0.15-.15,1.5,4.18,1.65,4.48-0.45-1.79-1.06-7.31-3.75-7.31-4.93,0-8.64,9.13-10.27,12.56-3,6.72-5.64,13.9-6.82,21.21,0.44-2.24,9-29.28,11.73-29.14-2.09.45-10,23.46-10.39,25.55-0.3,1.19-2.67,9-.43,9.7,1.49,0.44,5.07-4.19,5.81-5.24q4.24-5.16,8-10.77L302.3,239c0.6-1,1.34-2.09,2.08-3.14A3.06,3.06,0,0,0,305.13,233.45Zm0.44-1v1.49A1,1,0,0,0,305.58,232.4Zm3.6,7.16-0.74,1c-0.15.45-.59,2.54-0.59,2.54Z"/>
    <path class="cls-1" d="M386.07,248.05c-4,6.88-12.21,13-19.82,15.12-0.9.3-4.18,0.16-4.92,0.91-0.9.75-1,5.68-1.18,6.87-0.44,2.09-.89,4.18-1.48,6.27-2.37,8.36-4.29,18.07-9.05,25.4-4.17,6.43-11.47,10.77-18.5,5.41-6.13-4.61-6.15-14.77-5.72-21.63,0.86-16.72,7.4-32,11.84-47.65,4.15-14.79,11-28.69,18.12-42.44a201.3,201.3,0,0,1,13.09-22.57c3.57-5.08,9.37-15,16.24-15.71,13.58-1.52,9.3,18.94,6.47,25.81-5.5,13-13.38,25.56-22,36.77-5.21,6.73-10.72,13.31-16.38,19.89-1.79,1.94-3.57,4-5.51,6a11.25,11.25,0,0,0-2.68,4.48c-0.74,2.24-1.48,4.33-2.08,6.42-2.82,8.22-5.34,16.43-7.41,24.95-1.33,5.83-3.41,13.14-2,19.11l-0.6-.45,0.15,0.15c5.7,10.59,15.06-10.18,16.84-14.67a97.67,97.67,0,0,0,6.08-19.42c0.3-1.49,1-3.73.74-5.23-0.3-1.79-1.8-3.58-2.1-5.37a25.36,25.36,0,0,1,0-10.6c0.89-3.44,3.72-6.28,6.26-2.1a19.63,19.63,0,0,1,1.51,5.82c0.15,1.49-.44,4.63.16,6,0.9,2.09,4.48.89,6.27,0,7.16-2.85,12.82-9.28,17.73-15,0.74-.9,7-10.62,8.2-6.89v0.15C395.61,239.07,388.46,244.32,386.07,248.05Zm-55.28,47.59c0-5.22,2.21-12.1,2.81-14.93a79.65,79.65,0,0,1,2.51-10.31c-0.74,1.94-1.33,4-1.93,6.12C332.26,282.2,330,289.23,330.79,295.64Zm19.87-61.1a223.17,223.17,0,0,0,25.16-34.09c2.08-3.44,16.35-32,10.68-33.61-1.94-.59-3.73,2.4-4.77,3.74-4,5.23-7,11.21-10.12,17-6.24,11.81-11.59,24.21-16.79,36.61,0.15-.15,0,0.45-0.89,2.39v-0.15c0,0.15-.15.3-0.15,0.45Zm4.16-10.31-0.45,1.2C354.53,225,354.82,224.38,354.82,224.23Z"/>
    <path class="cls-1" d="M440.29,193c0.15,2.09-2.38,3.74-4.17,4.19s-4.18-.59-6-0.29c-1,.3-0.75.75-1.64,1a14.09,14.09,0,0,1-4.33.31c-1.94,0-6.12-1-7.76,0a2.55,2.55,0,0,0-.9.9l0.45-.9c-0.9.15-2.38,4.19-3.42,6.87l1.64-3.29-2.08,5.68c-1.49,3.14-2.82,6.42-4.16,9.56-2.67,6.27-5,12.4-7.42,18.83-4,11.65-8,23.9-10.67,36-0.44,2.09-3,10.75-.12,11.94,0.45,0.3,3.58-1.5,3.43-1.35,0.74-.75,1.64-1.5,2.38-2.39-0.6.45-2.24,1.8-2.24,1.5-0.15-.9,3.57-3.89,4.17-4.64,1.49-1.49,2.83-3.14,4.17-4.64l8.64-10.62c5.36-6.73,10.42-13.61,15.78-20.34,1.19-1.49,3.87-6.73,5.81-7.18,2.39-.45,2.84,1.94,2.1,3.88-1.33,4-5.36,7.33-7.44,10.91-3.72,6.28-8.19,12.11-12.5,18.09-4.76,6.43-9.53,12.86-14.74,19-2.38,3-5.51,7.18-9.24,9-2.83,1.35-6.57-.29-9-2.07a11.34,11.34,0,0,1-4.79-7.45c-0.15-.9-1.06-5.67-0.16-6.72v2.24l0.29-3c-0.3.6-.3-1.34-0.3-1.64a16.15,16.15,0,0,1,.59-3.73,58.85,58.85,0,0,1,1.48-7c1-4.63,2.22-9.26,3.11-14s2.37-9.26,3.85-13.74c0.3-.75,3.26-9.86,4-9.86a10.3,10.3,0,0,1-.29,1.94c0.59-2.24,1.48-4.48,2.22-6.72-0.3.75-.74,1.49-0.74,1.2,0-1.79,1.93-4.93,2.52-6.57l1.78-5.23a143.61,143.61,0,0,1,5.34-14c-4.18.31-8.21,0-12.09,0.77-5.67,1.06-12.84.47-18.51-.26-0.75-.15-4.33-0.29-3.44-1.93,0.3-.45,3.58-1.2,4.18-1.35,2.83-1.05,5.82-1.06,8.81-1.21,5.82-.61,11.49-0.32,17.32-1.08,1.49-.15,4,0.29,5.37-0.31s1.34-1.5,1.93-2.84c1-2.69,2.23-5.38,3.42-7.92a55.23,55.23,0,0,1,4.31-8.37c1.19-1.65,2.38-2.09,3.28-3.89a49.29,49.29,0,0,1,6.69-11.51c3-3.89,8.2-4.5,12.83-3.61,2.24,0.44,5.38,1.78,4.34,4.77-0.44,1.2-1.94,1.94-2.83,2.84,0,0.15,1.34-1.35,1.34-.75-0.15,1-5.65,8.67-6.1,8.52-0.15,0,2.08-3.74,2.23-4A220.52,220.52,0,0,0,418.2,193c0.45,0,.89-0.6,1.49-1.64a9.49,9.49,0,0,0-.74,1.64c5.82-.31,11.79-0.32,17.76-0.63,1.19,0,3.43-1.65,3.58.44V193ZM387,284.92a0.79,0.79,0,0,0,.45.3Zm44.23-120.72c-11.91,16.9-19.33,36.91-27.65,55.59a246.48,246.48,0,0,0-12.32,33.76c-1.48,5.23-2.66,10.46-3.7,15.83l0.74-2.84a167.34,167.34,0,0,1,6.52-20.76c5.34-14.79,10.38-30,17.07-44.22C417.89,188.87,423.24,175.72,431.28,164.21Zm-24.66,54.54c-1.34,3-2.38,6-3.56,8.82,1.19-2.69,2.38-5.38,3.42-8.22A1.12,1.12,0,0,1,406.61,218.75Zm14.71-30.93-1.49,3.29A35.08,35.08,0,0,0,421.32,187.81Zm4-7.92-3.57,6.88C423.25,183.33,424.59,180,425.34,179.89Z"/>
  </g>
  <g>
    <path class="cls-1" d="M130.85,29.64a34.76,34.76,0,0,0-3.43,2.84c-1.34,1.35-.74,1.35-1.64,2.84C123.7,38.76,120.57,41.9,118,45c-2.83,3.59-5.06,7.18-7.59,10.76-2.23,3.29-5.36,6.43-7,10a57.23,57.23,0,0,1-4.31,8.52c-3.87,6-7.29,12.26-10.86,18.53-2.68,4.63-4.16,9.56-6.84,14.5C77.29,115,73.57,123.06,69.86,131a31.75,31.75,0,0,0-2.52,6.43c-0.59,2.39-1.19,3.59-4,3.89-5.22.46-10.16-3.86-10.77-8.93-0.91-6.42-.18-13.59,0-20.15a39.34,39.34,0,0,1,1.62-10.9,15.36,15.36,0,0,0,1-3.73c0.15-.45.14-2.39,0.29-2.09a18.75,18.75,0,0,1,.14-4.93c0.44-2.39,1.18-4.78,1.48-7.17,0-.9,1.16-13.44,3.11-13.14,0.3,0-.15.9,0.15,0.9a19.16,19.16,0,0,1,.59-2.84c-0.15,0-.15.15-0.3,0.15,0.15,0,1.92-8.22,2.22-9l-5.66,7.33c-2.38,3.29-5.51,6.28-7.59,9.72C45.12,84,40.21,91,35.45,98.36c-4.61,6.73-8.78,13.75-12.79,20.78-2.23,3.89-5.21,7.77-6.54,12.11a12.5,12.5,0,0,1-.59,2.24c-1.93,4.48-8.95,5.39-12.83,3.16s-2.85-6-1.66-9.4,1.93-6.12,2.82-9.56c1.77-7.47,5-14.49,7-21.81s3.85-14.34,5.63-21.51a196,196,0,0,0,6-36.29c-0.72,10-3.39,20.46-5.31,30.17a346.28,346.28,0,0,1-9.92,36.45c1.48-6,2.36-12.1,4-18.07C12,84.08,13,81.84,13.76,79.3c0.15-.15.89-4.93,1-5.08a0.55,0.55,0,0,0,.15.45c0-.3.15-0.45,0.15-0.75-0.45.9-.3-2.54-0.15-2.69a38.12,38.12,0,0,1,.74-4,43.87,43.87,0,0,0,1.47-8.66c0-1.64,1.31-14.63,2.66-14.64,0.3,0,0,1,.15,1.19a35.19,35.19,0,0,0,.59-4.18,1.27,1.27,0,0,1-.45.75c0.15-.45.58-7.62,0.58-8.36-6.86,4.64-4.94-6.11-3.3-9.25,1.19-2.69,3.72-5.83,7-6,0.75,0,.9.6,1.64,0.59s0.9-.3,1.49-0.15c2.54,0.44,4,2.83,5.09,5.07a23,23,0,0,1,2,9c0,1.94-.74,3-0.74,4.33a0.79,0.79,0,0,1,.3-0.45c0.6-.15.31,6.12-0.43,6.12a14.28,14.28,0,0,1,0-2.54C32.81,48.81,31,57.77,29.41,66.43,29.86,64.79,32.81,49,33,49s-4.87,27.18-5.31,29.72c-1.92,10-3.54,20-6.21,29.87l7.89-11.36c3.13-4.34,5.06-8.82,8.48-13.16,3.43-4,6.4-8.52,9.68-12.71,1.79-2.54,2.68-5.08,4.46-7.47C57.45,55.92,64.3,48.14,70,41c0.6-.75.44-1.64,2.09-2.09s4,0.89,5.23,2.08a7.69,7.69,0,0,1,2.85,5.37c0.15,2.24-1,2.39-1.64,3.74l0.6-.45c0.45,0.15-1.18,4.93-1.63,4.93s-0.3-.6-0.15-1.19a147.48,147.48,0,0,0-5.18,20.91c0.3-.6,1.48-6.27,2.52-10.31C73,72,70.36,88.29,70.07,89.93c-0.44,5.23-.87,10.45-1.76,15.68-0.59,3.58-1.78,7.62-2.07,10.9a1.17,1.17,0,0,1,.45-0.6c0.45-.3.16,6.57,0.16,6.87,2.67-6.28,5.35-12.7,8.47-18.83,2.23-4.48,5.06-8.67,7.14-13.3A254.94,254.94,0,0,1,99.71,59.41c6.4-10.17,12.79-20.48,20.24-29.9,2.83-3.59,6.26-6.73,9.23-10.32,0.74-.9.15-1.64,1.94-1.94,2.39-.45,4.93,2.53,5.68,4.47,0,0-.15-0.15,0,0.15C138,25.74,133.23,27.69,130.85,29.64ZM70.35,83.21c0.3-1.79.74-3.44,1.18-5.53,0,0.15-.15.3-0.15,0.45a8.29,8.29,0,0,1-.74,1.64A9.69,9.69,0,0,0,70.35,83.21Zm4.88-21.36c0.3-1.49.59-2.24,0.74-2.24A10.65,10.65,0,0,0,75.23,61.85Z"/>
    <path class="cls-1" d="M153.82,93.78l-4.61,6.13-8,10.47c-2.08,2.69-4.62,5.23-6.7,7.93-2.23,3-4.17,6.13-6.7,9a39.52,39.52,0,0,1-9.39,7.78,9.71,9.71,0,0,1-7.61.76,20,20,0,0,1-9.87-6.4,5.49,5.49,0,0,1-1.65-2.83,18.29,18.29,0,0,1-.31-3c-0.15-1.79.44-3.14,0.74-4.93s1.19-3.73,1.48-5.68,0.89-4,1.18-6c0.15-1.79-.16-3.73.29-5.52,0.3-1.19,1.19-2.39,1.63-3.74a14.1,14.1,0,0,0-1.34,2.54c-0.44,1.19-.74,2.39-1.19,3.44s-0.59,2.24-1,3.44a12.81,12.81,0,0,0-1.33,4c-0.15,1.34,0,2.69-.14,4a16.16,16.16,0,0,0-.59,3.73c0,0.45.3,1.34,0.3,1.64,0,0.6-.3,1.34-0.29,2.09,0,1.34.3,2.69,0.46,4.18-2.4-4.17-2-8.36-1.22-12.84s1.32-8.81,2.36-13.14A60,60,0,0,1,111.84,76.4c4.61-6.13,10.73-10.77,18.79-9.3,3,0.59,6.27,1.93,8.22,4.46,2.1,2.83,2,6.41.92,9.7-1.93,5.83-6.85,10.46-11.46,14.36a48.63,48.63,0,0,1-6.26,4.64,27.29,27.29,0,0,1-4.77,2.1l-2.54.9c-1,.3-1.19.15-1.64,1-0.74,1.5-.29,3-0.59,4.48-0.29,1.94-.74,3.73-1.18,5.68-0.74,3.58-1.92,8.21-1,11.95,1.66,7.61,14.17-4.21,16.41-6.3,1.49-1.35,2.83-2.84,4.17-4.19a33.83,33.83,0,0,0,2.23-2.54,4.6,4.6,0,0,0,.3-1,81.61,81.61,0,0,1,6.4-8.22c2.68-3.14,5.06-6.43,7.59-9.87,1.34-1.94,4.46-7.47,6.86-3.45v0.15c0.15,0.15.15,0.15,0.15,0C155,92.14,154.57,92.88,153.82,93.78Zm-38.36,3.66a43.13,43.13,0,0,0,12.52-10l2.53-3.29A10.63,10.63,0,0,0,132,82c0.15-.75-0.15-1.34,0-2.24l0.59-3.14c0.15-1.49-.46-5.37-2.7-4.92-1,.3-2.09,1.65-2.68,2.39l-2.68,3.59c-3.12,4.64-4.76,9.71-7,14.5a1.16,1.16,0,0,1-.15.45C116.65,94.16,116.21,95.8,115.47,97.44Z"/>
    <path class="cls-1" d="M264.58,89.36c1.06,5.22,0,11.2-1.61,16.28-5.63,17.63-21.88,30.05-38.29,37.4a103.71,103.71,0,0,1-22.08,7.36,34.75,34.75,0,0,1-13.58.33c-2.39-.29-8.81-0.88-10.31-3-1.5-1.79.15-1.64,1.94-1.95a85,85,0,0,0,12.53-2.71,116.31,116.31,0,0,0,27-12.3c7.9-4.79,15.36-10.33,21.46-17.21a47.17,47.17,0,0,0,7.29-10.76c0.89-1.94,2.67-7.92,1.77-8.81-0.3-.15-0.9-3-0.9-4.63,0.15,1,.75,2.09.9,2.83a14.85,14.85,0,0,0-1.21-4.92v0.45a17.72,17.72,0,0,0-2.39-2.83,8.38,8.38,0,0,0-4.78-2.23c-3.73-.44-6.12,1.51-9.4,2.41-3.88,1.05-14.79-5.94-10.47-9.38,1.94-1.5,5.07-2.25,7.31-3.6a85,85,0,0,0,10.58-8.83A88.31,88.31,0,0,0,250,51.92c0.74-1,5.5-9.27,6.25-9.12,0,0-1.19,2.69-1.19,2.84a79.23,79.23,0,0,0,4.46-9.56V35.93l0.15-.15,0.15-.45c1.93-4.48,3.85-13.59-.18-14.63-2.69-.74-5.81,3.15-7.45,4.79-8.49,8.38-15.78,18.4-22.18,28.41-3.72,5.68-7.14,11.36-10.56,17.19-2.08,3.44-4.91,6.28-6.4,9.87-4.6,10.91-9.51,21.37-13.07,32.72a143.29,143.29,0,0,0-4,17.62l-0.45-.89c-4.17,4.49-10.3,1.37-12.25-3.41-2.25-4.92-1.07-12.09-.93-17.31,0.29-6.27.57-12.69,2-18.81a57.56,57.56,0,0,1,2.37-7.17c0.15-.6.59-5.23,1-5.38a0.54,0.54,0,0,0,.15.45c0-.3.15-0.6,0.15-1-0.59,1.49-.15-2.39,0-2.54a44.34,44.34,0,0,1,1.33-4.78,60.79,60.79,0,0,0,2.07-8.66c0.3-1,4-14.34,5.49-14,0.3,0.15-.3,1-0.15,1.19l1-3.29c-0.45-.15,6.68-16,7.28-17.33,2.68-4.93,4.61-9.86,8.93-13.45,2.68-2.1,6-8.52,10.88-6.74,2.24,0.89,4.49,4.17,4.64,6.56,0,1.79-.89,2.09-1.78,3.14a1.14,1.14,0,0,1,.75-0.3c0.3,0.15-3.57,5.23-4,5.08a5.9,5.9,0,0,1,.89-1.79,118.69,118.69,0,0,0-13.09,23.76C213.87,41.4,220,28.7,221,28.25c-0.75.45-7.73,15.69-8.47,17A155.81,155.81,0,0,0,206,63.51c-1.63,6-2.81,11.95-4.44,17.92-1.33,4.78-3.26,10.16-4,14.94a3.12,3.12,0,0,1,.6-0.9c0.15-.15-0.58,7-0.58,7.47L197,108.62c6.37-21.81,17.08-42.43,29.73-61.12-4.76,6.88-9.23,14.05-13.39,21.38-1.93,3.74-3.87,7.47-5.65,11.21-1.34,2.69-4.17,7-4.61,9.71,0.29-2.54,2.38-5.53,3.42-7.77a83.5,83.5,0,0,1,4-8.22c2.53-4.93,5.2-9.86,8-14.65a282.51,282.51,0,0,1,20.54-29,156.86,156.86,0,0,1,11.47-12.86c3.13-3,7.45-7.78,11.92-8.53,8.36-1.36,13.6,7.29,14.36,14.45,2.73,21.49-15.88,43.63-34.67,51.88C252.16,74.16,262.32,78.77,264.58,89.36Zm-73.9.61a15.28,15.28,0,0,0,.14-2.54,41.67,41.67,0,0,0-2.23,4.48,33.43,33.43,0,0,0-1,10.9,19,19,0,0,1,1.18-7.62A19.91,19.91,0,0,0,190.69,90ZM210,50.22a2.12,2.12,0,0,0-.3.9Zm2.38-5.68a1.13,1.13,0,0,0-.3.6Zm39.39,58.88L251,105.22a60,60,0,0,1-9.08,13.6l-5.06,5.39c1.79-1.35,4-2.25,6.11-4a21.3,21.3,0,0,0,5.8-7.78C249.85,110,251.48,106,251.78,103.42ZM237.29,32.84l1-1Zm24.24,24.28c1.34-1.5,2.53-3,3.87-4.34a32.19,32.19,0,0,0,7-13.15,98.6,98.6,0,0,1-5.21,9.12A63.35,63.35,0,0,1,261.53,57.12Z"/>
    <path class="cls-1" d="M337.75,97.57a61.92,61.92,0,0,1-7.74,10c-4.32,4.64-10.57,12.26-17.59,12.73A9.1,9.1,0,0,1,303.9,116c-3.15-5.67.12-12.84,2.05-18.07-3.87,4.64-7.59,9.27-11.32,14.06-1,1.35-12.36,12.86-13.86,10.93,0-.15,1.34-0.75,1.19-0.9a9.67,9.67,0,0,1-4.77,1.65,1.12,1.12,0,0,0,.75.15c0.3,1-4-.59-4.48-0.89-1.65-1.49-2.4-3.88-2.85-6a35,35,0,0,1,1.16-14.18,80.73,80.73,0,0,1,4.45-14c1-2.39,2.83-3.59,3.87-5.68,1.63-3.74,3.71-8.52,7-11.21,2.68-2.39,7.46-2,10.15.13s1.2,3.13,0,5.22a2.55,2.55,0,0,1,.9-0.9c0.3,0-3.27,7.32-4,7.17a18.71,18.71,0,0,1,.89-2.39c-1.93,3.44-3.72,7-5.35,10.61a1.08,1.08,0,0,1,.89-0.6c-0.3-.15-5.64,13.75-6.09,14.94-0.59,2.24-3.27,8.82.76,7.46,4.33-1.2,8.49-7.18,11.18-10.32a138.08,138.08,0,0,0,9.68-12.86c3.27-4.93,7.14-13.15,14.76-11.08,6.72,1.93,1.66,9.1-.42,13.29,0.3-.3.59-0.75,0.74-0.6,0.9,1-2.08,6.72-2.52,8.22-0.89,2.84-2.08,6.13-2.22,9.26-0.14,3.58.9,2.54,3.29,0.74,5.07-4,9.24-9.13,13.56-13.76,0.3-.3,7.15-8.23,7.6-5.39C341,92.78,338.64,96.07,337.75,97.57ZM286.55,99c-1.63,4-4.76,10-3.85,14.34C282.4,112,284.47,104.85,286.55,99Zm20-1.68a1.45,1.45,0,0,0-.59,1.34A5.28,5.28,0,0,1,306.55,97.33ZM321.9,84.61c-1.48,3.74-6,8.52-4.75,12.25a0.55,0.55,0,0,1-.15.45,0.8,0.8,0,0,0,.3-0.45,15.86,15.86,0,0,0,.89-2.84C319.23,90.89,320.71,87.9,321.9,84.61Z"/>
    <path class="cls-1" d="M361.79,98.71c-2.53,3.74-4.91,7.33-7.74,10.91-3,4-6.69,10.46-11.92,11.67-1.19.15-6.87-1.33-6.72-2.22h0.3c-1.19-.59,0,0.75-1.79-0.59a12.08,12.08,0,0,1-3.14-3.58c-1.65-2.24-3.74-4.17-4.34-6.86-0.15-.75-0.46-6.12.73-6.12,0.3,0,0,.75.15,0.75l0.44-2.69a0.93,0.93,0,0,1-.45.6c-0.6-.15,2.22-10.75,2.51-11.65,1.19-3.14,1.78-6.72,4.76-8.52,2.24-1.5,5.07-1.21,7.91,0,1.2,0.45,4.63,1.93,4.64,3.42,0,0.9-.74,1-1.19,1.5a0.9,0.9,0,0,1,.6-0.15c0.45,0.3-1.78,3.44-2.08,3.29s0.15-.75.3-1.19a77,77,0,0,0-7,15.09c0.74-1.94,4.46-10.31,4.9-10.16s-9.81,18.08-4.73,20.61c2.39,1.19,6.41-2.55,8.05-3.9,2.83-2.25,6.71-5.09,8.79-7.63a1.26,1.26,0,0,1-1,.3c-0.6-.74,6.84-10.61,8.19-11.51,1-.75,3.13-1.35,3.43.59C366,93.47,363.28,96.76,361.79,98.71Zm-25.36,8.56-0.3,1.19,0.3-.9v-0.15C336.58,107.12,336.58,107.12,336.43,107.27Zm1.86-36.88c-0.15-.45-0.61-5.07,1-4.33,0-.45,1.79-2.69.89-0.75a34.69,34.69,0,0,0,3.57-6.13L342,61.88a61.73,61.73,0,0,0,3.56-9.26c0-.15-0.3-1.49,0-1.79-3.14-1.19-.9-3,0.44-4a0.51,0.51,0,0,1-.6-0.3c-0.6-.6,1.19-1,1.64-1.2a8.15,8.15,0,0,1,6.72.58,10.55,10.55,0,0,1,3.74,5.07c0.6,1.94-.89,4.18-2.23,5.38-0.6.6-1.64,1-2.38,1.65-0.89,1-.74,2.39-1.49,3.44-0.45.75-1.34,1-1.79,1.8a0.78,0.78,0,0,0-.15,1.34,5.39,5.39,0,0,0-1.49,1c-1.49,2.39-2.38,3.74-4.17,5.09A14.39,14.39,0,0,0,348,66.79a10.48,10.48,0,0,1,4.32-3.29c-1.49,1.65-1.78,3.59-3.57,4.78s-0.15-1-2.09.75c0,0,.9-0.15.45,0.15-1.34,1.2-2.68,3.14-4.47,3.89-0.9.3-1.49,0.9-2.54,0.45s-0.6-1.19-.9-1.64A13.2,13.2,0,0,1,338.29,70.39Zm1.19-4.33a0.15,0.15,0,0,1,.15.15,0.3,0.3,0,0,0,.15-0.3A0.3,0.3,0,0,1,339.48,66.06Zm2.38-3.89a3.67,3.67,0,0,1-.59.9Z"/>
    <path class="cls-1" d="M413.58,93.52c-0.89,3.29-2.82,6.28-4.61,9.27-4.46,7.18-8.33,14.8-13.24,22-5.36,7.77-11.16,15.7-18,22.43-5.81,5.54-13.86,9.88-20.89,3.48-6.28-5.81-6.3-16.26-5.87-24.17,0.58-8.36,2.8-16.43,4.72-24.49,0.15-.3,0-3.88.74-4.93a21.12,21.12,0,0,0-.29,2.24,25.82,25.82,0,0,1,1-3.14h-0.45c-0.45-3,1.63-7.62,2.52-10.46,1-3.44,2.22-7,3.41-10.46,2.22-6.42,4.6-12.7,6.68-19.12a119,119,0,0,1,7.87-18.53q2-4.26,4.46-8.52c0.45-.75,3.72-7.17,4.46-7l-1.19,2.54,4.76-8.22-0.15.15c0.74-1.2,1.78-3.44,2.53-4.34l3.42-4.63c2.09-2.54,4.62-6.13,8-7.18,6.56-2.1,12,4.75,12.86,10.57l0.15,0.15v0.75c0.92,9.1-4.44,19.86-8.45,27.64-2.38,4.78-4.9,10.61-8.63,14.5-2.53,2.84-3.87,5.83-6,9.27a272.21,272.21,0,0,1-18.46,26.61A15.5,15.5,0,0,0,371.64,96c-0.89,2.84-1.63,5.68-2.37,8.66s-1.63,6-2.37,9c-0.3,1.34-1.63,5.53-1.48,5.82a35.5,35.5,0,0,0-.88,5.53l1.18-4.48c0.75,1.19-.44,5.67-0.58,7a53.74,53.74,0,0,0-.43,7c0,2.84,0,9.26,3.75,9.84,5.08,0.59,10.44-7,13-10.18,6.11-7.33,11.16-15.55,16.22-23.62,2.68-4.19,5.21-8.37,7.74-12.71,1.64-2.69,3-6.43,5.06-8.67C413.86,85.61,414.17,91.13,413.58,93.52Zm-54.92,8.63c-0.6,0-1.34,3.14-1.78,6.57v-0.15A116,116,0,0,0,355,124.7l0.44-4.78v0.45a20.55,20.55,0,0,1,.44-3c0.88-4.48,1-10.15,2.81-14.34a1.14,1.14,0,0,1,.15-0.45C359,102.45,359,102,358.66,102.15Zm18.91-25.57c11-17.79,23.51-36.48,30.18-56.5-2.52,7.17-6.24,14-9.66,20.62-2.08,3.74-4,7.47-6.25,11.21-1.34,2.24-4,5.68-4.91,8.07,1.19-3.88,4.76-8.37,6.84-12L400,36.37c3.57-7.17,8.92-16,9.2-24.35V11.87c0.28-7.91-6.42,1.06-7.46,2.7-4.17,6.73-7.14,14-10.11,21.22C386.17,49.09,381.87,63.43,377.57,76.58Zm4.84-41.81a0.9,0.9,0,0,0-.15.6c3.27-6,7.14-11.66,10.26-17.94-1.49,2.69-4.17,5.08-5.66,7.92C385.23,28.49,383.74,31.48,382.4,34.77Z"/>
    <path class="cls-1" d="M481.37,99.8c-3.13,3.29-6.11,6.88-9.08,10.47-6.1,7.48-10.86,16.15-17,23.92-4.76,6-12.65,16.9-20.58,8.85-6.43-6.26-4.82-18.2-4.09-26.12a126.83,126.83,0,0,1-14.31,12.57c-2.83,1.95-6.11,4.19-9.7,3.45-11.65-2.36-10-18.64-6.62-26.56,1.93-4.63,2.67-9.56,5.34-14.34,3-5.38,7.29-11.51,13.11-13.91,7-2.85,13.45,5,17.49,9.67a248.46,248.46,0,0,1,14.1-38.1c0.3-.45,1.33-4.78,2.53-5.68-0.6.45-1.34,2.84-1.63,4a37.1,37.1,0,0,1,2.38-4.93h-0.15c0.45-.6,2.38-5.38,2.82-6a66.36,66.36,0,0,1,4.32-6.28c2.83-3.29,6.26-6.43,10.28-7.93,5.52-2.1,13.73-.92,16,5.19,3,8.35-2.5,18.22-6.52,25.09-2.53,4.19-5.21,8.52-8,12.56l-3.87,5.08-1.34,1.5a0.76,0.76,0,0,0,.15-0.75l-1.19,1.64h0l-0.45.6-6.4,8.67c0.74-.9,1.94-2.39,2.24-2.24,0,0-10.12,13-11,14.21-3.72,4.64-4.15,12.4-5,18.22-0.59,3.29-4.58,24.34.65,24.33,1.34,0,3.13-2.54,3.87-3.44a75.85,75.85,0,0,0,6.1-7.63c4-5.38,7.74-10.77,11.61-16.15s7.89-10.47,12.21-15.25c0.89-.75,7.59-9,8.5-4v0.15C488.52,94.41,483.75,97.4,481.37,99.8Zm-48.22.25c0.59-2.69,1.63-5.23.13-7.61-1.35-1.94-2.55-4.47-4.49-5.81-0.75-.6-1.79-1.34-2.84-1a0.55,0.55,0,0,0-.45.15l0.75-.45c-3.13.31-5.51,5.39-7.15,8.52a103.08,103.08,0,0,0-8,19.72c-0.59,2.39-3.56,10.91-.12,12.39,1.79,0.89,4.77-1.35,6.56-3-1.94,1.65-4.17,2.85-5.52,2.7-4.93-.29-1.36-10,0.86-16-2.08,5.83-5.19,15.39-1,15.83,3.43,0.29,8.8-5.84,11-7.94,2.38-2.24,4.77-4.49,7-6.88,2.53-2.54,2.53-5.68,3.12-9.26a2.6,2.6,0,0,1,.15-0.75V100Zm-14.58,21.83h0.15a78.9,78.9,0,0,0,6.41-5.69c1.64-1.5,6.26-4.79,6.55-6.73q-5.14,5.38-10.73,10.32Zm5-34.5c0.15,0,.6-0.6,1.19-1A3.43,3.43,0,0,1,423.57,87.38Zm6.27-.76a3.12,3.12,0,0,0-.9-0.59Zm15.95-12.28c-0.3,1.19-1.79,2.84-2.08,3.74-0.59,1.79.16,3.73-1,5.23A0.32,0.32,0,0,0,443,83c0.45-.45,1.34-3.88,1.63-4.63A10.65,10.65,0,0,0,445.79,74.34Zm4.14-16.73a50,50,0,0,1-2.67,5.68A48.53,48.53,0,0,0,445,69.87a31,31,0,0,0,2.23-5.08C448,62.55,449.19,60,449.93,57.62Zm7,8.94-0.45.75c-0.15.6-.3,0.9-0.15,0.75q-3.34,9.64-6.23,19.27a4,4,0,0,1,.74-0.9,8.11,8.11,0,0,0-1.64,2.84l0.6-.6,1-1.35,7.59-9.87-3,3.74-3.28,3.44a252.39,252.39,0,0,0,17.12-24.22c4.46-7.18,11.61-17.79,11-26.75,0-1.34-.31-3.28-1.65-4-3.44-1.93-7.3,4.94-8.64,7.18-5.36,8.67-9.07,18.23-12.48,27.79v0.15a1.64,1.64,0,0,0-.3.6v0.15a0.9,0.9,0,0,0-.15.6A0.55,0.55,0,0,0,457,66.56Zm-0.45.75a6.29,6.29,0,0,1-.15.75L457,66.56Zm2.27,15.52a0.79,0.79,0,0,0-.3.45A1.84,1.84,0,0,0,458.79,82.83Zm0.15-.3-0.15.3A0.52,0.52,0,0,0,458.94,82.53Z"/>
  </g>
</svg>
