<?xml version="1.0" encoding="utf-8"?>
<!-- Generator: Adobe Illustrator 19.2.0, SVG Export Plug-In . SVG Version: 6.00 Build 0)  -->
<svg version="1.1" id="Layer_1" xmlns="http://www.w3.org/2000/svg" xmlns:xlink="http://www.w3.org/1999/xlink" x="0px" y="0px"
	 viewBox="0 0 800 800" style="enable-background:new 0 0 800 800;" xml:space="preserve">
<style type="text/css">
	.st0{fill:#FFFFFF;}
</style>
<g>
	<path class="st0" d="M206.6,295.1c4.8,12.1,4.9,26.9,3.2,39.9c-5.9,44.9-39.6,81.8-75.8,106.6c-15.1,10.6-32.6,20.4-49.9,27.3
		c-10.7,4.2-21.4,6.9-32.5,6.7c-5.9,0.3-21.6,1.7-26.1-2.6c-4.4-3.7-0.4-4,3.8-5.5c10.1-3.7,19.9-7,29-12
		c21.7-11,41.7-25.4,59.6-41.3c16.9-15,32.4-31.5,44.1-50.8c5.4-9.1,10.3-18.9,12.9-29.1c1.3-5.1,3-20.2,0.4-22
		c-0.8-0.2-3.5-6.8-4.2-10.7c0.8,2.4,2.7,4.7,3.4,6.4c-1.1-3.9-2.5-7.7-5-11.3l0.2,1.1c-1.4-1.6-6.6-5.8-7-5.8
		c-3.8-2.6-8-3.4-12.5-3.3c-9.2,0.6-14.1,6.3-21.6,9.9c-8.9,4.2-38.2-7.9-29.3-18c4-4.4,11.2-7.6,16-11.8
		c7.8-8.1,15.2-16.5,21.6-25.8c7.1-9.8,12.9-20.5,18.3-31.6c1.3-2.8,9.2-24.7,11.1-24.7c0,0-1.7,7-1.6,7.3
		c2.6-8.3,5.1-16.5,6.6-24.9l-0.1-0.4l0.3-0.4l0.2-1.1c2.7-11.6,3.4-34.4-6.8-35.1c-6.8-0.6-12.6,10.1-15.8,14.8
		c-16.8,23.9-30,51.1-41,78c-6.5,15.3-12.2,30.4-17.9,46c-3.5,9.2-9.1,17.2-11.1,26.5c-6.3,28.2-13.6,55.5-17.2,84.4
		c-1.7,14.8-2.1,29.3-1.9,44.1l-1.5-2c-8.1,12.6-24.2,7.8-30.9-2.9c-7.6-10.9-7.8-28.6-9.8-41.2c-2-15.2-4.2-30.8-3.3-46.2
		c0.3-6.4,1.5-12.1,2.6-18.3c0.1-1.5-0.9-12.8,0.1-13.4c0.1,0.4,0.1,0.7,0.6,1c-0.1-0.7,0.1-1.5-0.1-2.6c-0.8,3.9-1.4-5.7-1.1-6.1
		c0-4.1,0.7-8.3,1.1-12.1c0.8-7.6,1.5-14.4,1.2-21.7c0.3-2.6,3.4-36.2,7.1-36.2c0.8,0.2-0.3,2.6,0.2,2.9l1.1-8.4
		c-1.1-0.2,9.1-41.4,10-44.9c4.3-13,6.8-25.7,15.6-36.3c5.5-6.2,10.6-23.1,23.2-21c5.8,1.2,12.6,8.1,14,13.8
		c0.8,4.3-1.2,5.4-2.9,8.3c0.3-0.4,0.9-0.9,1.7-1c0.8,0.2-6.3,14.1-7.5,14c-0.4,0.1,0.6-2.7,1.4-4.7c-9.7,20-16.2,41.2-21.1,62.9
		c2.2-8.2,11.3-41.4,13.7-42.9c-1.6,1.4-11.8,41.1-13,44.7c-3.5,15.5-6.2,30.8-7.8,46.7c-1.3,15.1-1.6,30-2.9,45.1
		c-1.1,12.1-3.4,25.9-3.1,37.7c0.2-0.8,0.5-1.6,1-2.4c0.3-0.4,1.7,17.1,1.9,18.2l1.1,13.9c5.8-55.2,22.6-109.5,44.9-160
		c-8.5,18.6-16.1,37.8-22.9,57.3c-3,9.8-6,19.7-8.7,29.4c-2,7.1-7,18.7-6.9,25.4c-0.4-6.2,3.3-14.3,4.8-20.2
		c1.6-7.3,3.7-14.4,6.1-21.5c3.9-13,8.2-26,12.9-38.7c10.7-26.8,22.8-53.5,36.8-78.7c6.6-12.3,14.1-24.5,22-35.9
		c6.2-8.6,14.5-22,25-25.7c19.5-6.9,35.9,11.6,40.8,28.5c15.9,50.5-19.2,111.9-60.8,139.9C170.1,264,196.6,270.6,206.6,295.1z
		 M29.1,328.8c0-2.2-0.4-4.4-0.8-6.2c-1.1,3.9-2.9,8.3-3.4,11.8c-0.8,7.9,0.1,18.9,2.3,26.7c-1.3-5.3-1.7-13.4-0.5-18.8
		C27.8,337.9,29.3,333.6,29.1,328.8z M58.3,224.7c-0.2,0.8-0.5,1.6-0.3,2.3L58.3,224.7z M61.6,210c-0.3,0.4-0.5,1.2-0.5,1.6
		L61.6,210z M181.9,334.5l-1,4.6c-3.8,13.7-8.8,24.6-15.9,36.7l-9.8,15.2c3.7-4,8.7-7.2,12.9-12.4c4.5-5.7,9.3-14,10.6-21.2
		C180.2,351.2,182.3,340.8,181.9,334.5z M116.4,171l2.1-3L116.4,171z M185.3,218.9c2.6-4.2,4.8-8.3,7.4-12.1
		c7.1-11.7,9.7-22.2,11.1-34.7c-2.1,8.6-6.1,17.4-8.6,24.2C192.6,204.2,189.1,211.5,185.3,218.9z"/>
	<g>
		<path class="st0" d="M384.3,197.7c0,0,0.6-0.8,1-2.4L384.3,197.7z"/>
		<path class="st0" d="M383.1,219.8c0.9,0.9,0.1,2.6,2.9,3.6c2.7,0.6,3.9-1.1,5.9-2.2c4-2.6,6.4-7.8,9.1-11.3
			c0.9-0.9-1.1-0.2-1.1-0.2c3.9-5.2,0.9,0.6,4.7-2.7c3.8-3.7,3.6-8.5,6.5-13.1c-4,2.6-6.8,5.7-9,9.8c-2.7,5.3-4.9,7.9-8.3,11.2
			c3.7-4,5.3-7.6,7.8-14c0.9-1.3,1.8-2.2,3.1-3.2c-1.3-0.9-1.5-2-0.2-3.3c0.7-2,2.8-3.1,3.5-5.1c1.3-2.8,0.4-6,2.1-8.9
			c1.5-1.8,3.8-3.3,5-5c2.7-3.5,5.3-9.5,3-13.9c-2.2-4-6.8-8.8-11.2-10.6c-5.1-1.7-11.8-1.6-16.4,1.5c-1,0.6-5.1,2.4-3.4,3.6
			c0.5,0.7,0.8,0.6,1.6,0.5c-2.8,3.1-7.4,8.4,0.7,9.9c-0.6,0.8,0.7,3.9,0.8,4.3c0.1,2.6-2.5,16.8-4.5,23.8l3.1-7.3
			c-1.5,5.8-3.5,11.4-5.9,16.3c1.3-5.1-2,1.1-1.8,2.2c-4.3-1.1-1.2,9.9-0.6,10.9C380.4,216.9,383.1,219.8,383.1,219.8z M381.9,205.2
			c0.1,0.4,0.1,0.4-0.2,0.8c0,0-0.1-0.4-0.4-0.3C381.6,205.6,381.6,205.6,381.9,205.2z"/>
		<path class="st0" d="M766.7,197l-0.1-0.4c-3.2-11.7-16.5,11.2-18.3,13.4c-8.3,13.4-15.5,27.7-22.6,42c-7,14.6-13.5,29.2-20.8,43.9
			c-3.5,7.3-7,14.3-11.3,21c-1.4,2.5-4.6,9.4-7.8,10c-12.6,2.3-12.1-50.1-12.1-58.3c-0.4-14.4-2.7-33.3,4.2-46
			c1.6-3.3,20.3-39,20.3-39c-0.8-0.2-3,3.9-4.4,6.4c0.1,0.4-0.2,0.8-0.2,0.8c-0.2,0.8-0.5,1.2-0.5,1.2c-0.1-0.4,0.2-0.8,0.5-1.2
			l0.2-0.8l11.6-23.6l0.8-1.6l2.1-4.5c0.4,0.3,0.2,1.1,0,1.9l2.6-4.2L718,144c5-10.9,9.6-22.5,13.9-33.7
			c6.7-18.3,15.6-44.4,4.8-63.2c-8.1-13.7-28.4-13-40.7-5.5c-9,5.4-15.9,14.4-21.3,23.6c-2.7,5.3-5.5,10.7-7.7,16.6
			c-0.8,1.6-3.5,13.1-4.3,15.3L663,97c-1.3,5.3-2.8,9-3.5,13.2c0.2-3,1-8.9,2.2-10.2c-2.5,2.7-3.1,13.6-3.6,14.8
			c-8.2,32.3-14.5,64.7-17.3,97.8c-11.7-9.4-30.6-25.5-46.3-15.6c-10.2,6.5-17.1,18.2-21.9,29.8c-0.5,0.5-1,1.2-1.6,2
			c-4,6.3-5.6,15.9-8.4,23.1c-4.2,11.5-8.5,22.7-13.1,33.9c-8.7,21.6-17.2,43.6-28.7,63.9c-4.7,8.7-14.3,29.3-26.8,30.1
			c-9.2,0.2-12.1-15.2-13.3-22c-1.1-5.7-1.7-11.6-2-17.1c-0.2-3.3,0.7-14.6-1.7-17.1l-0.9,11.3c-0.4-4.4-0.6-9.2-0.3-13.7
			c-0.5-0.7,0.9-11.3,1-14.7c0.5-7.5,1-15,1.8-22.6c0.5-7.5,1-14.7,1.9-21.9c0.6-6.8,2.5-10.5,5.6-16.2
			c12.5-23.1,23.2-47.7,32.8-72.1c3.5-9.2,5.4-16.9,10.3-24.9c7.3-11,11.2-26.2,14.9-38.7c6.3-20.4,13.7-48.5,8.7-70.2l-0.3-1.8
			l-0.8-0.2C547,24.3,530.8,10.2,516,18.1c-7.8,4-12.4,13.8-16.3,20.8l-6.3,12.7c-1.4,2.5-3,8.3-4.2,11.5l0.3-0.4l-7.9,21.8l1.8-6.6
			c-1.9,0-6.9,16.9-7.7,18.8c-2.7,7.5-5,15-7,22.4c-4.6,15.7-9,31.7-10.9,48c-2.2,16.4-5.2,32.5-7.7,48.9
			c-1.4,8.8-2.7,17.9-3.7,26.6c-0.4,3.5-1.3,8-1.9,12.6c-4.4,6.7-14.9,28.1-13.4,29.5c1.1-0.2,1.8-0.3,2.4-1.2
			c-3.9,7-12,15.6-17.8,22.2c-3.4,4-11.4,14.7-17.7,12.9c-13.3-3.9,3.6-51.5,2.4-51.6c-1.1-0.2-6.4,21.6-7.4,26.6
			c2-13.4,5.4-27,10.2-39.3c-0.2,1.1-0.9,3.1-0.2,3c0.8,0.2,4.8-8.3,3.6-8.8c-0.4,0.1-1.1,0.2-1.4,0.6c0.9-1.3,2.6-2,2.2-4.1
			c-0.7-3.6-9.6-5.7-12.6-6.2c-7.3-1.6-14.3-1.1-19,3.5c-6.4,5.6-6.2,14.5-7.7,22.6c-0.2,1.7-1.5,16.8-1.5,24.5
			c-6.9,11.1-13.8,22.6-22.5,32.6c-5,5.4-7,8.3-8.2-0.3c-1-7.6,0.4-16,1.3-23.2c0.4-3.8,5.1-18.7,2.5-20.9c-0.4-0.3-0.9,0.9-1.5,1.8
			c3.2-11,12.2-30.4-4.8-32.1c-19.2-1.7-24.9,19.8-30.7,33.1c-5.6,12.2-10.8,23.9-17.7,35.1c-5.1,8.7-12.5,24.9-22.4,29.7
			c-9.1,5-5.5-12-5.1-17.6c0.6-3.1,7.4-38.8,8.1-38.6c-0.7,0.1-1.4,0.6-1.9,1.8c2.4-9.3,5.1-18.7,8.3-27.9c-0.7,2.4-1.1,6.1-1.1,6.1
			c1.9,0,7.3-19.1,6.5-19c-0.7,0.5-1.2,1.3-1.8,2.5c2-5.6,5.1-8.7-2.3-12.6c-7.4-3.8-19.1-2.8-24.5,4.1c-6.7,7.9-9.6,20.3-11.9,30
			c-1.6,5.5-5.4,9.1-6.8,15.4c-3,12-3.8,23.7-4.6,35.7c-0.8,11.7-0.5,23.5,3.4,34.6c2,4.8,4.8,10.2,9.5,13.1
			c1.2,0.5,12.3,2.6,11.2,0.2c-0.7,0.1-1.4,0.3-1.9,0c3.9-0.7,7.6-3.2,10.8-6.1c0.4,0.3-2.5,2.3-2.5,2.7c4.4,4,26.7-28.6,28.6-32.3
			c6.9-13.1,13.8-25.9,21.1-38.7c-2.4,13.4-7.1,32.1,2.9,44.4c5.6,6.4,14.6,8.8,22.4,6.7c16.7-4.2,28.4-25.2,36.8-38.3
			c0.1-0.1,0.1-0.2,0.2-0.3c0.2,0.6,0.3,1,0.4,1.3c2.6,6.2,8.5,9.9,13.4,14.6c2.7,2.8,5.4,5.3,9.1,6.9c4.9,2.4,1.5-0.2,4.5,0.3
			l-0.7,0.1c0,2,14.4,3.7,17.2,2.8c12-5.2,18.2-22.1,23.6-33.1c3.5-6.6,6.6-13,9.5-19.7c-1.1,19.9-2.9,40.1-0.6,60.1
			c2.4,19.2,7,44.4,24.7,55.6c19.7,12.3,37.2-1.6,48.7-17.4c13.6-19.2,24.1-40.8,33.6-61.8c3.6-8.1,6.7-16.2,9.7-24.4
			c1.4,18.4,9.2,37.3,29.1,37.7c8.9,0.2,15.9-6.6,21.8-12.5c10.6-11.2,20.1-23.7,28.9-36.5c1.7,19.4,3,48.8,21.2,61
			c22.6,15.9,36.8-13.8,45.7-30.3c11.3-21.4,19-44.3,30.4-64.9c5.6-9.9,10.8-19.8,16.9-29.1C759.6,215,770.3,205.6,766.7,197z
			 M479.9,110c1.8-8.5,4.1-16.3,6.6-24.6c2.3-7.5,7.8-14.4,10.2-21.5c-4.8,16.5-11.6,31.8-16.9,47.6
			C479.7,111.2,479.6,110.5,479.9,110z M502.6,108.5c4-18.5,8.3-37.5,15.4-55.5c1.8-4.4,13.6-28.8,17.1-9.8l0.1,0.4
			c1.7,20.5-6.4,43.8-11.9,62.7L513.2,137c-3.4,9.5-10.2,21.9-11.3,31.8c1.1-6.1,6-15.6,8.3-21.5c3.7-10,6.7-19.8,10.1-29.7
			c5.4-17.3,11.3-35.5,14.3-53.8c-7.3,51.1-29.3,101.5-48,149C491.1,179.2,495.2,142.9,502.6,108.5z M338.1,259.6
			c-1.4,8.4-3.7,16.3-4.8,24.3c-0.3,2.3-0.2,5.2-0.9,7.2c0.1,0.4-0.2,0.8-0.5,1.2c0.3-0.4,0.2-0.8,0.2-1.1
			C327.5,282.7,336.1,269.2,338.1,259.6z M259.3,309.6c-2.5,14.9-4.3,33.1-3,36.2C252.2,335.8,257.2,320,259.3,309.6z M305.9,300.3
			c-0.3-1.4-0.1-2.6,0.8-3.5C306.2,298.1,306,299.2,305.9,300.3z M392.3,306.8l-0.5,2.3l0.3-3c0.3-0.4,0-0.4,0.1,0.3L392.3,306.8z
			 M452.7,283.5c-0.2,0.8-0.2,1.1-0.2,1.1c-2.5,10.8-0.4,24.6-0.6,35.7c0.1,2.6-0.3,4.9,0.2,7.4l-0.2-1.1l0.7,11.7
			c-1.6-13.1-1.4-26.8-2.8-39.6l0.1,0.4c0.5-8.6,0.4-16.4,1.8-16.7C452.4,282,453,283.1,452.7,283.5z M625.5,212.5l-2.4-1
			C623.9,211.7,624.7,211.9,625.5,212.5z M627.1,285.7c-3.8,5.5-8.5,10.6-12.9,16.5l-0.4,0.1l4.8-6.1c7.5-9.5,14.6-19.4,21.3-29.5
			C640.1,271.4,630.4,281.3,627.1,285.7z M639,243.4l0.3,1.4c0.2,1.1,0.2,1.8,0.2,1.8c0.1,8.9,1.6,16.4-3.4,23.6
			c-4.3,6.7-9,13.2-13.8,19.6c-4.5,6-14.7,23.1-23.1,23.9c-10.2,0.8-6.9-23.6-4.4-38.5c-2.8,15.3-7.1,40.3,4.9,38.8
			c3.3-0.2,8.2-4.1,12.1-8.9c-3.6,4.7-9.8,11.4-14.5,10.1c-8.9-2.1-5.5-23.9-5.1-29.9c1.6-17.4,5.6-34.4,10.7-50.9
			c2.6-8.3,6.1-21.5,13.5-23.6l-1.2,1c0.2-0.1,0.4-0.1,0.6-0.2c2.4-1.2,5.2,0.2,7.3,1.3c5.3,2.4,9,8,13.1,12.1
			C640.8,230.1,639.7,236.6,639,243.4z M681.3,156.3c-0.3,0.4-0.1-0.4,0-1.9C681.5,155.1,681.2,155.9,681.3,156.3l0.8-3.9
			c-0.1-0.4,0.1-0.8,0.4-1.2c-0.1-0.4-0.6-1,0.3-1.5l-0.1-0.4c-0.2-1.1-0.3-1.4-0.3-1.4l-0.1-0.4c4.6-24.6,9-49.1,18.1-72.3
			c2.2-6,8.6-24.2,17.7-21.1c3.6,1.2,5.2,5.7,5.8,9c5.4,21.3-7.2,49.9-14.8,69.1c-8.9,22.4-19.3,44.7-30.6,65.7l6.4-9.7l5.5-10.3
			l-14,27l-1.9,3.7l-1.2,1.7c0-2.2,1.4-4.7,2.7-7.5c-0.6,0.8-1.2,1.7-1.4,2.5C676.5,189,678.7,172.7,681.3,156.3z M657.3,148.8
			c1.4-4.3,3-9.8,4-14.8c-0.7,6.1-2.5,12.7-3.3,18.4c-0.6,4.6-1.7,8.8-3.1,13.2C655.6,159.9,655.7,154.3,657.3,148.8z M655,198.9
			c2.2-4.1-0.4-8.5,0.2-13c0.3-2.3,3.2-6.9,3.4-9.9c0.5,2.9-0.3,8.2-1.1,10.2c-0.4,1.9-1,10.6-1.9,11.9
			C655.6,198.4,655.3,198.9,655,198.9z"/>
		<path class="st0" d="M613.2,214c-1.2,1.3-2.1,3-2.4,3C611.5,216.9,612.3,215.3,613.2,214z"/>
		<path class="st0" d="M615.2,211.9c-0.2,0.1-0.3,0.2-0.4,0.4L615.2,211.9z"/>
	</g>
</g>
<g>
	<path class="st0" d="M139.3,680.2l0.1,0.4c0.2,11.5,1.7,21.6,4.1,32.3l1.5,2c0.6,1,1.2,2.7,1.6,4.5c2.4,0.7,5.3,6.5,7.4,7.9
		c3.8,2.6,8,3,12.3,2.6c3.2-0.6,6.4-1.5,9.1-2.8c21-9,35.8-29.2,47.3-47.6c11.2-17.6,20.8-36.5,28.3-56c1-2.4,2.3-11.6,6.4-11.9
		c4.4-0.4,4.9,12.5,5,15c2,37.5-16.8,74.3-39.9,102.3c-8,9.2-18.3,21.9-30.7,24.9c-10.6,2.7-23.2-1.3-32.8-5.1
		c-18.3-6.7-36.1-19-45.6-36.2c-7.1-12.4-6.9-27.3-7.6-41.3c0.2-0.8-2.1-7.4-1-9.5c-0.2,0.8,0.9,6.9,0.9,6.9
		c-0.1-2.6-0.7-5.8-0.4-8.5c-0.6,0.8-0.9-5-1-5.4c-0.2-3.3,0-6.3,0.1-9.7c0.2-7.1,1.2-13.9,2.1-21.2c1.8-14.4,5.1-28.8,6.9-43.6
		c1.6-13.3,5.2-26.2,9.5-39.2c1.2-3.6,10.5-35.7,13.9-35.6c0,0-1.6,5.5-1.2,5.8c2.5-6.8,4.9-13.9,7.7-20.7c-1.2,1.7-2.6,4.2-2.6,4.2
		c0.6-4.9,5.2-12.1,7.4-16.6c1.7-4.8,3.9-9.2,6-14.1c4.8-10.5,10.2-21.2,16.2-31.2c8.4-12.7,20.6-31.2,36.6-34.9
		c28.7-7.1,51.3,20.7,56.1,45l0.1,0.4c2.4,12.9,1.8,28.2-5,39.5c-6.3,10.4-20.1,23.7-32.1,27.4c-2.8,0.9-7.6,2.9-7.7-1.6
		c-0.1-0.4,0.8-1.6,2.1-3l-0.4,0.1c2-1.1,8.6-29.8,11.2-29.9c0,0-2.5,10.5-3.1,13.2c4-12.6,7.6-25.1,10.1-38.2
		c1.2-7.6,3.9-21.1-0.7-28.1c-6-8.5-17.6,1-22.8,5.3L210,432l1.7-1c-1.6,1.4-2.8,2.7-3.7,4c1.5-1.8,3.4-3.6,5.4-4.7
		c4.1-4.1,14-12.9,20.5-9.7c5,2.8,4.9,8.4,4,13.7c0.3-6.7-1-13.5-7.7-13.4s-10.7,6.4-15.5,8.8c-14.5,13.8-24.2,33.8-32.1,51.9
		c-9,19.8-16.3,40.8-22.1,61.9c-6.3,22.3-10,44.9-13.9,67.8c-3.8,21.8-7.5,44-7.6,66l0.3,1.8c0.1,0.4,0.1,0.4-0.2,0.8l0.3-0.4
		C139.6,679.8,139.3,679.8,139.3,680.2z M186,457.2c-16.4,26-28.7,56.1-36.5,86.1c-6.6,24.9-11.3,49.6-14.5,75
		c2.6-16.4,6.7-32.4,10.9-48c7.4-26.6,14.9-52.4,24.7-78C174.5,481.5,179.6,468.7,186,457.2z M207.7,435.4
		c-7.7,8.8-13.2,19.1-18.4,29.3c3.3-6.2,6.9-12.8,11-18.7C202.4,443.1,205,438.9,207.7,435.4z M237.4,443.7c-0.5-2.5,0.4-6,0.5-9.4
		c0.2,2.9-0.1,5.6-0.4,7.9C237.5,442.6,237.6,442.9,237.4,443.7z"/>
	<g>
		<path class="st0" d="M298.7,694.8l1.9,4.5l-1.3-3.5C299.1,695.4,298.9,695.1,298.7,694.8z"/>
		<path class="st0" d="M306.4,706.4c0.1,0.1,0.3,0.1,0.4,0.2C306.7,706.4,306.6,706.3,306.4,706.4z"/>
		<path class="st0" d="M303.1,702.2c-0.1-0.4-0.5-0.7-0.5-0.7C302.6,701.9,303,701.8,303.1,702.2z"/>
		<path class="st0" d="M293.7,584c2.1,1.1,5.4,0.9,8.7,0.6c-2.9,0.2-5.6-0.1-7.6-1.2c0,0-2.5-1.4-3-2.1
			C291.8,582.1,292.9,583.8,293.7,584z"/>
		<path class="st0" d="M291.6,581.1l0.3-0.4C291.6,580.7,291.6,581.1,291.6,581.1z"/>
		<path class="st0" d="M297.9,690.5c0,0-0.4,0.2-0.3,0.4C297.5,690.7,297.9,690.5,297.9,690.5z"/>
		<path class="st0" d="M731,403.4c0.7-2.4,1.6-5.5,2.1-8.6L731,403.4z"/>
		<path class="st0" d="M739.4,374c-1.7,0.7-3.5,9.2-5.6,18.1L739.4,374z"/>
		<path class="st0" d="M771.8,399.3c-14.2,3.3-28.4,5.9-42.3,9.2c-0.1-0.4,0.5-1.9,1.2-4.3c-1,2.8-1.7,4.4-2.8,4.6
			c6.8-23.9,14.3-47.9,24.2-70.5c-0.2,0.8-4,10.7-3.6,10.7c1.1,0.2,11.1-20.6,11-23.2c-0.3-1.4-2.8,2.7-2.9,2.4c1.8-2.5,5-5,5.6-8.1
			c1.2-7.6-6.9-9.5-12.5-9.6c-11.5-0.1-23.8,3.6-29.3,14.3c-5.3,9.5-8.6,20.1-11.1,30.6c-1.4,4.7-4,6.3-6.2,10.8
			c-3.2,6.9-4.7,14.6-6.7,22c-1.8,6.6-3.4,13.6-4.8,20.5c-0.8,3.5-0.4,6-3.4,7.7c-3,2-9.3,2.1-12.8,3.1c-10.9,3.5-21.9,5.3-32.9,8
			c2.9-9.1,5.4-18.3,7.4-27.4c3.8-17.8,5.2-68.9-26.8-59.3c-16.2,4.8-25.8,31.1-32.2,44.9c-8.7,19.4-15.7,40-21.7,60
			c-11.2,36.2-21.6,72.6-25.1,110c-0.1,1-0.2,1.9-0.3,2.9c-1.5,3.8-3,7.6-4.5,11.4c-7,16.5-14,33-22.6,49
			c-28.6,52.4-17.6-33.5-20.4-32.3c-1.4,0.6-1.5,6.2-1.6,7.3c0.5-13.4,3.1-29.9,7.6-43.7c2.5-8.6,6-15.9-2.8-23.2
			c-16.2-13.7-29,3.8-35.6,16.5c-6.1-13-16.9-31.8-34.5-28.6c-7.9,1.4-11.8,6.2-16.4,11.9c-2.8,2.7-5.3,3.6-7.7,6.6
			c-4.1,4.1-6.4,9.7-8.8,14.6c-5.2,11.8-8.9,25-11.1,38.2L374.3,609l-14.7,29l-8,15.2c-0.8,1.6-6.9,13.1-6.2,13
			c0.6-0.8,1.7-1,2.5-2.3c-4.3,6.7-20.8,28.3-25.2,24.6c-3.5-3.1,1.6-19.6,2-23.4c2-11.1,3.7-22.6,6.1-33.4
			c2.8-11.3,6.2-22.7,8.6-33.9c2.3-11.9-4.9-14.7-15.8-15.3c-4.9-0.2-10.6,0.8-16.1,1.1c0.1,0.4,0.4,0.3,0.4,0.3
			c4.8-0.1,11.7-1,17.8-0.3c-9.1-0.9-19.6,2.1-26.8,1.6c-4.9-0.2-7.7,0.3-8-5.2c-0.6-7.3,5.6-16.2,6.8-23.5c0.1,0.4-1.3,7.3-0.9,7.2
			c1.9,0.4,3-10.2,2.7-11.6c-0.7-1.7-6-6.3-5.9-4.1l0.9,0.9c-19.4-8.7-35.4,19.5-28.6,36.4c1.2,2.4,2.9,3.6,4.5,6.2
			c1.1,2,0.9,4.7,3.5,7.1c9.2,8,23,5.8,33.3,1.7c-1.3,2.8-13,46.5-11.9,46.7l-0.9,9.4c-0.4-0.3,0.5-3.4-0.2-3.3
			c-2.6,0.1-3.8,21.8-3.8,23.7c0.1,8.9,1.9,16.4,6.9,23.6c3.1,4.6,6.4,8.5,11.6,10.5c4.8,2.1,10.5,2.5,15.3,0.5c1.7-1,7.6-7,5.9-6.3
			l2.3-1.5c-0.3,0.4-0.6,0.9-0.5,1.2c1.1,0.2,15.2-16.1,17.1-18c9.7-11.8,16.9-25.4,23.3-38.8c3.6-7.8,7.4-15.7,11-23.5
			c0.8,7.1,2.4,14.2,5.5,20.5c2.8,5.4,11.7,17.2,19.7,14.6c0.4-0.1-0.4-0.3-1.6-0.8c5.3,0.5,10.9-1.3,14.7-4.9
			c0.5,0.7-3.5,3.2-3.5,3.2c5.1,5.4,28-35.6,29.6-39.2c3.5-7.3,5.5-14.7,8.5-22.3c2.3-5.6,6.2-13,8.8-19c0.1,2.6,0.7,5.8,0.7,5.8
			c-2.7,21.6-4.7,45,7.8,64.6c5.9,10,17.5,18.3,29.3,13.9c10.4-3.8,17.5-15.8,22.5-25.3c4.5-7.8,8.3-16,11.8-24.5
			c-2.4,21.2-3.7,42.4-0.9,64c1.9,16.7,6.4,41.1,23.2,49.6c19.2,9.8,34.9-3.8,42.1-21.1c8.3-19.7,8.7-43.9,10.7-65
			c0.5-5.3,0.7-10.5,0.8-15.7c-0.2-2.9-2-14.8-0.2-17c1.5-2.1,9.4-3.2,11.5-4.3c16.9-8.1,33.2-25.6,40.3-43.4
			c-0.1,2.5-0.2,4.9-0.1,7.4c0,11.9-0.9,23.5-1.4,35.1c-0.4,6-0.8,11.7-0.5,17.5c-0.2,3-0.3,6.4,0.2,9.2c0.1,0.7,1.2,5.3,1.7,3.8
			l0.9,7.3l-1-5.4c-2.5,3.1,2.3,14,3.1,16.1c2.8,6.9,7.4,12.7,14.6,15.9c6.5,3.3,16.2,5.6,22.4,1.1c8.2-6,13.9-17.4,18.3-25.6
			c9.9-17,18.5-34.6,27.2-52.1c7.8-16.3,16-32.2,22.2-49c3.4-9.5,11.7-19.2,13.1-29.5c0.9-5-1.2-10.5-6.7-8.4
			c-4.5,1.9-8.6,15.7-10.8,19.8c-10,18.5-19.1,37.3-29.1,55.8l-16.2,29.3c-2.6,4.2-5.1,8.7-8,13c-1.1,2.1-8.8,10.9-8,13
			c0.1,0.7,3.5-3.2,4.7-4.6c-1.4,2.5-3.2,4.7-4.7,6.8c0.3-0.4-6.5,5.3-7.7,4.7c-7.3-1.6-5.1-23.6-4.9-28.8
			c1.1-30.3,5.4-61.5,10-91.3c2.9-16.5,6-32.3,9.7-48.5c1.8-8.1,3.6-16.6,5.8-24.8l2.5-14.6l-2.5,8.6c1.3-6.9,3.1-17.3,5.2-18
			l-0.7,2.4c0.5-1.2,1.1-2.1,1.8-2.5c3.5-3.2,14-2.6,18.7-3.4c3.2-0.6,7.2-1,10.3-2.6c2-1.1,1.1-2.1,3.5-3.2
			c4.2-1.5,9.7,0.4,14.1-1.8c4.1-1.9,8.8-6.8,7.8-11.8l-0.1-0.4C779.3,393.8,774.7,398.7,771.8,399.3z M336.1,604.8l0.1,0.4
			l-4.6,17.2L336.1,604.8z M306.8,706.6c0.1,0.1,0.1,0.3,0.1,0.4c-2.7-2.5-6.7-8.1-7.2-9.1c-1.9-4.1-3.3-9-3.8-13.4
			c-0.7-3.6-0.3-6.6-0.9-9.9l-0.1-0.4c-0.1-0.4,0.3-0.4,0.2-0.8c0.1,0.4-0.2,0.8-0.2,1.1l0.1,0.4c0.9,4.7,0.7,9.5,2.6,14.4l0.3,1.8
			c0-0.1-0.8-0.1-0.8-0.2c0,0.2,0.8,0.3,0.9,0.6l0.1,0.4l1.3,3.9c1.3,2.1,3.3,5.2,5.5,8.3l-0.4-0.3c0.1,0.4,0.9,0.6,1,0.9l-0.1-0.4
			c1.5,2.7,6,4.8,10.2,5.6C312.4,709.4,309.3,708.2,306.8,706.6z M304.9,621.3l-3.9,17c-2,9.3-4.3,19-5.1,28.8
			c0.5-11.2,2.9-22.4,5.4-33.3c1.3-6.9,3.1-13.6,5.2-20.2c0.5-1.2,3.2-15.1,5.6-16.2C310.5,598.8,306.1,617.7,304.9,621.3z
			 M454.8,564.5c-1.3,2.8-2.7,5.7-3.6,8.5l-6.9,15c-4.5,10.1-9.3,19.9-14.7,29.4c-1.3,2.8-7.9,15.5-11.7,15.1
			c-5.7-0.8-3.4-20.5-3.2-23.5c0.2-5.2,9.1-64,13.9-66c-6.5,0.8-15.5,69.6-15.5,75.2c-0.3-18.1,3-36.5,7.2-54
			c2.4-9,7.4-32.5,19.2-34.7c6.5-1.2,10.3,11.8,12.2,15.9c-0.5-0.7-5.6-10.5-5.9-10c-1.5,1.8,9.3,20.2,9.8,23.1
			C456.1,561.3,456.1,561.3,454.8,564.5z M456.9,559.3l-0.7-3.6C457.5,557,457.7,558.1,456.9,559.3z M466.3,580.6
			c0,0,0.2-5.2,0.3-6.4l1.3-2.8L466.3,580.6z M579.1,519.9c-0.1-0.4,0.6-0.8,0.5-1.2l0.1,0.4c0.1-4.8,1.1-6.5,0.8-6.1
			c0,0.3-0.4,1.3-0.6,2.2l0.3-2.1c7.1-32.1,14.5-64.3,24.4-95.4c5-15.4,9.5-31.1,16.9-45.4c1.9-3.7,4.9-11.7,9.8-11.1
			c11.1,1.1,0.5,46.1-6.5,70.7c-3.9,1.1-7.7,2.4-11.3,4.5c-1.4,0.6-8.9,3.9-9.5,5.1c-1.4,4.3,7.3,3.1,9.1,3.2c2.5-0.1,5.2-0.3,8-0.5
			c-0.4,1.1-0.7,2-0.9,2.5c-11.9,32.2-27.6,63.3-45.5,92.9L579.1,519.9z M553.3,695.3c-4.6-15.1-2.3-33-0.2-47.5
			c0.5-5.3,1-10.6,2-15.6c-1.1,8.4-1.6,17.4-1.6,25.9C553.4,665.2,551,682.7,553.3,695.3z M626.1,582.5c-3.9,2.9-12,7.4-15,2.8
			c-2-3-1.9-10.8-3-14.3c-1.6-4.5-3.2-9.4-6.1-13.3c-7.9-8.9-13.5-0.9-14.2,7.8c-0.3,8.6,1.4,17.9,4.7,25.5c1.5,4.2,5.9,7.8,7.4,12
			c1.4,3.5,0.6,9.2,0.5,12.9c-0.3,16.7-2.5,33.1-6.2,49.4c-2.3,11.6-15.8,65.6-34.1,42.6l-0.4-0.3l1.6,0.8
			c-5.9-13.8-4.1-32.3-3.4-46.9c1.3-21.4,3.8-42.2,7-63.2c0.5-5.3,1.4-10.6,2.2-16.4c1.2-5.8,1.6-7.3,4.5-12
			c3.8-5.5,7.2-11.3,10.7-16.8c10.7-18.3,21.1-36.5,30.7-55c9.2-17.8,17.6-36.6,24.5-55.8c7.2-1.1,14.2-2.7,20.3-5.1
			c9-3.5,18.8-4.6,28.7-7.1c-3.1,11.7-4.9,23.9-6.7,36.1l-2,13.4c-0.7,4.2-4,12.6-3.2,16.9c0.1,0.7,0.9-1.3,1.3-3.2
			c-0.8,5.7-2,11.5-2.4,17.1c-0.1-0.4,0.2-4.9-0.1-4.8c-1.3,0.2-3.3,12.1-4.4,19.6c-3.3,5.7-6.1,12.4-6.8,13.6
			C652.8,554.6,642.1,572.5,626.1,582.5z M693,643.4l1.2,0.5C693.8,643.9,693.4,643.7,693,643.4z M706.5,498.4
			c1.6-7.2,2.8-14.6,4.6-22.2c-0.1,0.4,0,0.7,0,1C709.9,484.4,708.2,491.4,706.5,498.4z M716.6,432c-9.9,37.1-15.4,75.9-21.8,113.8
			c-3.1,17.3-5.8,35.2-6.7,52.8l-0.5,7.2c0.1-13.4,0.7-26.5,2-39.7c2.8-29.1,7.9-58.2,14.9-86.6c11.9-48.6,21-99.9,42.3-145.8
			C732.5,364.9,725.4,398.9,716.6,432z"/>
	</g>
</g>
<g>
	<path class="st0" d="M408.1,447.1c-2.9,2.6-5.4,4.7-8.7,6.8c-4,2.3-2.1,3-2,7.4c0.2,8.3-2,16.1-4.8,23.9c-3.5,9.3-5.8,17-12.7,25.1
		c-4.9,5.9-11.3,11.2-18.5,14.9c-8.7,4.2-17.8,4.3-27.5,4.5c-2.9,0-8.5,0.8-11.4-0.8c-17.6-4.4-9.7-38.8-6.4-50.4
		c4.9-17.4,13.3-34.9,27.3-46.6c-4.5-1.8-8.9-4.4-11.9-8c-7.4-9.1-6.1-17.5-4-27.6c1.7-7.9,8.8-14.7,14.1-20.4
		c5.2-5.7,12.9-12.3,19.7-15.6c15.4-7.3,34.5,7,32.4,23.7c-0.7,6.2-5.2,17.4-10.3,21c-2.8,2.1-9.3,3.8-10.2-1.3
		c-0.6-2,1.2-3.6,2.2-5.4c2.4-3.9,12.6-22.5,3.4-24.2c-8.1-1.4-20,13.9-24.5,19.4c-3.6,4.8-14.5,19.7-8.6,25.9
		c6.8,7.1,21-7,29.2-3.5c5.1,2.2,7.5,10.9,3.8,14.8c-3.5,3.5-9.8,2.1-14,4.9c-4.2,2.9-8,6.4-11.5,10c-1.7,1.9-3,3.4-3.7,5.4
		c-0.8,1.5-1,3.3-2,5.1c-2.6,5.7-5.3,11.2-7.7,16.9c-3.8,9.3-6.5,20.3-7.3,30.4c-0.5,4.5,0.2,14.1,5.7,15.5
		c6.3,1.7,16.1-7.7,20.1-11.5c13-13.1,21.4-30.6,28.7-47.7c-4.8,4-12.2,4.9-17.8,7.2c-3.9,1.5-6.1,3.7-7.7-1.7
		c-1.3-4.5,0.6-6.7,2.6-10.2c0-0.3-1-1.4-0.4-2.3c0.6-0.9,1.9-1.1,2.8-1.8c2.2-0.9,4.7-0.3,6.6-1c1.2-0.5,1.7-2.1,3.9-3.1
		c2.9-1.3,6.7-2,9.6-3.1c4.7-1.4,7.6-2.7,12.6-3.9c3.2-0.9,7-1.8,10.2-2.9c1.7-0.6,7.5-4.8,9.7-1.3
		C421.8,439.3,409.4,445.8,408.1,447.1z M323.5,472.8c2.2-5.4,3.7-11.2,6.4-16.4c-1.9,2.4-3.7,5.4-5.3,8.3
		c-3.6,7.7-5.8,14.2-7.4,22.3c-2.1,9.8-4.3,25.4,0.8,35.7c-2.6-6.9-2.8-16.8-2.4-21.6C317,491.8,320.1,481.8,323.5,472.8z"/>
</g>
<g>
	<path class="st0" d="M414.2,717.3c3.7-0.4,7.3-0.6,10.7,0.9c2.3,1,7.2,4.2,4.6,7.1c-1.8,2-6.5,0-9.1,0.2c-4.3,0.3-8.2,1-12.4,1.8
		c-8.4,1.1-16.4,2-24.5,4.7c-7.9,2.6-15.7,5.8-23.5,8.9l-11.3,4.7c-3.5,1.6-8.5,3-11.4,5.7c-2.3,1.9-2.9,3.6-6.3,3.5
		c-2.9-0.2-5.5-2.4-5.8-5.4c-0.2-3.6,2.4-5.2,5-6.9c3.4-2.5,6.7-5.3,9.8-8c12.5-10,28.3-18.1,43.4-23.3c16.2-5.8,31.6-13,48.5-17.5
		c16.9-4.5,33.8-9.1,51-12.9c4.1-1,7.3-1.8,11.1-3.7c3.3-1.6,6.4,1.2,8.2,4.2c1.1,2.2,3.4,6.8,2.4,9.1c-1.2,4-6.3,2.3-9.2,2.2
		c-9.5-0.7-19.9,2.4-28.9,4.6c-9,1.9-17.8,3.5-26.4,6c-9.1,2.9-18.2,5.2-27.2,8.6l-13.4,5.1c-2.9,1.2-9.8,2.5-10.6,6
		C397.4,721.8,405.7,718.9,414.2,717.3z"/>
</g>
</svg>
