<?xml version="1.0" encoding="utf-8"?>
<!-- Generator: Adobe Illustrator 19.2.0, SVG Export Plug-In . SVG Version: 6.00 Build 0)  -->
<svg version="1.1" xmlns="http://www.w3.org/2000/svg" xmlns:xlink="http://www.w3.org/1999/xlink" x="0px" y="0px"
	 viewBox="0 0 527.6 543.8" style="enable-background:new 0 0 527.6 543.8;" xml:space="preserve">
<style type="text/css">
	.st0{fill:#FFFFFF;}
</style>
<g id="line">
	<g>
		<path class="st0" d="M214.3,527.4c2.5,0.2,4.8,0.5,6.9,1.9c1.4,0.9,4.2,3.6,2.2,5.2c-1.4,1.1-4.2-0.8-5.9-0.9
			c-2.8-0.3-5.5-0.3-8.3-0.3c-5.6-0.3-10.9-0.6-16.6,0.2c-5.5,0.8-10.9,1.9-16.4,3l-8,1.7c-2.5,0.6-5.9,0.9-8.1,2.3
			c-1.7,0.9-2.3,2-4.5,1.6c-1.9-0.5-3.3-2.2-3.1-4.2c0.3-2.3,2.2-3.1,4.1-3.9c2.5-1.3,5-2.7,7.3-4.1c9.4-5,20.6-8.4,31.1-10
			c11.3-1.9,22.2-4.7,33.8-5.6c11.6-0.9,23.1-1.9,34.9-2.3c2.8-0.2,5-0.3,7.7-1.1c2.3-0.6,4.1,1.6,4.8,3.8c0.5,1.6,1.4,4.8,0.5,6.3
			c-1.3,2.5-4.4,0.8-6.3,0.3c-6.1-1.6-13.3-0.8-19.4-0.5c-6.1,0.2-12,0.2-18,0.8c-6.3,0.8-12.5,1.3-18.8,2.3l-9.4,1.7
			c-2,0.5-6.7,0.5-7.7,2.7C202.7,528.3,208.5,527.4,214.3,527.4z"/>
	</g>
</g>
<g id="t">
	<path class="st0" d="M512.3,353.5c0.2,3.4-3.9,6.1-6.8,6.8c-3.2,1-6.8-1-9.7-0.5c-1.7,0.5-1.2,1.2-2.7,1.7c-2.2,0.7-4.8,0.5-7,0.5
		c-3.2,0-9.9-1.7-12.6,0c-0.5,0.2-1,0.7-1.5,1.5l0.7-1.5c-1.5,0.2-3.9,6.8-5.6,11.1l2.7-5.3l-3.4,9.2c-2.4,5.1-4.6,10.4-6.8,15.5
		c-4.4,10.2-8.2,20.1-12.1,30.5c-6.5,18.9-13.1,38.8-17.4,58.4c-0.7,3.4-4.8,17.4-0.2,19.4c0.7,0.5,5.8-2.4,5.6-2.2
		c1.2-1.2,2.7-2.4,3.9-3.9c-1,0.7-3.6,2.9-3.6,2.4c-0.2-1.5,5.8-6.3,6.8-7.5c2.4-2.4,4.6-5.1,6.8-7.5l14.1-17.2
		c8.7-10.9,17-22.1,25.7-33c1.9-2.4,6.3-10.9,9.5-11.6c3.9-0.7,4.6,3.2,3.4,6.3c-2.2,6.5-8.7,11.9-12.1,17.7
		c-6.1,10.2-13.3,19.6-20.4,29.3c-7.8,10.4-15.5,20.8-24,30.8c-3.9,4.8-9,11.6-15,14.5c-4.6,2.2-10.7-0.5-14.5-3.4
		c-4.4-2.9-6.8-7.3-7.8-12.1c-0.2-1.5-1.7-9.2-0.2-10.9v3.6l0.5-4.8c-0.5,1-0.5-2.2-0.5-2.7c0-1.9,0.5-4.1,1-6.1
		c0.5-3.9,1.5-7.5,2.4-11.4c1.7-7.5,3.6-15,5.1-22.8c1.2-7.8,3.9-15,6.3-22.3c0.5-1.2,5.3-16,6.5-16c0.2,0-0.5,2.9-0.5,3.2
		c1-3.6,2.4-7.3,3.6-10.9c-0.5,1.2-1.2,2.4-1.2,1.9c0-2.9,3.2-8,4.1-10.7l2.9-8.5c2.7-7.8,5.3-15.5,8.7-22.8
		c-6.8,0.5-13.3,0-19.6,1.2c-9.2,1.7-20.8,0.7-30-0.5c-1.2-0.2-7-0.5-5.6-3.2c0.5-0.7,5.8-1.9,6.8-2.2c4.6-1.7,9.5-1.7,14.3-1.9
		c9.5-1,18.7-0.5,28.1-1.7c2.4-0.2,6.5,0.5,8.7-0.5c2.2-0.7,2.2-2.4,3.2-4.6c1.7-4.4,3.6-8.7,5.6-12.8c2.2-4.6,4.1-9.5,7-13.6
		c1.9-2.7,3.9-3.4,5.3-6.3c2.9-6.5,6.3-13.1,10.9-18.7c4.8-6.3,13.3-7.3,20.8-5.8c3.6,0.7,8.7,2.9,7,7.8c-0.7,1.9-3.1,3.2-4.6,4.6
		c0,0.2,2.2-2.2,2.2-1.2c-0.2,1.7-9.2,14.1-9.9,13.8c-0.2,0,3.4-6.1,3.6-6.5c-9.2,13.6-17,28.4-24.2,43.1c0.7,0,1.5-1,2.4-2.7
		c-0.7,1.5-1.2,2.4-1.2,2.7c9.5-0.5,19.1-0.5,28.8-1c1.9,0,5.6-2.7,5.8,0.7V353.5z M425.5,502.6c0.2,0.2,0.5,0.5,0.7,0.5
		L425.5,502.6z M497.7,306.8c-19.4,27.4-31.5,59.9-45.1,90.1c-8,17.7-14.8,36.1-20.1,54.8c-2.4,8.5-4.4,17-6.1,25.7l1.2-4.6
		c2.7-11.4,6.5-22.8,10.7-33.7c8.7-24,17-48.7,27.9-71.7C475.9,346.7,484.6,325.4,497.7,306.8z M457.5,395.2
		c-2.2,4.8-3.9,9.7-5.8,14.3c1.9-4.4,3.9-8.7,5.6-13.3C457.3,395.9,457.3,395.7,457.5,395.2z M481.5,345l-2.4,5.3
		C479.8,348.9,480.8,347,481.5,345z M488,332.2l-5.8,11.1C484.6,337.8,486.8,332.4,488,332.2z"/>
</g>
<g id="f">
	<path class="st0" d="M418,442.7c-6.5,11.1-19.9,21.1-32.2,24.5c-1.5,0.5-6.8,0.2-8,1.5c-1.5,1.2-1.7,9.2-1.9,11.1
		c-0.7,3.4-1.5,6.8-2.4,10.2c-3.9,13.6-7,29.3-14.8,41.2c-6.8,10.4-18.7,17.4-30,8.7c-9.9-7.5-9.9-24-9.2-35.1
		c1.5-27.1,12.1-51.9,19.4-77.3c6.8-24,17.9-46.5,29.6-68.8c6.3-12.4,13.3-25,21.3-36.6c5.8-8.2,15.3-24.2,26.4-25.4
		c22.1-2.4,15,30.8,10.4,41.9c-9,21.1-21.8,41.4-35.9,59.6c-8.5,10.9-17.4,21.6-26.7,32.2c-2.9,3.1-5.8,6.5-9,9.7
		c-2.4,2.7-2.9,3.6-4.4,7.3c-1.2,3.6-2.4,7-3.4,10.4c-4.6,13.3-8.7,26.7-12.1,40.5c-2.2,9.5-5.6,21.3-3.4,31l-1-0.7l0.2,0.2
		c9.2,17.2,24.5-16.5,27.4-23.7c4.4-10.2,7.8-20.6,9.9-31.5c0.5-2.4,1.7-6.1,1.2-8.5c-0.5-2.9-2.9-5.8-3.4-8.7
		c-1.2-5.3-1.2-11.6,0-17.2c1.5-5.6,6.1-10.2,10.2-3.4c1.5,2.9,1.9,6.3,2.4,9.5c0.2,2.4-0.7,7.5,0.2,9.7c1.5,3.4,7.3,1.5,10.2,0
		c11.6-4.6,20.8-15,28.8-24.2c1.2-1.5,11.4-17.2,13.3-11.1v0.2C433.5,428.2,421.9,436.6,418,442.7z M328.1,519.8
		c0-8.5,3.6-19.6,4.6-24.2c1-5.6,2.4-11.4,4.1-16.7c-1.2,3.2-2.2,6.5-3.2,9.9C330.5,498,326.9,509.3,328.1,519.8z M360.6,420.7
		c15.3-17.2,29.3-35.6,41-55.2c3.4-5.6,26.7-51.9,17.4-54.5c-3.2-1-6.1,3.9-7.8,6.1c-6.5,8.5-11.4,18.2-16.5,27.6
		c-10.2,19.1-18.9,39.3-27.4,59.4c0.2-0.2,0,0.7-1.5,3.9v-0.2c0,0.2-0.2,0.5-0.2,0.7L360.6,420.7z M367.4,403.9l-0.7,1.9
		C366.9,405.1,367.4,404.2,367.4,403.9z"/>
</g>
<g id="a">
	<path class="st0" d="M342.2,436.6c-3.2,7.3-6.8,13.8-10.7,20.4c-4.6,7.3-9.2,14.3-14.5,20.6c-4.4,5.6-10.4,12.6-17.7,13.8
		c-8.2,1.5-14.8-5.3-17.4-12.6c-5.8-14.3-1.7-29.3,2.7-43.1c0,0,0-2.2,0.2-3.9c-2.4,3.6-5.8,8-8,11.4c-2.9,4.6-5.1,9.2-8.2,13.6
		c-1.5,2.2-21.3,26.2-24,22.1c0,0,2.9-1.2,2.7-1.7c-2.9,1.9-6.8,2.4-10.2,1.5c0.7,0.5,1.2,0.7,1,0.7c-5.6,0.7-9.9-8-11.1-11.9
		c-1.9-6.8-1.5-14.3-0.2-21.1c2.7-14.1,8.5-29.3,16.7-41.4c2.2-2.9,4.4-6.3,7.5-8.5c1.9-1.7,3.6-1.9,5.8-3.4
		c3.6-3.2,6.8-5.8,12.1-5.8c11.9,0,16.7,13.6,19.1,22.8c5.8-7.5,16.2-17.4,25.2-6.5c4.8,5.8,1.7,10.2-1,15.5
		c-4.6,8.5-8.2,18.9-10.2,27.6c0.2-0.7,1-4.4,1.9-4.6c1.9-0.5-15.5,54.3,9.5,23.5c7.5-9.5,14.1-19.4,20.6-29.3
		c2.9-4.6,5.8-9.5,9-14.1c1.5-1.9,5.8-6.5,6.1-1.2C349.4,426.5,344.1,432,342.2,436.6z M280.6,418.7c0-1.9-4.8-15.3-3.6-16.2
		c0.2-0.2,2.4,6.8,2.7,7.3c-0.7-2.9-1.7-11.9-6.1-11.9c-8,0-14.1,14.8-16.7,20.4c-4.8,10.9-9.2,22.5-11.1,34.4
		c0.7-3.6,14.8-47.5,19.1-47.3c-3.4,0.7-16.2,38-17,41.4c-0.5,1.9-4.4,14.5-0.7,15.8c2.4,0.7,8.2-6.8,9.5-8.5
		c4.6-5.6,9-11.4,13.1-17.4l6.3-9c1-1.7,2.2-3.4,3.4-5.1C280.6,420.7,280.6,420.7,280.6,418.7z M281.3,417v2.4
		C282.1,418.7,282.1,418,281.3,417z M287.2,428.7l-1.2,1.7c-0.2,0.7-1,4.1-1,4.1L287.2,428.7z"/>
</g>
<g id="r">
	<path class="st0" d="M240.1,430.8c-1.9,4.1-4.4,8-7,11.9c-5.6,8.2-11.6,16.5-17.4,24.7c-5.8,8-12.1,16-19.9,22.5
		c-1.5,1-12.6,9.9-13.3,9.7c0-0.2,0.2-0.5,0.5-0.7l-1.7,0.7c1.2-0.2-3.4,2.9-4.6,3.4c-3.4,0.7-7-0.2-9.9-2.2
		c-3.1-1.9-4.8-4.8-6.3-8.2c-2.4-5.3-2.7-10.4-1.7-16.2c0.2-1.2,3.6-15.3,5.3-15c0.5,0-0.5,1.9-0.2,2.2l1.7-6.1
		c-0.7-0.2,12.1-27.4,13.3-29.1c-7.3,1.5-16.5,1.2-21.6-5.1c-1.5-1.9-1-3.6-1.5-5.1c-0.7-1.9-1.7-2.9-2.2-4.6
		c-2.4-11.9,11.4-28.4,23-20.4l-0.5-0.7c0.2-1.5,3.2,2.2,3.4,3.4c0,1-1.9,7.8-3.2,7.3c-0.2,0,1.5-4.4,1.5-4.6
		c-1.7,4.6-6.8,9.7-7.3,14.5c-0.5,3.6,1.5,3.6,4.6,4.4c4.6,1.2,11.9,0.5,17.7,2.2c-3.9-1.2-8.5-1.5-11.6-1.9c0,0-0.2,0-0.2-0.2
		c3.6,0.5,7.5,0.5,10.7,1.2c7,1.7,11.4,4.4,8.5,11.9c-2.9,7-6.5,14.1-9.7,21.1c-2.9,6.8-5.3,14.1-8,21.1c-0.7,2.4-6.1,12.6-4.1,15
		c2.4,2.9,15.8-9.2,19.4-13.1c-0.7,0.7-1.5,0.7-1.9,1.2c-0.5,0,4.8-6.8,5.6-7.8l7-9l13.1-17.2l13.3-17.9c1.2-1.5,7-9.9,8.5-3.6
		C244,423.8,241.6,427.9,240.1,430.8z M165,496.3c-0.2-0.2-0.5-0.5-0.5-0.7l0.2,0.2c-1.2-2.7-2.4-5.3-2.9-6.8l0.7,3.1l-1-5.1v-0.2
		c-0.2-0.5-0.2-0.7-0.2-0.7s0,0.2,0.2,0.5v-1.2c-0.2-3.4,0-6.5,0.5-9.7v-0.2c-0.5,2.2-0.7,4.1-0.7,6.5c-0.2,2.9,0,6.3,0.7,9.2
		c0.2,0.7,2.2,4.8,3.6,6.8c0-0.2,0-0.5-0.2-0.5c1.5,1.5,3.4,2.7,5.6,3.4c-2.7-1-4.6-2.9-6.1-4.8V496.3z M162.1,475.2v0.2
		c0-0.2,0.2-0.5,0.2-0.7C162.4,474.9,162.1,474.9,162.1,475.2z M162.8,470.6c0,0.5-0.2,0.7-0.2,1
		C162.6,471.3,162.8,471.1,162.8,470.6z M163.3,470.6c1.7-6.3,4.4-12.4,6.8-18.2l4.6-10.7c1.2-2.2,6.3-14.1,7.5-14.8
		c-1.7,0.5-5.1,9.2-5.6,9.9c-2.2,4.1-4.1,8.2-5.8,12.6C167.9,456.3,165,463.3,163.3,470.6z M163.8,494.3c0-0.2-0.2-0.5-0.2-0.5
		C163.6,494.1,163.8,494.1,163.8,494.3z M170.8,413.9c0,0,0-0.2,0.2-0.2L170.8,413.9z M170.8,414.1c0.2,0.5,1.7,1.7,1.7,1.7
		c1.2,1,2.9,1.5,4.8,1.7c-2.2-0.2-4.4-0.5-5.6-1.5C171.3,415.8,170.8,414.6,170.8,414.1z M197.3,434.7l-5.1,10.9l5.1-10.7V434.7z
		 M197.3,434.5h0.2v-0.2L197.3,434.5z M197.3,434.5h0.2v-0.2L197.3,434.5z"/>
</g>
<g id="c">
	<path class="st0" d="M60.7,460.4v0.2c-1.2,7.5-1.5,14.3-1.2,21.6l0.7,1.5c0.2,0.7,0.5,1.9,0.5,3.1c1.5,0.7,2.7,4.8,3.9,6.1
		c2.2,2.2,4.8,2.9,7.8,3.2c2.2,0,4.4-0.2,6.3-0.7c14.8-3.4,26.9-14.8,36.6-25.4c9.5-10.2,17.9-21.3,25.2-33.2c1-1.5,2.9-7.3,5.6-7
		c2.9,0.2,1.7,8.7,1.5,10.4c-3.2,24.7-19.9,46.5-38.3,62c-6.3,5.1-14.5,12.1-23,12.6c-7.3,0.5-15-3.6-20.8-7.3
		c-11.1-6.5-21.3-16.7-25.4-29.1c-3.2-9-1.2-18.7,0-27.9c0.2-0.5-0.5-5.1,0.5-6.3c-0.2,0.5-0.2,4.6-0.2,4.6c0.2-1.7,0.2-3.9,0.7-5.6
		c-0.5,0.5,0-3.4,0-3.6c0.2-2.2,0.7-4.1,1.2-6.3c1-4.6,2.4-9,3.9-13.6c2.9-9.2,6.8-18.2,9.7-27.6c2.7-8.5,6.5-16.5,10.9-24.5
		c1.2-2.2,11.1-22.1,13.3-21.6c0,0-1.7,3.4-1.5,3.6c2.4-4.1,4.8-8.5,7.5-12.6c-1,1-2.2,2.4-2.2,2.4c1-3.2,4.8-7.3,6.8-9.9
		c1.7-2.9,3.6-5.6,5.6-8.5c4.4-6.3,9.2-12.6,14.3-18.4c7-7.3,17.2-17.9,28.1-18.4c19.6-1.2,31,19.6,31.3,36.1v0.2
		c0,8.7-2.2,18.7-8,25.2c-5.3,6.1-16,13.1-24.2,14.1c-1.9,0.2-5.3,1-4.8-1.9c0-0.2,0.7-1,1.7-1.7h-0.2c1.5-0.5,9.2-18.4,10.9-18.2
		c0,0-2.9,6.5-3.6,8.2c4.1-7.8,8-15.5,11.1-23.7c1.7-4.8,5.1-13.3,2.9-18.4c-2.9-6.3-11.6-1.5-15.5,0.7l-3.4,1.9l1.2-0.5
		c-1.2,0.7-2.2,1.5-2.9,2.2c1.2-1,2.7-1.9,4.1-2.4c3.2-2.2,10.7-6.8,14.5-3.9c2.9,2.4,2.2,6.1,1,9.5c1-4.4,1-9-3.4-9.7
		s-7.8,2.9-11.1,3.9c-11.1,7.3-19.9,19.1-27.1,30c-8.2,11.9-15.5,24.7-21.8,37.8c-6.8,13.8-11.9,28.1-17.2,42.6
		c-5.1,13.8-10.2,27.9-12.8,42.2v1.2c0,0.2,0,0.2-0.2,0.5l0.2-0.2C61,460.2,60.7,460.2,60.7,460.4z M117.9,320.3
		c-13.8,15-25.4,33.2-34.2,51.9c-7.3,15.5-13.3,31-18.4,47.3c3.6-10.4,8.2-20.4,12.8-30c8-16.5,16-32.5,25.4-48
		C107.5,334.9,112.3,327.1,117.9,320.3z M134.6,308.7c-6.1,4.8-10.9,10.9-15.5,17c2.9-3.6,6.1-7.5,9.5-10.9
		C130.3,313.1,132.4,310.6,134.6,308.7z M153,317.7c0-1.7,1-3.9,1.5-6.1c-0.2,1.9-0.7,3.6-1.2,5.1
		C153.3,316.9,153.3,317.2,153,317.7z"/>
</g>
<g id="_x26_">
	<path class="st0" d="M262.9,340.3c-2.2,1.4-4.1,2.4-6.5,3.4c-2.9,1-1.7,1.7-2.2,4.6c-0.9,5.5-3.2,10.3-6,15.1
		c-3.4,5.6-5.8,10.4-11.3,14.9c-3.9,3.2-8.7,6-13.9,7.5c-6.2,1.7-12.1,0.7-18.5-0.3c-1.9-0.3-5.6-0.5-7.4-1.9
		c-10.9-5-1.7-26.5,1.9-33.7c5.3-10.8,12.8-21.2,23.4-27.2c-2.7-1.7-5.3-3.9-6.8-6.7c-3.8-6.8-1.9-12.1,0.7-18.5
		c2.1-5,7.5-8.6,11.6-11.6c4.1-3.1,9.9-6.5,14.7-7.9c10.9-2.9,21.7,8.7,18.3,19.3c-1.2,3.9-5.5,10.8-9.2,12.5
		c-2.1,1-6.5,1.4-6.5-2.1c-0.2-1.4,1.2-2.2,2.1-3.2c2.1-2.2,10.9-13.2,5.1-15.4c-5.1-1.9-14.7,6.7-18.3,9.7
		c-2.9,2.7-11.8,11.1-8.7,15.9c3.6,5.5,14.5-2.1,19.5,1.2c3.1,2.1,3.6,8,0.7,10.1c-2.7,1.9-6.7,0.2-9.7,1.5c-3.1,1.4-6,3.2-8.7,5.1
		c-1.4,1-2.4,1.9-3.1,3.1c-0.7,0.9-1,2.1-1.9,3.1c-2.4,3.4-4.8,6.7-7,10.1c-3.6,5.6-6.7,12.5-8.4,19c-0.9,2.9-1.5,9.2,1.9,10.8
		c3.9,1.9,11.5-3.1,14.5-5.1c10.1-7,17.6-17.4,24.5-27.7c-3.6,2.1-8.6,1.7-12.5,2.6c-2.7,0.5-4.4,1.7-4.8-2.1
		c-0.3-3.1,1.2-4.3,2.9-6.3c0-0.2-0.5-1,0-1.5c0.5-0.5,1.4-0.5,2.1-0.9c1.5-0.3,3.1,0.3,4.4,0.2c0.9-0.2,1.4-1.2,2.9-1.5
		c2.1-0.5,4.6-0.5,6.7-0.9c3.2-0.3,5.3-0.9,8.7-1c2.2-0.2,4.8-0.3,7-0.7c1.2-0.2,5.5-2.2,6.5,0.3
		C272.8,336.9,263.9,339.6,262.9,340.3z M204.6,347c2.1-3.2,3.8-6.8,6.2-9.9c-1.5,1.4-3.1,3.1-4.4,4.8c-3.2,4.6-5.5,8.6-7.5,13.7
		c-2.6,6.2-5.8,16.1-3.8,23.4c-0.9-4.8,0.2-11.3,1-14.4C198.1,358.6,201.3,352.5,204.6,347z"/>
</g>
<g id="d">
	<path class="st0" d="M516.6,234.7c-5.1,5.3-9.9,11.1-14.8,17c-9.9,12.1-17.7,26.2-27.6,38.8c-7.8,9.7-20.6,27.4-33.4,14.3
		c-10.4-10.2-7.8-29.6-6.5-42.4c-7.3,7.3-15,14.3-23.3,20.4c-4.6,3.2-9.9,6.8-15.8,5.6c-18.9-3.9-16.2-30.3-10.7-43.1
		c3.2-7.5,4.4-15.5,8.7-23.3c4.8-8.7,11.9-18.7,21.3-22.5c11.4-4.6,21.8,8.2,28.4,15.8c5.8-21.3,13.8-41.7,23-61.8
		c0.5-0.7,2.2-7.8,4.1-9.2c-1,0.7-2.2,4.6-2.7,6.5c1-2.7,2.4-5.3,3.9-8H471c0.7-1,3.9-8.7,4.6-9.7c2.2-3.6,4.6-7,7-10.2
		c4.6-5.3,10.2-10.4,16.7-12.8c9-3.4,22.3-1.5,25.9,8.5c4.8,13.6-4.1,29.6-10.7,40.7c-4.1,6.8-8.5,13.8-13.1,20.4l-6.3,8.2l-2.2,2.4
		c0.2-0.5,0.5-1,0.2-1.2l-1.9,2.7h0.2h-0.2l-0.7,1l-10.4,14.1c1.2-1.5,3.2-3.9,3.6-3.6c0,0-16.5,21.1-17.9,23
		c-6.1,7.5-6.8,20.1-8.2,29.6c-1,5.3-7.5,39.5,1,39.5c2.2,0,5.1-4.1,6.3-5.6c3.6-3.9,6.8-8,9.9-12.4c6.5-8.7,12.6-17.4,18.9-26.2
		c6.3-8.5,12.8-17,19.9-24.7c1.5-1.2,12.4-14.5,13.8-6.5v0.2C528.2,225.9,520.5,230.8,516.6,234.7z M438.3,234.9
		c1-4.4,2.7-8.5,0.2-12.4c-2.2-3.1-4.1-7.3-7.3-9.5c-1.2-1-2.9-2.2-4.6-1.7c-0.2,0-0.5,0-0.7,0.2l1.2-0.7c-5.1,0.5-9,8.7-11.6,13.8
		c-5.3,10.2-9.9,20.8-13.1,32c-1,3.9-5.8,17.7-0.2,20.1c2.9,1.5,7.8-2.2,10.7-4.8c-3.2,2.7-6.8,4.6-9,4.4c-8-0.5-2.2-16.2,1.5-25.9
		c-3.4,9.5-8.5,25-1.7,25.7c5.6,0.5,14.3-9.5,17.9-12.8c3.9-3.6,7.8-7.3,11.4-11.1c4.1-4.1,4.1-9.2,5.1-15c0,0,0-0.5,0.2-1.2V234.9z
		 M414.6,270.3h0.2c3.6-2.9,7.3-6.1,10.4-9.2c2.7-2.4,10.2-7.8,10.7-10.9c-5.6,5.8-11.4,11.4-17.4,16.7L414.6,270.3z M422.8,214.3
		c0.2,0,1-1,1.9-1.7C424,213.3,423.3,214.3,422.8,214.3z M433,213.1c-0.5-0.5-1-0.7-1.5-1L433,213.1z M458.9,193.2
		c-0.5,1.9-2.9,4.6-3.4,6.1c-1,2.9,0.2,6.1-1.7,8.5c0.2,0,0.5-0.2,0.5-0.5c0.7-0.7,2.2-6.3,2.7-7.5
		C457.7,198.5,458.9,195.2,458.9,193.2z M465.7,166.1c-1.2,3.2-2.9,6.5-4.4,9.2c-1.7,3.4-2.4,7-3.6,10.7c1.5-2.7,2.7-5.3,3.6-8.2
		C462.6,174.1,464.5,170,465.7,166.1z M477.1,180.6l-0.7,1.2c-0.2,1-0.5,1.5-0.2,1.2c-3.6,10.4-7,20.8-10.2,31.3
		c0.2-0.5,0.7-1,1.2-1.5c-1.2,1.7-2.4,3.2-2.7,4.6l1-1l1.7-2.2l12.4-16l-4.8,6.1l-5.3,5.6c9.9-12.4,19.4-25.7,27.9-39.3
		c7.3-11.6,18.9-28.8,17.9-43.4c0-2.2-0.5-5.3-2.7-6.5c-5.6-3.1-11.9,8-14.1,11.6c-8.7,14.1-14.8,29.6-20.4,45.1v0.2
		c0,0-0.2,0.2-0.5,1v0.2c-0.2,0.2-0.2,0.7-0.2,1C477.1,180.1,477.1,180.4,477.1,180.6z M476.4,181.8c0,0.5-0.2,1-0.2,1.2l1-2.4
		L476.4,181.8z M480,207c-0.2,0.2-0.5,0.5-0.5,0.7C479.5,207.8,479.8,207.5,480,207z M480.3,206.5L480,207
		C480,207,480.3,206.8,480.3,206.5z"/>
</g>
<g id="l">
	<path class="st0" d="M400.5,224.2c-1.5,5.3-4.6,10.2-7.5,15c-7.3,11.6-13.6,24-21.6,35.6c-8.7,12.6-18.2,25.4-29.3,36.3
		c-9.5,9-22.5,16-33.9,5.6c-10.2-9.5-10.2-26.4-9.5-39.3c1-13.6,4.6-26.7,7.8-39.7c0.2-0.5,0-6.3,1.2-8c-0.2,0.5-0.2,2.2-0.5,3.6
		c0.5-1.7,1-3.4,1.7-5.1h-0.7c-0.7-4.8,2.7-12.4,4.1-17c1.7-5.6,3.6-11.4,5.6-17c3.6-10.4,7.5-20.6,10.9-31c3.1-10.4,8-20.4,12.8-30
		c2.2-4.6,4.6-9.2,7.3-13.8c0.7-1.2,6.1-11.6,7.3-11.4l-1.9,4.1L362,99l-0.2,0.2c1.2-1.9,2.9-5.6,4.1-7l5.6-7.5
		c3.4-4.1,7.5-9.9,13.1-11.6c10.7-3.4,19.4,7.8,20.8,17.2l0.2,0.2v1.2c1.5,14.8-7.3,32.2-13.8,44.8c-3.9,7.8-8,17.2-14.1,23.5
		c-4.1,4.6-6.3,9.5-9.7,15c-9.2,14.8-19.1,29.6-30,43.1c-2.7,3.4-4.4,5.6-5.6,9.9c-1.5,4.6-2.7,9.2-3.9,14.1
		c-1.5,4.8-2.7,9.7-3.9,14.5c-0.5,2.2-2.7,9-2.4,9.5c-0.7,2.9-1.2,6.1-1.5,9l1.9-7.3c1.2,1.9-0.7,9.2-1,11.4
		c-0.5,3.6-0.7,7.5-0.7,11.4c0,4.6,0,15,6.1,16c8.2,1,17-11.4,21.1-16.5c9.9-11.9,18.2-25.2,26.4-38.3c4.4-6.8,8.5-13.6,12.6-20.6
		c2.7-4.4,4.8-10.4,8.2-14.1C401,211.4,401.5,220.4,400.5,224.2z M311.4,238c-1,0-2.2,5.1-2.9,10.7v-0.2c-1.7,8.5-2.7,17.4-3.2,26.2
		l0.7-7.8v0.7c0-1.7,0.5-3.1,0.7-4.8c1.5-7.3,1.7-16.5,4.6-23.3c0,0,0-0.2,0.2-0.7C311.8,238.5,311.8,237.8,311.4,238z M342.1,196.6
		c17.9-28.8,38.3-59.1,49.2-91.6c-4.1,11.6-10.2,22.8-15.8,33.4c-3.4,6.1-6.5,12.1-10.2,18.2c-2.2,3.6-6.5,9.2-8,13.1
		c1.9-6.3,7.8-13.6,11.1-19.4l10.2-18.9c5.8-11.6,14.5-25.9,15-39.5v-0.2c0.5-12.8-10.4,1.7-12.1,4.4c-6.8,10.9-11.6,22.8-16.5,34.4
		C356.2,152,349.2,175.3,342.1,196.6z M350.1,128.8c-0.2,0.2-0.2,0.7-0.2,1c5.3-9.7,11.6-18.9,16.7-29.1c-2.4,4.4-6.8,8.2-9.2,12.8
		C354.7,118.6,352.3,123.4,350.1,128.8z"/>
</g>
<g id="i">
	<path class="st0" d="M310.4,232.5c-4.1,6.1-8,11.9-12.6,17.7c-4.8,6.5-10.9,17-19.4,18.9c-1.9,0.2-11.1-2.2-10.9-3.6h0.5
		c-1.9-1,0,1.2-2.9-1c-2.2-1.5-3.6-3.6-5.1-5.8c-2.7-3.6-6.1-6.8-7-11.1c-0.2-1.2-0.7-9.9,1.2-9.9c0.5,0,0,1.2,0.2,1.2l0.7-4.4
		c-0.2,0.5-0.2,0.7-0.7,1c-1-0.2,3.6-17.4,4.1-18.9c1.9-5.1,2.9-10.9,7.8-13.8c3.6-2.4,8.2-1.9,12.8,0c1.9,0.7,7.5,3.2,7.5,5.6
		c0,1.5-1.2,1.7-1.9,2.4c0.2-0.2,0.7-0.2,1-0.2c0.7,0.5-2.9,5.6-3.4,5.3c-0.5,0,0.2-1.2,0.5-1.9c-4.6,7.5-8.5,16-11.4,24.5
		c1.2-3.2,7.3-16.7,8-16.5c0.7,0.2-16,29.3-7.8,33.4c3.9,1.9,10.4-4.1,13.1-6.3c4.6-3.6,10.9-8.2,14.3-12.4c-0.5,0.5-1,0.5-1.7,0.5
		c-1-1.2,11.1-17.2,13.3-18.7c1.7-1.2,5.1-2.2,5.6,1C317.2,224,312.8,229.3,310.4,232.5z M269.2,246.3l-0.5,1.9l0.5-1.5v-0.2
		C269.4,246,269.4,246,269.2,246.3z M272.3,186.4c-0.2-0.7-1-8.2,1.7-7c0-0.7,2.9-4.4,1.5-1.2c2.2-2.9,4.1-6.3,5.8-9.9l-2.9,4.4
		c2.2-4.4,5.6-13.3,5.8-15c0-0.2-0.5-2.4,0-2.9c-5.1-1.9-1.5-4.8,0.7-6.5c-0.5,0-0.7,0-1-0.5c-1-1,1.9-1.7,2.7-1.9
		c3.4-1.5,7.8-0.7,10.9,1c2.7,1.7,5.1,5.3,6.1,8.2c1,3.2-1.5,6.8-3.6,8.7c-1,1-2.7,1.7-3.9,2.7c-1.5,1.7-1.2,3.9-2.4,5.6
		c-0.7,1.2-2.2,1.7-2.9,2.9c-1,0.7-1,1.5-0.2,2.2c-1,0.5-1.7,1-2.4,1.7c-2.4,3.9-3.9,6.1-6.8,8.2c2.7-1.7,4.4-3.2,6.8-6.3
		c1.9-2.4,4.1-4.1,7-5.3c-2.4,2.7-2.9,5.8-5.8,7.8c-2.9,1.7-0.2-1.7-3.4,1.2c0,0,1.5-0.2,0.7,0.2c-2.2,1.9-4.4,5.1-7.3,6.3
		c-1.5,0.5-2.4,1.5-4.1,0.7c-1.7-1-1-1.9-1.5-2.7C273.8,188.9,272.3,186.7,272.3,186.4z M274.3,179.4c0.2,0,0.2,0.2,0.2,0.2
		c0.2-0.2,0.2-0.2,0.2-0.5C274.5,179.4,274.5,179.4,274.3,179.4z M278.2,173.1c-0.5,1-1,1.5-1,1.5L278.2,173.1z"/>
</g>
<g id="u">
	<path class="st0" d="M265.3,230.5c-3.4,5.8-8,11.1-12.6,16.2c-7,7.5-17.2,19.9-28.6,20.6c-5.3,0.5-10.9-2.2-13.8-7
		c-5.1-9.2,0.2-20.8,3.4-29.3c-6.3,7.5-12.4,15-18.4,22.8c-1.7,2.2-20.1,20.8-22.5,17.7c0-0.2,2.2-1.2,1.9-1.5
		c-2.4,1.5-5.1,2.7-7.8,2.7c0.2,0.2,0.7,0.2,1.2,0.2c0.5,1.7-6.5-1-7.3-1.5c-2.7-2.4-3.9-6.3-4.6-9.7c-1.2-7.8,0-15.5,1.9-23
		c1.9-7.8,3.9-15.3,7.3-22.8c1.7-3.9,4.6-5.8,6.3-9.2c2.7-6.1,6.1-13.8,11.4-18.2c4.4-3.9,12.1-3.2,16.5,0.2c4.4,3.4,1.9,5.1,0,8.5
		c0.5-0.7,1-1.2,1.5-1.5c0.5,0-5.3,11.9-6.5,11.6c0,0,0.7-2.4,1.5-3.9c-3.1,5.6-6.1,11.4-8.7,17.2c0.5-0.7,1-1,1.5-1
		c-0.5-0.2-9.2,22.3-9.9,24.2c-1,3.6-5.3,14.3,1.2,12.1c7-1.9,13.8-11.6,18.2-16.7c5.8-6.5,10.7-13.6,15.8-20.8
		c5.3-8,11.6-21.3,24-17.9c10.9,3.2,2.7,14.8-0.7,21.6c0.5-0.5,1-1.2,1.2-1c1.5,1.7-3.4,10.9-4.1,13.3c-1.5,4.6-3.4,9.9-3.6,15
		c-0.2,5.8,1.5,4.1,5.3,1.2c8.2-6.5,15-14.8,22.1-22.3c0.5-0.5,11.6-13.3,12.4-8.7C270.7,222.8,266.8,228.1,265.3,230.5z
		 M182.2,232.7c-2.7,6.5-7.8,16.2-6.3,23.3C175.4,253.8,178.8,242.2,182.2,232.7z M214.7,230.1c-0.7,0.5-1,1.2-1,2.2
		C213.9,231.5,214.2,230.8,214.7,230.1z M239.6,209.5c-2.4,6.1-9.7,13.8-7.8,19.9c0,0.2,0,0.5-0.2,0.7c0.2-0.2,0.5-0.5,0.5-0.7
		c0.7-1.2,1-3.1,1.5-4.6C235.3,219.6,237.7,214.8,239.6,209.5z"/>
</g>
<g id="b">
	<path class="st0" d="M140.5,217c1.7,8.5,0,18.2-2.7,26.4c-9.2,28.6-35.6,48.7-62.3,60.6c-11.1,5.1-23.7,9.5-35.9,11.9
		c-7.5,1.5-14.8,1.9-22.1,0.5c-3.9-0.5-14.3-1.5-16.7-4.8c-2.4-2.9,0.2-2.7,3.2-3.2c7-1.2,13.8-2.2,20.4-4.4
		c15.5-4.6,30.3-11.6,43.9-19.9c12.8-7.8,25-16.7,34.9-27.9c4.6-5.3,9-11.1,11.9-17.4c1.5-3.2,4.4-12.8,2.9-14.3
		c-0.5-0.2-1.5-4.8-1.5-7.5c0.2,1.7,1.2,3.4,1.5,4.6c-0.2-2.7-0.7-5.3-1.9-8v0.7c-0.7-1.2-3.6-4.6-3.9-4.6c-2.2-2.2-4.8-3.2-7.8-3.6
		c-6.1-0.7-9.9,2.4-15.3,3.9c-6.3,1.7-24-9.7-17-15.3c3.1-2.4,8.2-3.6,11.9-5.8c6.1-4.4,11.9-9,17.2-14.3
		c5.8-5.6,10.9-11.9,15.8-18.4c1.2-1.7,9-15,10.2-14.8c0,0-1.9,4.4-1.9,4.6c2.7-5.1,5.3-10.2,7.3-15.5v-0.2l0.2-0.2l0.2-0.7
		c3.2-7.3,6.3-22.1-0.2-23.7c-4.4-1.2-9.5,5.1-12.1,7.8c-13.8,13.6-25.7,29.8-36.1,46c-6.1,9.2-11.6,18.4-17.2,27.9
		c-3.4,5.6-8,10.2-10.4,16c-7.5,17.7-15.5,34.7-21.3,53.1c-2.9,9.5-4.8,18.9-6.5,28.6l-0.7-1.5c-6.8,7.3-16.7,2.2-19.9-5.6
		c-3.6-8-1.7-19.6-1.5-28.1c0.5-10.2,1-20.6,3.4-30.5c1-4.1,2.4-7.8,3.9-11.6c0.2-1,1-8.5,1.7-8.7c0,0.2,0,0.5,0.2,0.7
		c0-0.5,0.2-1,0.2-1.7c-1,2.4-0.2-3.9,0-4.1c0.5-2.7,1.5-5.3,2.2-7.8c1.5-4.8,2.7-9.2,3.4-14.1c0.5-1.7,6.5-23.3,9-22.8
		c0.5,0.2-0.5,1.7-0.2,1.9l1.7-5.3c-0.7-0.2,10.9-25.9,11.9-28.1c4.4-8,7.5-16,14.5-21.8c4.4-3.4,9.7-13.8,17.7-10.9
		c3.6,1.5,7.3,6.8,7.5,10.7c0,2.9-1.5,3.4-2.9,5.1c0.2-0.2,0.7-0.5,1.2-0.5c0.5,0.2-5.8,8.5-6.5,8.2c-0.2,0,0.7-1.7,1.5-2.9
		c-8.7,11.9-15.5,25-21.3,38.5c2.4-5.1,12.4-25.7,14.1-26.4c-1.2,0.7-12.6,25.4-13.8,27.6c-4.1,9.7-7.8,19.4-10.7,29.6
		c-2.7,9.7-4.6,19.4-7.3,29.1c-2.2,7.8-5.3,16.5-6.5,24.2c0.2-0.5,0.5-1,1-1.5c0.2-0.2-1,11.4-1,12.1l-1,9.2
		c10.4-35.4,27.9-68.8,48.5-99.1c-7.8,11.1-15,22.8-21.8,34.7c-3.2,6.1-6.3,12.1-9.2,18.2c-2.2,4.4-6.8,11.4-7.5,15.8
		c0.5-4.1,3.9-9,5.6-12.6c1.9-4.6,4.1-9,6.5-13.3c4.1-8,8.5-16,13.1-23.7c10.2-16.2,21.3-32.2,33.4-47c5.8-7.3,12.1-14.3,18.7-20.8
		c5.1-4.8,12.1-12.6,19.4-13.8c13.6-2.2,22.1,11.9,23.3,23.5c4.4,34.9-25.9,70.8-56.5,84.1C120.4,192.2,136.9,199.8,140.5,217z
		 M20.6,217.7c0.2-1.5,0.2-2.9,0.2-4.1c-1.2,2.4-2.9,5.1-3.6,7.3c-1.5,5.1-2.2,12.4-1.7,17.7c-0.2-3.6,0.5-9,1.9-12.4
		C18.6,223.5,20.1,220.8,20.6,217.7z M52.1,153.2c-0.2,0.5-0.5,1-0.5,1.5L52.1,153.2z M56,144c-0.2,0.2-0.5,0.7-0.5,1L56,144z
		 M119.7,239.7l-1.2,2.9c-4.1,8.5-8.7,15-14.8,22.1l-8.2,8.7c2.9-2.2,6.5-3.6,9.9-6.5c3.6-3.2,7.8-8,9.5-12.6
		C116.5,250.4,119.2,243.9,119.7,239.7z M96.4,125.1l1.7-1.7L96.4,125.1z M135.7,164.6c2.2-2.4,4.1-4.8,6.3-7
		c6.1-6.8,9-13.3,11.4-21.3c-2.4,5.3-6.1,10.7-8.5,14.8C142.2,155.9,139.1,160.3,135.7,164.6z"/>
</g>
<g id="e">
	<path class="st0" d="M354.9,87.8l-5.3,7l-9.2,12c-2.4,3.1-5.3,6-7.7,9.1c-2.6,3.4-4.8,7-7.7,10.3c-3.1,3.3-6.7,6.7-10.8,8.9
		c-2.9,1.5-5.6,1.7-8.7,0.9c-4.4-1.2-8.4-3.9-11.3-7.4c-0.9-1-1.7-1.9-1.9-3.2c-0.2-1-0.3-2.2-0.3-3.4c-0.2-2.1,0.5-3.6,0.9-5.6
		c0.3-2.2,1.4-4.3,1.7-6.5c0.3-2.4,1-4.6,1.4-6.8c0.2-2.1-0.2-4.3,0.3-6.3c0.3-1.4,1.4-2.7,1.9-4.3c-0.5,1-1.4,2.1-1.5,2.9
		c-0.5,1.4-0.9,2.7-1.4,3.9c-0.5,1.4-0.7,2.6-1.2,3.9c-0.7,1.5-1.4,2.9-1.5,4.6c-0.2,1.5,0,3.1-0.2,4.6c-0.3,1.5-0.7,2.7-0.7,4.3
		c0,0.5,0.3,1.5,0.3,1.9c0,0.7-0.3,1.5-0.3,2.4c0,1.5,0.3,3.1,0.5,4.8c-2.7-4.8-2.2-9.6-1.4-14.7c0.9-5.1,1.5-10.1,2.7-15.1
		c2.2-10.1,6.8-20,13.3-28c5.3-7,12.3-12.3,21.5-10.6c3.4,0.7,7.2,2.2,9.4,5.1c2.4,3.2,2.2,7.4,1,11.1c-2.2,6.7-7.9,12-13.2,16.4
		c-2.2,1.9-4.6,3.8-7.2,5.3c-1.7,1-3.6,1.7-5.5,2.4l-2.9,1c-1.2,0.3-1.4,0.2-1.9,1.2c-0.9,1.7-0.3,3.4-0.7,5.1
		c-0.3,2.2-0.9,4.3-1.4,6.5c-0.9,4.1-2.2,9.4-1.2,13.7c1.9,8.7,16.2-4.8,18.8-7.2c1.7-1.5,3.2-3.2,4.8-4.8c0.9-1,1.9-1.9,2.6-2.9
		c0,0,0.3-0.9,0.3-1.2c2.1-3.2,4.8-6.3,7.4-9.4c3.1-3.6,5.8-7.4,8.7-11.3c1.5-2.2,5.1-8.6,7.9-3.9v0.2c0.2,0.2,0.2,0.2,0.2,0
		C356.2,85.9,355.7,86.8,354.9,87.8z M310.9,91.9c5.5-2.9,10.4-6.8,14.4-11.5l2.9-3.8c0.5-0.9,1.4-1.4,1.7-2.4
		c0.2-0.9-0.2-1.5,0-2.6l0.7-3.6c0.2-1.7-0.5-6.2-3.1-5.6c-1.2,0.3-2.4,1.9-3.1,2.7l-3.1,4.1c-3.6,5.3-5.5,11.1-8,16.6
		c0,0,0,0.2-0.2,0.5C312.3,88.1,311.8,90,310.9,91.9z"/>
</g>
<g id="w">
	<path class="st0" d="M324.4,14.2c-1.4,1-2.9,2.2-3.9,3.2c-1.5,1.5-0.9,1.5-1.9,3.2c-2.4,3.9-6,7.5-8.9,11.1
		c-3.2,4.1-5.8,8.2-8.7,12.3c-2.6,3.8-6.2,7.4-8,11.5c-1.4,3.2-2.9,6.5-5,9.7c-4.4,6.8-8.4,14-12.5,21.2c-3.1,5.3-4.8,10.9-7.9,16.6
		c-4.8,8.7-9.1,18-13.3,27c-1.2,2.6-2.4,5-2.9,7.4c-0.7,2.7-1.4,4.1-4.6,4.4c-6,0.5-11.6-4.4-12.3-10.3c-1-7.4-0.2-15.6,0-23.1
		c0.2-3.9,0.5-8.6,1.9-12.5c0.5-1.7,1-2.4,1.2-4.3c0.2-0.5,0.2-2.7,0.3-2.4c0-1.5-0.3-3.4,0.2-5.6c0.5-2.7,1.4-5.5,1.7-8.2
		c0-1,1.4-15.4,3.6-15.1c0.3,0-0.2,1,0.2,1c0.2-1,0.3-2.2,0.7-3.2c-0.2,0-0.2,0.2-0.3,0.2c0.2,0,2.2-9.4,2.6-10.3l-6.5,8.4
		c-2.7,3.8-6.3,7.2-8.7,11.1c-5.1,8.6-10.8,16.6-16.2,25c-5.3,7.7-10.1,15.7-14.7,23.8c-2.6,4.4-6,8.9-7.5,13.9
		c-0.2,0.9-0.3,1.7-0.7,2.6c-2.2,5.1-10.3,6.2-14.7,3.6c-4.3-2.6-3.2-6.8-1.9-10.8c1.4-3.9,2.2-7,3.2-10.9c2.1-8.6,5.8-16.6,8-25
		c2.2-8.2,4.4-16.4,6.5-24.6c3.4-13.3,6.2-27.5,7-41.6c-0.9,11.5-3.9,23.4-6.2,34.5c-2.9,13.9-7,28.2-11.5,41.7
		c1.7-6.8,2.7-13.9,4.6-20.7c0.9-2.9,2.1-5.5,2.9-8.4c0.2-0.2,1-5.6,1.2-5.8c0,0.2,0,0.3,0.2,0.5c0-0.3,0.2-0.5,0.2-0.9
		c-0.5,1-0.3-2.9-0.2-3.1c0.2-1.5,0.5-3.1,0.9-4.6c0.9-3.4,1.5-6.5,1.7-9.9c0-1.9,1.5-16.8,3.1-16.8c0.3,0,0,1.2,0.2,1.4
		c0.3-1.5,0.5-3.1,0.7-4.8c-0.2,0.3-0.2,0.7-0.5,0.9c0.2-0.5,0.7-8.7,0.7-9.6c-7.9,5.3-5.6-7-3.8-10.6c1.4-3.1,4.3-6.7,8-6.8
		c0.9,0,1,0.7,1.9,0.7c0.9,0.2,1-0.3,1.7-0.2c2.9,0.5,4.6,3.2,5.8,5.8c1.5,3.2,2.1,6.7,2.2,10.3c0,2.2-0.9,3.4-0.9,5
		c0-0.2,0.2-0.3,0.3-0.5c0.7-0.2,0.3,7-0.5,7c-0.2,0.2,0-3.1,0-2.9c-1,10.1-3.1,20.4-5,30.3c0.5-1.9,3.9-20,4.1-20
		c0,0-5.6,31.1-6.2,34c-2.2,11.5-4.1,22.9-7.2,34.2l9.1-13c3.6-5,5.8-10.1,9.7-15.1c3.9-4.6,7.4-9.7,11.1-14.5
		c2.1-2.9,3.1-5.8,5.1-8.6c6.3-9.1,14.2-18,20.7-26.2c0.7-0.9,0.5-1.9,2.4-2.4c2.1-0.5,4.6,1,6,2.4c1.9,1.5,3.1,3.8,3.2,6.2
		c0.2,2.6-1.2,2.7-1.9,4.3l0.7-0.5c0.5,0.2-1.4,5.6-1.9,5.6c-0.3,0-0.3-0.7-0.2-1.4c-2.7,7.9-4.4,15.9-6,23.9
		c0.3-0.7,1.7-7.2,2.9-11.8c-1.9,9.2-5,27.9-5.3,29.8c-0.5,6-1,12-2.1,18c-0.7,4.1-2.1,8.7-2.4,12.5c0-0.2,0.2-0.3,0.5-0.7
		c0.5-0.3,0.2,7.5,0.2,7.9c3.1-7.2,6.2-14.5,9.7-21.6c2.6-5.1,5.8-9.9,8.2-15.2c5.6-12.5,12.5-24.1,19.8-35.7s14.7-23.4,23.3-34.2
		c3.2-4.1,7.2-7.7,10.6-11.8c0.9-1,0.2-1.9,2.2-2.2c2.7-0.5,5.6,2.9,6.5,5.1c0,0-0.2-0.2,0,0.2C332.7,9.8,327.2,12,324.4,14.2z
		 M255,75.5c0.3-2.1,0.9-3.9,1.4-6.3c0,0.2-0.2,0.3-0.2,0.5c-0.5,1.2-1,2.4-0.9,1.9C254.8,73.3,255,74.3,255,75.5z M260.6,51
		c0.3-1.7,0.7-2.6,0.9-2.6C261.5,48.5,261,49.5,260.6,51z"/>
</g>
</svg>
